<svg xmlns="http://www.w3.org/2000/svg" xmlns:xlink="http://www.w3.org/1999/xlink" width="480.148" height="378.91"><defs id="defs3713"><linearGradient id="linearGradient5616"><stop id="stop5618" offset="0"/><stop id="stop5620" offset="1" stop-opacity="0"/></linearGradient><filter x="-.315" y="-.219" width="1.63" height="1.439" color-interpolation-filters="sRGB" id="filter5626"><feGaussianBlur stdDeviation="1.179" id="feGaussianBlur5628"/></filter><linearGradient id="linearGradient5648"><stop id="stop5650" offset="0"/><stop id="stop5652" offset="1" stop-opacity="0"/></linearGradient><linearGradient id="linearGradient5640"><stop id="stop5642" offset="0"/><stop id="stop5644" offset="1" stop-opacity="0"/></linearGradient><linearGradient x1="302.589" y1="111.651" x2="314.572" y2="111.651" id="linearGradient6918" xlink:href="#linearGradient5616" gradientUnits="userSpaceOnUse"/><radialGradient cx="325.415" cy="134.438" r="4.084" fx="325.415" fy="134.438" id="radialGradient6920" xlink:href="#linearGradient5648" gradientUnits="userSpaceOnUse" gradientTransform="matrix(1 0 0 .356 0 86.542)"/><radialGradient cx="325.415" cy="134.438" r="4.084" fx="325.415" fy="134.438" id="radialGradient6922" xlink:href="#linearGradient5640" gradientUnits="userSpaceOnUse" gradientTransform="matrix(1 0 0 .356 0 86.542)"/><linearGradient x1="302.589" y1="111.651" x2="314.572" y2="111.651" id="linearGradient7247" xlink:href="#linearGradient5616" gradientUnits="userSpaceOnUse"/><radialGradient cx="325.415" cy="134.438" r="4.084" fx="325.415" fy="134.438" id="radialGradient7249" xlink:href="#linearGradient5648" gradientUnits="userSpaceOnUse" gradientTransform="matrix(1 0 0 .356 0 86.542)"/><radialGradient cx="325.415" cy="134.438" r="4.084" fx="325.415" fy="134.438" id="radialGradient7251" xlink:href="#linearGradient5640" gradientUnits="userSpaceOnUse" gradientTransform="matrix(1 0 0 .356 0 86.542)"/><linearGradient x1="302.589" y1="111.651" x2="314.572" y2="111.651" id="linearGradient7580" xlink:href="#linearGradient5616" gradientUnits="userSpaceOnUse"/><radialGradient cx="325.415" cy="134.438" r="4.084" fx="325.415" fy="134.438" id="radialGradient7582" xlink:href="#linearGradient5648" gradientUnits="userSpaceOnUse" gradientTransform="matrix(1 0 0 .356 0 86.542)"/><radialGradient cx="325.415" cy="134.438" r="4.084" fx="325.415" fy="134.438" id="radialGradient7584" xlink:href="#linearGradient5640" gradientUnits="userSpaceOnUse" gradientTransform="matrix(1 0 0 .356 0 86.542)"/><linearGradient x1="302.589" y1="111.651" x2="314.572" y2="111.651" id="linearGradient4325" xlink:href="#linearGradient5616" gradientUnits="userSpaceOnUse"/><radialGradient cx="325.415" cy="134.438" r="4.084" fx="325.415" fy="134.438" id="radialGradient4327" xlink:href="#linearGradient5648" gradientUnits="userSpaceOnUse" gradientTransform="matrix(1 0 0 .356 0 86.542)"/><radialGradient cx="325.415" cy="134.438" r="4.084" fx="325.415" fy="134.438" id="radialGradient4329" xlink:href="#linearGradient5640" gradientUnits="userSpaceOnUse" gradientTransform="matrix(1 0 0 .356 0 86.542)"/><linearGradient x1="302.589" y1="111.651" x2="314.572" y2="111.651" id="linearGradient7077" xlink:href="#linearGradient5616" gradientUnits="userSpaceOnUse"/><radialGradient cx="325.415" cy="134.438" r="4.084" fx="325.415" fy="134.438" id="radialGradient7079" xlink:href="#linearGradient5648" gradientUnits="userSpaceOnUse" gradientTransform="matrix(1 0 0 .356 0 86.542)"/><radialGradient cx="325.415" cy="134.438" r="4.084" fx="325.415" fy="134.438" id="radialGradient7081" xlink:href="#linearGradient5640" gradientUnits="userSpaceOnUse" gradientTransform="matrix(1 0 0 .356 0 86.542)"/><linearGradient x1="302.589" y1="111.651" x2="314.572" y2="111.651" id="linearGradient7757" xlink:href="#linearGradient5616" gradientUnits="userSpaceOnUse"/><radialGradient cx="325.415" cy="134.438" r="4.084" fx="325.415" fy="134.438" id="radialGradient7759" xlink:href="#linearGradient5648" gradientUnits="userSpaceOnUse" gradientTransform="matrix(1 0 0 .356 0 86.542)"/><radialGradient cx="325.415" cy="134.438" r="4.084" fx="325.415" fy="134.438" id="radialGradient7761" xlink:href="#linearGradient5640" gradientUnits="userSpaceOnUse" gradientTransform="matrix(1 0 0 .356 0 86.542)"/><style id="style3184" type="text/css">.fil0 {fill:#DA251D}</style></defs><g id="g4403"><path id="path3978" d="M239.195 2.55c-88.1 0-159.51 71.41-159.51 159.51s71.41 159.51 159.51 159.51 159.51-71.41 159.51-159.51S327.295 2.55 239.195 2.55zm0 12.644c81.108 0 146.866 65.758 146.866 146.867 0 81.11-65.757 146.867-146.865 146.867S92.33 243.17 92.33 162.06c0-81.108 65.757-146.866 146.865-146.866z" fill="#004614" stroke="#004614" stroke-width="5.139" stroke-linecap="round"/><path id="path3948" d="M77.45 156.93c42.77 0 61.622-14.71 91.137-14.71 32.365 0 43.755 12.916 68.532 12.916 30.15 0 31.187-12.558 63.508-12.558 29.566 0 52.846 16.058 96.52 15.07" stroke="#004614" stroke-width="11.239" stroke-linejoin="round" fill="none"/><path id="path3950" d="M78.314 179.516c42.77 0 61.622-14.71 91.137-14.71 32.367 0 43.756 12.916 68.534 12.916 30.152 0 31.187-12.558 63.51-12.558 29.564 0 52.844 16.06 96.518 15.07" stroke="#004614" stroke-width="11.239" stroke-linejoin="round" fill="none"/><path id="path3952" d="M85.83 201.867c36.417-1.89 54.593-14.475 81.892-14.475 32.366 0 43.755 12.917 68.533 12.917 30.152 0 31.187-12.56 63.51-12.56 28.606 0 51.328 15.035 92.333 15.114" stroke="#004614" stroke-width="11.239" stroke-linejoin="round" fill="none"/><path id="path3954" d="M91.907 224.137c33.28-2.675 51.035-14.16 77.112-14.16 32.365 0 43.754 12.918 68.53 12.918 30.154 0 31.19-12.558 63.51-12.558 26.418 0 47.818 12.82 83.232 14.846" stroke="#004614" stroke-width="11.239" stroke-linejoin="round" fill="none"/><path id="path3956" d="M103.75 245.47c26.528-3.928 43.077-12.905 66.134-12.905 32.365 0 43.755 12.917 68.532 12.917 30.152 0 31.187-12.558 63.51-12.558 23.282 0 42.668 9.96 71.185 13.708" stroke="#004614" stroke-width="11.239" stroke-linejoin="round" fill="none"/><path id="path3958" d="M235.245 38.094c11.93 5.22 20.317 17.107 20.317 30.962 0 18.668-15.157 33.826-33.825 33.826-9.334 0-17.767-3.826-23.884-9.942 6.286 12.03 18.88 20.263 33.394 20.263 20.794 0 37.662-16.868 37.662-37.663 0-19.44-14.755-35.444-33.665-37.446z" fill="#004614"/><path id="path3960" d="M217.755 80.182l-7.184-9.133-11.32 2.622 6.467-9.654-5.993-9.956 11.18 3.167 7.617-8.777.444 11.61 10.7 4.533-10.906 4.01z" fill="#004614"/><path d="M62.66 259.258z" id="path4219" fill="#fff" stroke="#004614" stroke-width="1.8"/><g id="g4798" fill="#fff" stroke="#004614" stroke-width="1.041"><g id="g4503"><path d="M69.98 162.402l-2.745 23.837" id="path4181"/><path d="M75.627 185.064L72.17 207.11" id="path4183"/><path d="M45.367 167.34l-1.296 23.344" id="path4191"/><path d="M33.264 179.134l1.652 24.57" id="path4189"/><path d="M56.3 183.545l4.53-36.906" id="path4179"/><path d="M78.247 198.704l-4.655 23.453" id="path4185"/><path d="M33.694 224.22l-5.62-14.698" id="path4187"/></g><g id="g4461"><path d="M67.63 183.983c4.56 14.35-4.855 30.62-10.16 35.447.22-11.016.252-31.427 10.16-35.447z" id="path4177"/><path d="M72.385 204.3c-14.876 3.882-11.968 15.804-14.698 29.395 7.276-6.304 16.728-9.407 14.698-29.395z" id="path4169"/><path d="M44.503 187.225c-8.767 9.983.08 23.307 4.323 32.205 4.96-11.29 5.61-26.07-4.323-32.205z" id="path4173"/><path d="M34.777 201.707c.248 15.798 4.12 28.835 16.426 35.446-1.07-18.422-5.028-32.515-16.426-35.446z" id="path4171"/><path d="M56.607 180.31c-9.887 10.65-6.197 27.507-.216 35.878 2.97-8.613 8.12-26.863.217-35.88z" id="path4175"/><path d="M53.58 202.355c7.368 11.738 8.77 28.176.433 39.986-8.946-10.776-6.493-28.27-.432-39.985z" id="path4167"/><path d="M53.365 249.257c-1.858-10.642 5.994-22.752 20.533-29.18.223 21.52-9.24 31.847-20.533 29.18z" id="path4165"/><path d="M57.202 249.686c-16.295-.852-21.4-12.437-23.966-27.017 11.595 3.537 19.288 12.527 23.966 27.016z" id="path4163"/></g></g><g id="g4817" fill="#fff" stroke="#004614" stroke-width="1.041"><g id="g4538"><path d="M.94 250.84l16.858 22.478" id="path4199"/><g id="g4512"><path d="M5.218 233.933l10.807 21.182" id="path4197"/><path d="M24.01 241.592L3.263 208.74" id="path4195"/><path d="M19.43 284.33l17.292 7.35" id="path4201"/><path d="M33.037 232.636L22.23 214.48" id="path4193"/><path d="M49.153 246.57l-5.187-13.833" id="path4221"/><path d="M62.56 259.667l-8.127-15.065" id="path4255"/></g></g><g id="g4567"><path d="M14.46 252.342c9.693-3.368 19.706-.483 21.614 21.18-13.12-3.243-21.727-10.457-21.614-21.18z" id="path4157-1"/><path d="M32.615 231.81c13.906 7.1 18.403 24.49 15.283 35.804-11.807-4.44-19.688-21.164-15.283-35.805z" id="path4161-0"/><path d="M49.042 245.642c-7.7 13.978-1.837 26.644 8.213 38.905 1.716-13.794 5.082-27.892-8.213-38.905z" id="path4153-5"/><path d="M20.728 236.78c-2.955 9.38 7.073 30.388 22.478 28.314C40.58 251.87 32 239.414 20.728 236.78z" id="path4159-8"/><path d="M15.756 270.93c7.123 15.126 21.43 16.99 35.88 18.588-11.078-11.193-21.502-26.093-35.88-18.588z" id="path4155-9"/><path d="M33.048 259.042c14.224 4.155 24.564 12.9 26.152 31.99-15.55-4.38-25.005-14.363-26.152-31.99z" id="path4151-7"/><path d="M62.226 258.61c-7.6 17.4-6.287 31.514 7.997 40.85 6.458-18.88.36-30.516-7.997-40.85z" id="path4147"/><path d="M33.48 290.382c14.726-6.633 28.354-5.805 40.202 7.133-16.54 6.755-30.002 4.556-40.202-7.133z" id="path4149-6"/></g></g><path d="M43.638 311.132c95.553-39.278 82.906 40.196 141.355 27.45-37.936-3.114-58.403-85.505-141.355-27.45z" id="path4003" fill="#fff" stroke="#004614" stroke-width="1.8"/><path d="M280.526 376.405c2.736 2.55 3.96 1.732 6.268 0 2.137-1.602 3.76-4.022-.216-6.05-15.843-8.09-33.862-30.693-91.643-30.693l-68.95-.917-7.35 7.78 74.14-.81c30.532-.336 61.61 6.332 87.75 30.69z" id="path4005" fill="#fff" stroke="#004614" stroke-width="1.8"/><path d="M71.295 356.726l21.258-.812" id="path4209" fill="#fff" stroke="#004614" stroke-width="1.8" stroke-linecap="round"/><path d="M44.935 336.636l26.8 10.554" id="path4207" fill="#fff" stroke="#004614" stroke-width="1.8" stroke-linecap="round"/><path d="M23.32 291.247l35.88 23.775" id="path4203" fill="#fff" stroke="#004614" stroke-width="1.8" stroke-linecap="round"/><path d="M88.084 305.717L75.98 293.613" id="path4213" fill="#fff" stroke="#004614" stroke-width="1.8" stroke-linecap="round"/><path d="M108.965 311.21l-14.012-10.5" id="path4211" fill="#fff" stroke="#004614" stroke-width="1.8" stroke-linecap="round"/><g id="g4837" fill="#fff" stroke="#004614" stroke-width="1.041"><path d="M38.45 315.887l23.165 14.444" id="path4205"/><g id="g4034"><path d="M57.928 328.132c14.27-9.424 30.503-.645 30.567 6.877-9.845 3.555-23.104 7.03-30.567-6.878z" id="path4017"/><path d="M65.57 300.928c-.476 14.437 12.963 25.474 27.816 24.147-3.49-15.63-20.124-24.846-27.816-24.147z" id="path4019"/><path d="M56.094 312.85c2.11 11.247 19.698 16.538 32.095 12.837-2.287-11.49-24.314-17.11-32.096-12.838z" id="path4021"/><path d="M86.967 304.137c15.897 1.726 21.295 15.894 23.077 26.746-14.023-3.105-28.36-8.512-23.077-26.746z" id="path4015"/><path d="M66.18 344.944c9.95-12.902 24.517-10.8 40.96-2.6-12.674 12.853-26.67 9.526-40.96 2.6z" id="path4009"/><path d="M78.102 323.394c14.637-5.69 35.488 2.4 36.833 16.66-14.87 4.045-37.84.39-36.833-16.66z" id="path4011"/><path d="M106.53 309.333c12.19 6.026 25.24 11.168 23.994 31.026-24.924 6.065-23.903-14.656-23.995-31.027z" id="path4013"/><path d="M87.48 356.173c16.74 2.934 31.367-.427 43.022-15.398-12.67-4.444-32.46-1.49-43.023 15.398z" id="path4007"/></g></g><path d="M65.86 301.416l-9.08-9.51" id="path4215" fill="#fff" stroke="#004614" stroke-width="1.8" stroke-linecap="round"/><path d="M135.28 356.52H155.6c18.737-13.433 26.157-28.903 57.925-30.26 11.59-.493 22.392 10.285 24.64 15.13-15.18-8.156-26.92-5.408-44.092 13.402-8.23 9.015-18.926 14.596-33.284 15.562-19.224 1.292-18.91-8.103-25.505-13.833z" id="path4001" fill="#fff" stroke="#004614" stroke-width="1.8"/><path d="M417.49 259.258z" id="path4911" fill="#fff" stroke="#004614" stroke-width="1.8"/><g id="g4913" fill="#fff" stroke="#004614" stroke-width="1.041"><g id="g4915"><path d="M410.167 162.402l2.747 23.837" id="path4917"/><path d="M404.522 185.064l3.458 22.046" id="path4919"/><path d="M434.78 167.34l1.298 23.344" id="path4921"/><path d="M446.885 179.134l-1.71 24.246" id="path4923"/><path d="M423.847 183.545l-4.528-36.906" id="path4925"/><path d="M401.902 198.704l4.654 23.453" id="path4927"/><path d="M446.073 224.945l5.62-15.346" id="path4929"/></g><g id="g4931"><path d="M412.52 183.983c-4.563 14.35 4.854 30.62 10.157 35.447-.22-11.016-.25-31.427-10.158-35.447z" id="path4933"/><path d="M407.764 204.3c14.876 3.882 11.967 15.804 14.697 29.395-7.274-6.304-16.726-9.407-14.696-29.395z" id="path4935"/><path d="M435.646 187.225c8.766 9.983-.08 23.307-4.323 32.205-4.96-11.29-5.61-26.07 4.323-32.205z" id="path4937"/><path d="M445.372 201.707c-.248 15.798-4.12 28.835-16.427 35.446 1.07-18.422 5.03-32.515 16.427-35.446z" id="path4939"/><path d="M423.542 180.31c9.887 10.65 6.196 27.507.216 35.878-2.97-8.613-8.12-26.863-.216-35.88z" id="path4941"/><path d="M426.568 202.355c-7.368 11.738-8.77 28.176-.433 39.986 8.946-10.776 6.493-28.27.433-39.985z" id="path4943"/><path d="M426.784 249.257c1.858-10.642-5.994-22.752-20.533-29.18-.222 21.52 9.24 31.847 20.534 29.18z" id="path4945"/><path d="M422.947 249.686c16.295-.852 21.4-12.437 23.965-27.017-11.594 3.537-19.287 12.527-23.965 27.016z" id="path4947"/></g></g><g id="g4949" fill="#fff" stroke="#004614" stroke-width="1.041"><g id="g4951"><path d="M479.21 250.84l-16.86 22.478" id="path4953"/><g id="g4955"><path d="M474.93 233.933l-10.807 21.182" id="path4957"/><path d="M456.137 241.592l20.75-32.853" id="path4959"/><path d="M460.718 284.33l-17.29 7.35" id="path4961"/><path d="M447.112 232.636l10.807-18.155" id="path4963"/><path d="M430.995 246.57l5.188-13.833" id="path4965"/><path d="M416.94 259.883l9.964-14.74" id="path4967"/></g></g><g id="g4969"><path d="M465.69 252.342c-9.694-3.368-19.708-.483-21.615 21.18 13.12-3.243 21.726-10.457 21.614-21.18z" id="path4971"/><path d="M447.533 231.81c-13.906 7.1-18.402 24.49-15.282 35.804 11.808-4.44 19.69-21.164 15.283-35.805z" id="path4973"/><path d="M431.107 245.642c7.7 13.978 1.836 26.644-8.214 38.905-1.716-13.794-5.082-27.892 8.214-38.905z" id="path4975"/><path d="M459.42 236.78c2.956 9.38-7.073 30.388-22.478 28.314 2.627-13.224 11.207-25.68 22.48-28.314z" id="path4977"/><path d="M464.392 270.93c-7.123 15.126-21.43 16.99-35.88 18.588 11.08-11.193 21.502-26.093 35.88-18.588z" id="path4979"/><path d="M447.1 259.042c-14.223 4.155-24.563 12.9-26.152 31.99 15.55-4.38 25.005-14.363 26.153-31.99z" id="path4981"/><path d="M417.922 258.61c7.6 17.4 6.288 31.514-7.997 40.85-6.457-18.88-.358-30.516 7.997-40.85z" id="path4983"/><path d="M446.67 290.382c-14.727-6.633-28.356-5.805-40.203 7.133 16.54 6.755 30.002 4.556 40.202-7.133z" id="path4985"/></g></g><path d="M436.51 311.132c-95.552-39.278-82.906 40.196-141.355 27.45 37.936-3.114 58.404-85.505 141.355-27.45z" id="path4987" fill="#fff" stroke="#004614" stroke-width="1.8"/><path d="M199.622 376.405c-2.735 2.55-3.96 1.732-6.268 0-2.136-1.602-3.76-4.022.216-6.05 15.844-8.09 33.863-30.693 91.643-30.693l68.95-.917 7.35 7.78-74.14-.81c-30.532-.336-61.61 6.332-87.75 30.69z" id="path4989" fill="#fff" stroke="#004614" stroke-width="1.8"/><path d="M408.853 356.726l-21.18-1.405" id="path4991" fill="#fff" stroke="#004614" stroke-width="1.8" stroke-linecap="round"/><path d="M435.213 336.636l-26.477 10.7" id="path4993" fill="#fff" stroke="#004614" stroke-width="1.8" stroke-linecap="round"/><path d="M456.827 291.247l-35.88 23.775" id="path4995" fill="#fff" stroke="#004614" stroke-width="1.8" stroke-linecap="round"/><path d="M392.064 305.717l12.104-12.104" id="path4997" fill="#fff" stroke="#004614" stroke-width="1.8" stroke-linecap="round"/><path d="M370.714 311.732l14.482-11.023" id="path4999" fill="#fff" stroke="#004614" stroke-width="1.8" stroke-linecap="round"/><g id="g5001" fill="#fff" stroke="#004614" stroke-width="1.041"><path d="M441.697 315.887l-23.45 14.373" id="path5003"/><g id="g5005"><path d="M422.22 328.132c-14.268-9.424-30.502-.645-30.566 6.877 9.844 3.555 23.103 7.03 30.566-6.878z" id="path5007"/><path d="M414.578 300.928c.476 14.437-12.962 25.474-27.815 24.147 3.49-15.63 20.123-24.846 27.815-24.147z" id="path5009"/><path d="M424.054 312.85c-2.11 11.247-19.698 16.538-32.095 12.837 2.286-11.49 24.313-17.11 32.094-12.838z" id="path5011"/><path d="M393.182 304.137c-15.898 1.726-21.295 15.894-23.078 26.746 14.024-3.105 28.36-8.512 23.078-26.746z" id="path5013"/><path d="M413.967 344.944c-9.95-12.902-24.516-10.8-40.96-2.6 12.676 12.853 26.67 9.526 40.96 2.6z" id="path5015"/><path d="M402.046 323.394c-14.636-5.69-35.488 2.4-36.833 16.66 14.87 4.045 37.84.39 36.833-16.66z" id="path5017"/><path d="M373.62 309.333c-12.192 6.026-25.24 11.168-23.996 31.026 24.924 6.065 23.904-14.656 23.995-31.027z" id="path5019"/><path d="M392.723 355.795c-16.74 2.933-32.303.438-43.07-14.874 14.85-6.69 32.507-2.014 43.07 14.875z" id="path5021"/></g></g><path d="M414.29 301.416l9.077-9.51" id="path5023" fill="#fff" stroke="#004614" stroke-width="1.8" stroke-linecap="round"/><path d="M344.867 356.52H324.55c-18.737-13.433-26.156-28.903-57.925-30.26-11.588-.493-22.39 10.285-24.64 15.13 15.182-8.156 26.92-5.408 44.093 13.402 8.23 9.015 18.926 14.596 33.285 15.562 19.224 1.292 18.91-8.103 25.504-13.833z" id="path5025" fill="#fff" stroke="#004614" stroke-width="1.8"/><path id="path4400" d="M312.875 240.844c-3.694 4.497-13.765 6.946-16.28 13.53 0 4.712-.033 9.424-.033 14.19-.16.855-.607 1.677-.875 1.998-.856-1.82-.635-4.78-2.937-4.406-1.606.16-2.995 3.744-2.78 7.813.64.91 3.41-.795 3.624.436.053 2.838-2.55 5.345-5.656 7.22-.536 0-.442.432.843.593 1.93-.91 4.195-1.278 6.283-1.814.588-1.766 1.048-2.998.78-6.906 1.018-.91 1.47-2.188 1.47-3.688 1.017 1.607 2.983 2.822 5.125 2.875 4.764-.32 7.27-8.274 10.375-11.218-.108-.537-.05-.488-.157-.97-1.927-.268-3.693-2.004-6.156-1.844-1.66-.053-4.532 3.4-5.28 8.22-1.072 1.016-3.05-1.185-3.158-2.845-.053-3.586.215-4.3 0-7.78 2.035-4.176 5.44-4.752 9.938-7.75 3.533-2.088 5.036-5.836 4.875-7.656zm-5.03 19.906c1.697-.038 2.155.578 1.967 1.094-1.177 3.158-4.203 4.96-7.468 4.906.59-2.41 2.76-5.777 4.687-5.938.296-.033.57-.057.814-.062z" fill="#004614"/><path id="35877496" class="fil0" d="M281.668 264.186c1.285.214 1.178 3.372 3.747 2.998.91 1.713-.32 3.48-.856 5.193-1.126.59-2.892-.375-4.23-.964-2.035 1.34-1.34 5.354-3.855 6.157-1.392-.054-2.356-1.232-3.748-1.232-4.55 6.104-14.883 11.297-23.77 11.297-5.514-.054-7.602-1.928-7.174-5.515.107-1.927.375-3.8 1.017-5.407.375 0 .696-.053 1.07-.107-.963 3.962.59 5.193 3.695 5.193 10.6-.215 17.988-2.09 24.198-7.228 1.018-.107 2.73.963 3.48.32 1.232-1.177.91-2.944 1.82-4.39.108-.213 1.393-.856 1.553-.91.482-2.355.91-4.23 3.052-5.406z" fill="#004614"/><path id="36817240" class="fil0" d="M258.754 269.914c.75-.91 2.57 2.516 3.962 3.694.482.535-1.928 1.82-2.998 2.784-.375.268-2.57-2.623-3.855-3.962-.214-.267 2.034-1.606 2.89-2.516z" fill="#004614"/><path id="36886800" class="fil0" d="M253.454 270.61c.75-.91 2.57 2.516 4.015 3.748.427.48-1.982 1.766-3.052 2.73-.322.268-2.517-2.623-3.802-3.908-.214-.32 1.98-1.66 2.838-2.57z" fill="#004614"/><path id="36886888" class="fil0" d="M219.19 258.725c1.07-.59 1.446 3.32 2.356 4.925.214.643-2.463.964-3.855 1.446-.427.16-1.39-3.373-2.086-5.033-.108-.374 2.462-.803 3.586-1.338z" fill="#004614"/><path id="36886976" class="fil0" d="M175.398 272.644c1.017-.588 1.445 3.32 2.302 4.926.267.642-2.463.963-3.802 1.445-.428.16-1.39-3.372-2.14-5.032-.054-.375 2.462-.803 3.64-1.34z" fill="#004614"/><path id="35879432" class="fil0" d="M199.275 285.493c1.017-.535 1.445 3.32 2.302 4.98.268.642-2.463.91-3.8 1.445-.43.107-1.393-3.373-2.09-5.086-.106-.375 2.41-.75 3.588-1.34z" fill="#004614"/><path id="36888384" class="fil0" d="M218.28 276.285c1.018-.59 1.446 3.32 2.302 4.925.268.643-2.462.964-3.8 1.446-.43.16-1.393-3.373-2.09-5.086-.106-.32 2.41-.75 3.588-1.285z" fill="#004614"/><path id="35878904" class="fil0" d="M223.795 278.533c1.017-.535 1.445 3.32 2.302 4.98.267.642-2.463.91-3.8 1.445-.43.107-1.393-3.373-2.143-5.086-.053-.375 2.463-.75 3.64-1.34z" fill="#004614"/><path id="36887504" class="fil0" d="M218.87 283.138c1.07-.59 1.445 3.32 2.355 4.925.268.642-2.463.964-3.855 1.445-.428.16-1.392-3.372-2.088-5.032-.107-.375 2.463-.803 3.587-1.338z" fill="#004614"/><path id="35877232" class="fil0" d="M223.473 270.29c-1.177 1.284-2.462 1.98-4.604 1.337-1.125-.91-.483-2.623-1.5-3.158-3.426-.697-12.153.748-12.742 4.12 1.714.91 3.855 1.82 5.89 2.464-1.34.642-4.176 1.23-6.425.75-2.837.16-3.266-2.57-1.445-5.836 1.98-4.658 4.657-9.102 6.263-13.813-1.07.964-1.765 1.874-3.318 1.767-2.677 6.745-5.246 11.617-7.013 16.81-.644 1.767.213 5.408 3.265 6.318 5.3 1.07 9.636-3.908 13.116-5.086.162-.643.108-.482.27-1.125-1.768-.964-5.676-2.784-7.39-3.748 1.607-1.392 5.89-.91 8.138-.16 1.285.588.91 2.623 2.463 2.997 2.09.32 4.552-.91 5.194-2.678.054-.428 0-.75-.16-.963z" fill="#004614"/><path id="36887856" class="fil0" d="M196.866 268.04c-.16.59-.16.322-.322.91-5.567 3.48-12.42 5.675-25.055-1.338-7.55-4.23-3.106-8.78-1.07-11.35 1.98 7.388 12.044 13.76 26.446 11.778z" fill="#004614"/></g></svg>