<svg xmlns="http://www.w3.org/2000/svg" width="714.795" height="595.705" viewBox="0 0 571.83594 476.56426"><defs><clipPath id="a"><path d="M-11.25 527.5H605V-11.25H-11.25V527.5zm0 0"/></clipPath></defs><g clip-rule="evenodd" clip-path="url(#a)"><path d="M284.016 0C388.914 0 474.47 85.55 474.47 190.45c0 21.956-3.763 43.062-10.65 62.714l-50.312-38.992-63.72 86.437-65.69-100.266-60.266 104.218-67.664-97.304-47.672 57.023c-9.61-22.72-14.933-47.675-14.933-73.83C93.563 85.55 179.117 0 284.016 0zm-12.004 65.04c-2.45.538-4.672 1.022-7.12 1.562l4.838-5.45-3.695-6.293 6.692 2.92 4.847-5.452-.72 7.258 6.68 2.93c-2.37.515-4.745 1.04-7.12 1.554l-.71 7.262-3.692-6.293zM261.11 87.24c4.734 10.45 15.265 17.738 27.445 17.738 16.586 0 30.117-13.53 30.117-30.113 0-13.426-8.863-24.844-21.03-28.715 6.56 5.055 10.803 12.98 10.803 21.87 0 15.19-12.394 27.583-27.586 27.583-7.73 0-14.73-3.207-19.75-8.363zm-16.415 49.598c11.016-.465 36.325 26.605 35.758 31.812-3.105 9.727-5.488 22.477-5.422 27.008-.022 8.738 2.408 13.16 2.095 16.274-4.453 8.347-6.773 15.312-10.152 25.582-1.996 1.203-7.13 1.304-8.61.29.64-2.033 1.282-2.068 4.075-3.16 4.156-6.77 6.53-14.076 8.77-21.232.073-8.96-4.575-12.086-5.614-21.562-1.57 7.14-.11 14.824-1.336 17.425-1.938 7.762-7.016 16.157-9.238 24.828-2.332 1.098-6.352.938-8.887-.18 2.144-3.597 3.39-2.5 6.312-4.53 2.805-7.594 4.825-14.493 6.844-20.56 1.917-9.046-1.977-15.64-4.11-23.405-2.84.906-6.407 1.8-9.39 1.87-4.247.09-8.22-2.08-12.4-2.83.9 9.026 4.493 13.366 4.5 20.182-4.706 10.582-6.156 26.746-7.128 29.317-2.36.913-4.473 1.194-6.06.56-.43.75-.858 1.505-1.577 2.11-4.398.434-7.38 1.258-8.312-.593 3.203-4.922.203-1.395 5.093-4.484.637-16.875 1.23-35.16 1.094-52.81-.258-1.237-1.812-2.91-4.39-2.987-1.485.714-2.2 1.757-4.458 1.703-8.757-1.138-12.5-11.595-12.63-14.19-.01-4.468 2.556-12.456 1.373-24.74-1.614-.92-2.45-2.364-4.832-2.895-3.31.02-6.063-.036-8.012-1.833 2.067-7.11 6.153-6.816 12.845-7.015.8-.645 1.605-1.29 2.41-1.934 2.066.246 3.117 1.5 4.023 2.895 2.63.27 3.38.398 6.008.664-.246 1.445-.637 2.75-1.598 4.2-.058 3.76-.496 7.687-2.48 11.065.062 6.633-1.305 14.71 4.5 15.606 7.53-.742 24.18-23.535 30.937-22.453zm-18.336 53.855c2.804-.04 6.03 8.992 6.257 13.774-.484 8.167-3.34 16.686-4.125 23.57-1.156.437-2.832 1.585-3.617 2.233-1.57-5.7-.117-14.93-.31-20.156 1.806-1.914 1.662-12.97 1.794-19.422zM352.7 136.84c11.015-.465 36.323 26.605 35.757 31.812-3.105 9.727-5.492 22.477-5.426 27.008-.022 8.738 2.404 13.16 2.095 16.274-4.457 8.347-6.773 15.312-10.148 25.582-2.004 1.203-7.133 1.304-8.61.29.633-2.033 1.28-2.068 4.067-3.16 4.16-6.77 6.535-14.076 8.777-21.232.07-8.96-4.58-12.086-5.616-21.562-1.57 7.14-.11 14.824-1.332 17.425-1.942 7.762-7.02 16.157-9.24 24.828-2.334 1.098-6.358.938-8.885-.18 2.136-3.597 3.383-2.5 6.308-4.53 2.805-7.594 4.828-14.493 6.84-20.56 1.926-9.046-1.97-15.64-4.1-23.405-2.84.906-6.412 1.8-9.396 1.87-4.25.09-8.22-2.08-12.403-2.83.898 9.026 4.492 13.366 4.508 20.182-4.715 10.582-6.16 26.746-7.13 29.317-2.36.913-4.476 1.194-6.066.56-.43.75-.86 1.505-1.575 2.11-4.398.434-7.38 1.258-8.31-.593 3.205-4.922.2-1.395 5.09-4.484.642-16.875 1.232-35.16 1.095-52.81-.254-1.237-1.812-2.91-4.387-2.987-1.488.714-2.207 1.757-4.46 1.703-8.755-1.138-12.5-11.595-12.633-14.19-.012-4.468 2.558-12.456 1.37-24.74-1.605-.92-2.445-2.364-4.824-2.895-3.316.02-6.062-.036-8.015-1.833 2.07-7.11 6.157-6.816 12.84-7.015.805-.645 1.614-1.29 2.415-1.934 2.062.246 3.113 1.5 4.023 2.895 2.625.27 3.38.398 6.004.664-.242 1.445-.63 2.75-1.598 4.2-.05 3.76-.496 7.687-2.476 11.065.066 6.633-1.305 14.71 4.504 15.606 7.527-.742 24.18-23.535 30.937-22.453zm-18.345 53.855c2.81-.04 6.036 8.992 6.266 13.774-.487 8.167-3.34 16.686-4.132 23.57-1.152.437-2.824 1.585-3.617 2.233-1.56-5.7-.116-14.93-.307-20.156 1.808-1.914 1.66-12.97 1.792-19.422" fill="#004226" fill-rule="evenodd"/><path d="M285.9 421.563c145.667-.344 245.46-86.68 246.128-102.704-.383-7.477-8.297-8.63-8.442-11.676.024-3.55 2.672-5.395 6.567-4.82 5.984-.67 27.41 41.312 38.613 66.73-78.703 64.738-169.71 103.597-278.574 104.93l.004.035c-1.098.003-2.192 0-3.286 0H284.887c-1.094 0-2.184.003-3.28 0v-.037C172.75 472.692 81.734 433.834 3.04 369.094c11.2-25.417 32.625-67.398 38.61-66.73 3.893-.574 6.546 1.27 6.57 4.82-.15 3.048-8.063 4.2-8.446 11.676.672 16.023 100.457 102.36 246.125 102.703zm-48.962-362.344" stroke="#004226" stroke-width="5" stroke-miterlimit="10" fill="none"/><path d="M43.05 302.336l66.92-.18c8.18-.015 15.183 10.758 14.968 26.067-.273 19.855-8.852 34.023-17.61 47.722" stroke="#004226" stroke-width="5" stroke-miterlimit="10" fill="none"/><path d="M49.742 307.09c2.438-1.887 5.28-1.863 7.922-1.586 12.53 1.316 13.89 9.933 14.266 18.84.367 8.543-9.07 10.812-5.813 17.086 2.47 4.746 8.34 4.45 10.742 4.578 7.038.383 12.413 7.617 18.843 6.34 2.28-.453 4.28-1.762 6.168-1.938 2.974-.277 5.548 2.246 5.103 6.34-.207 1.922-2.793 3.11-2.46 7.043.14 1.707 1.147 3.566 2.64 4.406 1.69.948 7.206-.997 5.812.35-1.574 1.52-4.012 7.145-5.11 6.864-46.308-23.79-68.27-45.586-68.152-59.168.043-4.527 6.46-6.383 10.04-9.156" fill="#004226" fill-rule="evenodd"/><path d="M529.39 302.336l-66.92-.18c-8.177-.015-15.18 10.758-14.97 26.067.278 19.855 8.86 34.023 17.614 47.722" stroke="#004226" stroke-width="5" stroke-miterlimit="10" fill="none"/><path d="M522.7 307.09c-2.434-1.887-5.282-1.863-7.927-1.586-12.53 1.316-13.882 9.933-14.265 18.84-.36 8.543 9.07 10.812 5.812 17.086-2.46 4.746-8.336 4.45-10.742 4.578-7.04.383-12.41 7.617-18.844 6.34-2.28-.453-4.277-1.762-6.164-1.938-2.972-.277-5.547 2.246-5.105 6.34.207 1.922 2.793 3.11 2.465 7.043-.14 1.707-1.153 3.566-2.64 4.406-1.692.948-7.208-.997-5.813.35 1.574 1.52 4.007 7.145 5.11 6.864 46.308-23.79 68.268-45.586 68.147-59.168-.04-4.527-6.453-6.383-10.035-9.156" fill="#004226" fill-rule="evenodd"/><path d="M35.024 430.953c13.617 1.805 23.16 10.606 33.996 11.63 8.887.847 16.195-2.23 23.98 0 3.22.718 6.782 6.964 6.438 11.276-.367 4.636-3.695 8.765-8.586 9.304-6.625.297-18.562-6.074-28.63-7.34-9.897-1.238-22.725.54-33.28-.355" stroke="#004226" stroke-width="2.5" stroke-miterlimit="10" fill="none"/><path d="M36.07 430.88c4.352 1.43 6.11 8.06 3.9 14.753-2.2 6.695-7.544 10.984-11.9 9.555-4.355-1.434-6.11-8.063-3.905-14.758 2.203-6.688 7.55-10.98 11.906-9.55zm1.005-379.114" stroke="#004226" stroke-width="2.5" stroke-miterlimit="10" fill="none"/><path d="M29.653 389.8c-8.79 10.403-17.47 24.92-17.89 43.302-.34 14.734 8.194 21.398 17.89 21.293" stroke="#004226" stroke-width="5" stroke-miterlimit="10" fill="none"/><path d="M26.074 435.605c1.88-2.816 3.41 4.743 7.16 4.832 3.227.08 7.516-2.17 7.875.18 1.17 7.836-4.044 14.65-12.17 15.207-6.8.473-9.97-9.558-2.866-20.22" fill="#004226" fill-rule="evenodd"/><path d="M79.414 421.64c.492 6.92-7.988 9.255-7.39 15.942.222 2.48 5.75 3.14 7.972 4.78-5.97.654-12.973.122-18.55-1.155 5.175-2.61 6.753-5.168 6.812-7.828.133-6.626-2.676-9.966-5.508-9.857-3.086.125-4.512 4.567-8.117 4.207-5.942-.597-6.274-7.375-11.883-12.32-3.266-2.875-10.617-2.7-11.016-6.957-.36-3.836 2.762-5.016 2.754-7.39-.01-2.438-.496-2.825-2.46-3.188-4.88-.89-13.594 13.41-19.567 25.07 3.755-10.984 9.446-25.78 17.102-33.617 16.434 12.04 33.032 22.977 49.852 32.313" fill="#004226" fill-rule="evenodd"/><path d="M536.97 430.953c-13.618 1.805-23.165 10.606-34 11.63-8.888.847-16.196-2.23-23.98 0-3.216.718-6.783 6.964-6.443 11.276.367 4.636 3.7 8.765 8.59 9.304 6.62.297 18.56-6.074 28.633-7.34 9.898-1.238 22.727.54 33.28-.355" stroke="#004226" stroke-width="2.5" stroke-miterlimit="10" fill="none"/><path d="M535.918 430.88c-4.35 1.43-6.105 8.06-3.902 14.753 2.203 6.695 7.55 10.984 11.9 9.555 4.358-1.434 6.108-8.063 3.905-14.758-2.198-6.688-7.546-10.98-11.902-9.55zm-98.965-379.114" stroke="#004226" stroke-width="2.5" stroke-miterlimit="10" fill="none"/><path d="M542.336 389.8c8.793 10.403 17.47 24.92 17.895 43.302.337 14.734-8.194 21.398-17.894 21.293" stroke="#004226" stroke-width="5" stroke-miterlimit="10" fill="none"/><path d="M545.914 435.605c-1.883-2.816-3.41 4.743-7.16 4.832-3.227.08-7.52-2.17-7.87.18-1.177 7.836 4.042 14.65 12.167 15.207 6.798.473 9.973-9.558 2.864-20.22" fill="#004226" fill-rule="evenodd"/><path d="M492.578 421.64c-.492 6.92 7.985 9.255 7.387 15.942-.22 2.48-5.746 3.14-7.97 4.78 5.97.654 12.97.122 18.552-1.155-5.18-2.61-6.758-5.168-6.813-7.828-.136-6.626 2.672-9.966 5.508-9.857 3.082.125 4.512 4.567 8.117 4.207 5.937-.597 6.27-7.375 11.882-12.32 3.262-2.875 10.61-2.7 11.012-6.957.363-3.836-2.762-5.016-2.754-7.39.008-2.438.5-2.825 2.465-3.188 4.875-.89 13.594 13.41 19.566 25.07-3.757-10.984-9.444-25.78-17.104-33.617-16.434 12.04-33.028 22.977-49.848 32.313" fill="#004226" fill-rule="evenodd"/><path d="M396.992 419.89l3.574-3.578 3.58 3.58-3.58 3.58" fill="#004226" fill-rule="evenodd"/><path d="M389.688 420.902l3.578-3.578 3.578 3.578-3.578 3.582" fill="#004226" fill-rule="evenodd"/><path d="M277.73 458.36l3.58-3.58 3.577 3.58-3.578 3.577" fill="#004226" fill-rule="evenodd"/><path d="M206.074 452.66l3.578-3.578 3.582 3.578-3.582 3.574" fill="#004226" fill-rule="evenodd"/><path d="M197.242 452.5l3.578-3.578 3.578 3.578-3.578 3.574" fill="#004226" fill-rule="evenodd"/><path d="M201.68 457.047l3.578-3.578 3.578 3.577-3.578 3.578" fill="#004226" fill-rule="evenodd"/><path d="M64.238 369.36l3.578-3.58 3.582 3.58-3.582 3.577" fill="#004226" fill-rule="evenodd"/><path d="M58.992 365.29l3.582-3.58 3.574 3.58-3.574 3.573" fill="#004226" fill-rule="evenodd"/><path d="M30.64 351.516l3.58-3.582 3.577 3.582-3.578 3.578" fill="#004226" fill-rule="evenodd"/><path d="M530.133 359.023c1.22-2.453 2.015-4.433 6.215-7.105 4.63-2.94 10.51 2.53 15.472 2.922.555 2.277 1.145 4.945-.38 6.597-11.12 7.395-22.112 14.793-33.233 22.196.387 4.992-.16 10.445-2.793 12.687-1.625 1.407-5.64 1.875-4.312-3.047 2.984-2.433 2.898-5.093 2.16-7.863-2.602 2.09-9.4 7.29-12.56 4.313-2.24-2.11-2.425-10.524.255-12.56 2.602-1.983 9.258-2.39 14.203.38 3.3-1.988 7.36-5.242 10.66-7.23-5.668-2.266-14.51-.29-17-1.907-.77-.496-.675-1.515.25-3.04 4.868-6.343 8.97-11.925 13.828-18.264 1.145 0 2.567-.75 3.43 0 .836.718.25 2.195.375 3.293-3.594 5.117-8.074 9.726-11.668 14.843 4.063.3 8.37.34 12.43.637.85-.254 1.398 1.016.89 2.79 4.907-3.51 10.825-7.528 15.73-11.04-2.073-1.73-4.315-2.113-5.71-1.14-1.898-.048-3.47 1.492-4.695 4.824-1.797-.302-4.125-.755-3.547-2.287zm-15.227 42.61c1.446-1.028 4.164-1.344 5.328 0 1.06 1.222-.382 2.277-1.7 3.215-1.448 1.03-3.733 2.824-4.897 1.48-1.06-1.226-.047-3.754 1.27-4.695" fill="#004226" fill-rule="evenodd"/><path d="M293.32 442.445l-.265 10.86c-13.352-.02-25.657-.24-39.016-.258-2.446 4.367-7.962 8.47-11.392 8.863-2.136.27-5.738-1.566-1.902-4.926 3.832-.367 5.238-2.63 6.164-5.343-3.324 1.833-15.992-.02-15.82-5.683.152-4.895 6.953-8.215 10.16-8.004 4.762.31 11.426 2.024 12.148 8.336l10.98.038-.18-15.867c-.034-3.02 5.732-2.515 5.915-.038l.137 16.066 17.45-.04-.137-4.33c.656-5.005 5.738-3.22 5.757.327zm-40.85 21.38c1.78-.055 4.214 1.195 4.436 2.956.2 1.61-2.144 1.658-3.76 1.704-1.78.055-4.115.3-4.333-1.46-.2-1.61 2.042-3.153 3.656-3.2" fill="#004226" fill-rule="evenodd"/><path d="M310.06 444.18c50.87-2.657 101.108-15.22 151.99-36.36-.878-2.633-1.663-4.898-2.542-7.54.902-2.194 2.305-3.56 4.793-3.116 1.282 2.398 2.098 5.125 3.376 7.523 2.398-1.117 5.262-2.57 7.66-3.687 1.297-7.195 3.937-12.605 9.117-14.156 5.113-1.524 8.95.832 10.317 3.36 3.046 5.663-1.758 11.858-5.57 13.02-5-.26-1.63-3.947-1.235-4.314 2.45-1.566 2.465-3.148 2.004-4.144-.5-1.098-2.775-1.246-4.224-.555-5.02 2.372-2.77 11.954-6.332 13.75-53.355 27.427-109.773 39.915-167.914 45.575-2.59-2.855-3.07-5.973-1.44-9.355" fill="#004226" fill-rule="evenodd"/><path d="M205.883 432.04c5.754 1.397 7.89 5.022 13.305 10.542 1.203.39 3.03.72 4.226 1.152.922.203-1.305 6.692-2.05 6.598l-26.23-5.145c-1.833-2.3-2.91-.61-7.82-1.718-2.267-.517-4.087-1.306-5.095-3.087-1.497 1.453-4.048 2.054-7.43 1.273-3.407-.79-5.884-3.242-7.56-5.54-1.132 1.19-2.496 1.95-5.417 1.525-46.05-14.992-85.493-36.53-120.567-61.968-.976-.883-.488-2.18 0-3.617l9.102-21.555c.48-1.242 4.773.43 4.402 1.18l-7.664 17.246c-.297 1.34-.086 3.183 1.473 4.152 3.592 2.234 8.506 5.442 12.1 7.68l2.48-7.375c.614-.735 4.56 1.367 4.344 2.086l-2.632 8.382c30.09 19.894 62.226 35.398 97.003 46.95l1.028-8.396c-.035-1.035 5.953-.527 5.715.516l-.74 10.34c2.9 1.715 5.455 1.836 7.806 1.574l.656-8.27c-.04-1.027 5.407-.05 5.57.918l-.52 8.184c.196 1.45 6.5 3.473 7.517 2.465l.605-7.516c.004-.867 5.274-.32 5.23.5l-.683 7.727 18.983 3.95c-.8-3.607-4.367-7.5-8.054-7.92-2.423-.272-3.142.903-5.302 1.063-.926.063-1.613-1.75-.504-2.375 1.914-.91 4.805-1.92 6.72-1.523" fill="#004226" fill-rule="evenodd"/><path d="M38.695 355.984c.895-1.922 5.36-.26 4.55 1.77-1.807 4.078-2.534 9.57-7.718 15.53-1.617 1.403-3.425 2.63-5.847 2.185-10.848-1.993-10.852-9.704-8.254-15.01 1.644-3.358 1.77-3.85 3.265-5.74 1.478-1.86 5.787-.243 4.09 2.522-.96 1.75-.92 1.524-1.874 3.274-3.297 3.972-1.574 6.636 3.582 7.617 3.66 1.508 5.49-5.79 8.207-12.15" fill="#004226" fill-rule="evenodd"/></g></svg>