<svg xmlns="http://www.w3.org/2000/svg" xmlns:xlink="http://www.w3.org/1999/xlink" width="336.859" height="354.472"><defs><linearGradient id="a"><stop offset="0"/><stop offset="1" stop-opacity="0"/></linearGradient><filter x="-.315" y="-.219" width="1.63" height="1.439" color-interpolation-filters="sRGB" id="d"><feGaussianBlur stdDeviation="1.179"/></filter><linearGradient id="b"><stop offset="0"/><stop offset="1" stop-opacity="0"/></linearGradient><linearGradient id="c"><stop offset="0"/><stop offset="1" stop-opacity="0"/></linearGradient><linearGradient x1="302.589" y1="111.651" x2="314.572" y2="111.651" xlink:href="#a" gradientUnits="userSpaceOnUse"/><radialGradient cx="325.415" cy="134.438" r="4.084" fx="325.415" fy="134.438" xlink:href="#b" gradientUnits="userSpaceOnUse" gradientTransform="matrix(1 0 0 .356 0 86.542)"/><radialGradient cx="325.415" cy="134.438" r="4.084" fx="325.415" fy="134.438" xlink:href="#c" gradientUnits="userSpaceOnUse" gradientTransform="matrix(1 0 0 .356 0 86.542)"/><linearGradient x1="302.589" y1="111.651" x2="314.572" y2="111.651" xlink:href="#a" gradientUnits="userSpaceOnUse"/><radialGradient cx="325.415" cy="134.438" r="4.084" fx="325.415" fy="134.438" xlink:href="#b" gradientUnits="userSpaceOnUse" gradientTransform="matrix(1 0 0 .356 0 86.542)"/><radialGradient cx="325.415" cy="134.438" r="4.084" fx="325.415" fy="134.438" xlink:href="#c" gradientUnits="userSpaceOnUse" gradientTransform="matrix(1 0 0 .356 0 86.542)"/><linearGradient x1="302.589" y1="111.651" x2="314.572" y2="111.651" xlink:href="#a" gradientUnits="userSpaceOnUse"/><radialGradient cx="325.415" cy="134.438" r="4.084" fx="325.415" fy="134.438" xlink:href="#b" gradientUnits="userSpaceOnUse" gradientTransform="matrix(1 0 0 .356 0 86.542)"/><radialGradient cx="325.415" cy="134.438" r="4.084" fx="325.415" fy="134.438" xlink:href="#c" gradientUnits="userSpaceOnUse" gradientTransform="matrix(1 0 0 .356 0 86.542)"/><linearGradient x1="302.589" y1="111.651" x2="314.572" y2="111.651" xlink:href="#a" gradientUnits="userSpaceOnUse"/><radialGradient cx="325.415" cy="134.438" r="4.084" fx="325.415" fy="134.438" xlink:href="#b" gradientUnits="userSpaceOnUse" gradientTransform="matrix(1 0 0 .356 0 86.542)"/><radialGradient cx="325.415" cy="134.438" r="4.084" fx="325.415" fy="134.438" xlink:href="#c" gradientUnits="userSpaceOnUse" gradientTransform="matrix(1 0 0 .356 0 86.542)"/><linearGradient x1="302.589" y1="111.651" x2="314.572" y2="111.651" xlink:href="#a" gradientUnits="userSpaceOnUse"/><radialGradient cx="325.415" cy="134.438" r="4.084" fx="325.415" fy="134.438" xlink:href="#b" gradientUnits="userSpaceOnUse" gradientTransform="matrix(1 0 0 .356 0 86.542)"/><radialGradient cx="325.415" cy="134.438" r="4.084" fx="325.415" fy="134.438" xlink:href="#c" gradientUnits="userSpaceOnUse" gradientTransform="matrix(1 0 0 .356 0 86.542)"/><linearGradient x1="302.589" y1="111.651" x2="314.572" y2="111.651" xlink:href="#a" gradientUnits="userSpaceOnUse"/><radialGradient cx="325.415" cy="134.438" r="4.084" fx="325.415" fy="134.438" xlink:href="#b" gradientUnits="userSpaceOnUse" gradientTransform="matrix(1 0 0 .356 0 86.542)"/><radialGradient cx="325.415" cy="134.438" r="4.084" fx="325.415" fy="134.438" xlink:href="#c" gradientUnits="userSpaceOnUse" gradientTransform="matrix(1 0 0 .356 0 86.542)"/><filter id="e" x="-.152" width="1.304" y="-.57" height="2.141" color-interpolation-filters="sRGB"><feGaussianBlur stdDeviation=".454"/></filter></defs><g><g><g fill="#004614" stroke="#004614"><path d="M67.09 53.67c-93.282 97.145-24.89 229.705 91.163 244.666 29.707 7.204 24.2 7.3 38.316 16.995 6.385.338-1.79-3.518-7.06-7.733-5.804-3.944-16.464-7.212-26.81-9.49-11.523-2.54-22.555-3.246-25.948-3.996" fill="none"/><path d="M30.875 191.487c18.363-8.555 16.818-18.16 18.124-27.612-11.67 5.597-16.885 15.33-18.125 27.612z"/><path d="M26.786 165.757c20.29-4.807 20.73-14.81 24.013-24.068-12.928 3.215-20.21 11.943-24.014 24.067z"/><path d="M29.988 120.784c20.827 1.037 24.035-8.447 29.768-16.424-13.31-.514-22.737 5.84-29.768 16.424z"/><path d="M25.72 143.22c20.826-1.08 23.057-10.84 27.95-19.358-13.294.84-22.027 8.115-27.95 19.358z"/><path d="M37.61 98.14c20.59 3.302 24.81-5.777 31.38-13.082-13.177-1.96-23.24 3.328-31.38 13.083z"/><path d="M52.04 69.63c16.326 10.264 23.207 4.07 31.44.232-10.5-6.44-20.978-5.585-31.44-.233z"/><path d="M65.26 55.483c17.237 5.76 22.157-1.447 28.842-6.796-11.053-3.557-20.456-.437-28.843 6.796z"/><path d="M63.924 59.145C57.92 39.24 66.33 33.86 72.672 26.397c3.692 12.758-.194 23.404-8.748 32.748z"/><path d="M26.424 188.176C3.694 181.756 3.68 170.416.412 159.78c14.474 4.263 22.293 14.492 26.012 28.396z"/><path d="M21.55 162.246C2.484 149.428 5.906 138.94 6.107 128.118c12.088 8.325 16.218 20.15 15.445 34.128z"/><path d="M22.88 132.772c-16.325-15.843-11.145-25.46-9.047-35.968 10.314 10.237 12.26 22.484 9.047 35.968z"/><path d="M29.593 106.24c-14.95-22.227-6.642-32.045-1.666-43.64 9.39 14.304 8.65 28.886 1.666 43.64z"/><path d="M46.46 76.947c-11.484-18.98-4.22-26.774.356-36.17 7.2 12.208 6.008 24.243-.355 36.17z"/><path d="M44.437 267.303C65 284.093 75.45 276.796 87.35 272.95c-13.256-10.58-27.714-11.185-42.913-5.647z"/><path d="M54.565 238.65c13.338-16.03 7.682-24.29 4.747-33.665-8.406 10.335-8.987 21.687-4.747 33.665z"/><path d="M23.428 239.216c16.526 21.648 28.69 16.85 41.48 15.842-10.71-13.71-24.995-17.753-41.48-15.842z"/><path d="M40.508 217.075c15.364-14.1 10.865-23.044 9.21-32.727-9.712 9.116-11.808 20.288-9.21 32.727z"/><path d="M94.857 274.3c-15.158-13.44-10.935-22.202-9.49-31.635 9.586 8.694 11.807 19.51 9.49 31.636z"/><path d="M72.074 256.828c-11.89-17.132-5.535-24.87-1.794-33.952 7.472 11.03 7.06 22.388 1.794 33.952z"/><path d="M47.05 234.152c-24.568.545-28.04-10.732-34.532-20.316 15.697-.172 26.593 7.62 34.532 20.316z"/><path d="M107.388 286.273c-19.368 14.527-28.07 6.69-38.3 2.057 12.468-9.128 25.28-8.575 38.3-2.057z"/><path d="M35.068 212.977c-24.204-4.6-25.252-16.382-29.617-27.136 15.43 3.112 24.487 13.028 29.618 27.137z"/><path d="M134.275 294.123c-15.12 16.65-24.792 11.846-35.244 10.117 9.78-10.527 21.816-12.85 35.245-10.117z"/><path d="M119.148 285.578c-17.908-10.684-15.32-20.357-15.667-30.174 11.363 6.954 15.685 17.467 15.668 30.174z"/><path d="M144.212 292.152c-19.7-6.84-19.12-16.837-21.447-26.38 12.534 4.51 18.893 13.932 21.447 26.38z"/></g><g fill="#004614" stroke="#004614"><path d="M270.727 55.268c92.084 98.295 22.058 230.013-94.18 243.543-29.795 6.84-24.29 7.002-38.524 16.524-6.39.258 1.832-3.496 7.153-7.647 5.853-3.872 16.554-7.01 26.927-9.16 11.555-2.396 22.596-2.967 25.998-3.675" fill="none"/><path d="M305.243 193.533c-18.258-8.782-16.594-18.367-17.784-27.836 11.6 5.74 16.694 15.538 17.783 27.836z"/><path d="M309.65 167.852c-20.233-5.056-20.548-15.064-23.717-24.363 12.887 3.374 20.062 12.192 23.716 24.362z"/><path d="M307.002 122.84c-20.84.78-23.932-8.743-29.566-16.79 13.317-.35 22.665 6.12 29.566 16.79z"/><path d="M310.992 145.328c-20.812-1.336-22.922-11.124-27.71-19.702 13.283 1.003 21.926 8.387 27.71 19.702z"/><path d="M299.66 100.104c-20.63 3.046-24.742-6.084-31.22-13.47 13.2-1.798 23.197 3.614 31.22 13.47z"/><path d="M285.58 71.413c-16.452 10.065-23.257 3.784-31.444-.155 10.58-6.31 21.047-5.325 31.443.155z"/><path d="M272.535 57.104c-17.31 5.55-22.14-1.72-28.76-7.15 11.097-3.422 20.462-.186 28.76 7.15z"/><path d="M273.825 60.783c6.248-19.83-2.093-25.316-8.345-32.856-3.85 12.712-.094 23.406 8.345 32.856z"/><path d="M309.735 190.276c22.81-6.14 22.963-17.48 26.362-28.076-14.527 4.086-22.472 14.218-26.362 28.076z"/><path d="M314.928 164.406c19.226-12.583 15.932-23.113 15.865-33.937-12.19 8.175-16.466 19.948-15.865 33.936z"/><path d="M313.962 134.916c16.52-15.642 11.46-25.322 9.49-35.857-10.44 10.11-12.536 22.332-9.49 35.856z"/><path d="M307.576 108.3c15.223-22.042 7.036-31.963 2.203-43.62-9.567 14.19-9.006 28.78-2.204 43.62z"/><path d="M291.07 78.8c11.718-18.84 4.55-26.72.09-36.173-7.35 12.118-6.307 24.167-.09 36.174z"/><path d="M290.747 269.18c-20.77 16.54-31.13 9.112-42.982 5.118 13.386-10.414 27.85-10.843 42.982-5.117z"/><path d="M280.972 240.404c-13.14-16.194-7.383-24.386-4.332-33.724 8.278 10.438 8.72 21.797 4.332 33.724z"/><path d="M312.102 241.353c-16.793 21.444-28.9 16.497-41.676 15.33 10.88-13.577 25.214-17.445 41.676-15.33z"/><path d="M295.295 219c-15.19-14.287-10.58-23.176-8.808-32.84 9.6 9.237 11.56 20.435 8.808 32.84z"/><path d="M240.24 275.558c15.324-13.254 11.21-22.07 9.88-31.52-9.693 8.577-12.048 19.366-9.88 31.52z"/><path d="M263.24 258.365c12.1-16.985 5.84-24.8 2.21-33.93-7.607 10.937-7.336 22.302-2.21 33.93z"/><path d="M288.542 235.997c24.56.848 28.17-10.386 34.783-19.89-15.695-.365-26.688 7.292-34.783 19.89z"/><path d="M227.56 287.375c19.19 14.766 27.99 7.036 38.276 2.53-12.355-9.282-25.173-8.887-38.275-2.53z"/><path d="M300.785 214.97c24.26-4.3 25.454-16.07 29.95-26.77-15.466 2.92-24.645 12.725-29.95 26.77z"/><path d="M200.58 294.894c14.913 16.835 24.644 12.152 35.117 10.55-9.647-10.646-21.656-13.117-35.118-10.55z"/><path d="M215.81 286.535c18.04-10.463 15.57-20.167 16.04-29.98-11.448 6.813-15.9 17.273-16.04 29.98z"/><path d="M190.666 292.8c19.783-6.598 19.327-16.6 21.77-26.116-12.59 4.357-19.063 13.7-21.77 26.117z"/></g><path d="M397.03 87.063a17.428 17.428 0 0 0-1.75.03 15.092 15.092 0 0 1 14 15.063 15.092 15.092 0 0 1-30.124 1.188 17.428 17.428 0 0 0-.062 1.125 17.428 17.428 0 0 0 34.844 0 17.428 17.428 0 0 0-16.907-17.407z" transform="matrix(.999 0 0 .999 -228.101 -87.051)" fill="#004614"/><path d="M161.908 1.404l-.464 5.177 4.173 2.41-5.067 1.16-1.003 4.714-2.667-4.462-4.793.503 3.42-3.915-1.96-4.403 4.78 2.042z" fill="#004614"/><path d="M550.243 242.02a120.243 120.243 0 1 1-240.486 0 120.243 120.243 0 1 1 240.486 0z" fill="#fff" stroke="#004614" stroke-width="1.817" transform="matrix(.961 0 0 .961 -244.942 -77.781)"/><path d="M56.407 178.23c2.2-1.794 5.474-1.567 7.146-3.238 19.94-19.927 31.232 2.43 40.52-10.95 3.44-1.735 8.152-2.934 8.453-6.153.215-5.436 3.713-7.085 4.513-10.898 1.09-5.2 3.67-8.01 7.236-7.717 3.526-.09 6.202.964 10.233-1.623 2.712-1.742 5.307-.376 8.44-.586 1.103-4.67 3.93-6.086 7.43-6.225 5.054.817 8.594-.69 9.638-6.023-.05-3.9.59-5.73 1.606-6.425 2.35.29 3.54-1.902 4.016-5.622 6.187-1.363 9.38-7.214 14.056-10.843 4.13-1.946 8.058 1.718 12.95-1.205 18.016-2.348 27.587 5.95 31.316 12.862 3.022 5.603 11.445 2.313 16.374 12.036 8.134 9.95 11.04 10.248 16.064 14.458 1.89 3.417 3.788 6.827 8.032 7.63 3.638 4.662 7.78 8.82 10.44 14.457 3.08 2.82 6.16 2.54 9.238 2.812" stroke="#004614" stroke-width="1.135902" stroke-linejoin="round" fill="none"/><path d="M94.247 168.552c1.264-2.515 2.136-3.712 5.532-8.093 2.074-.13 4.15-2.878 6.224-5.02 1.795-2.68 4.843-4.418 4.72-8.535 1.29-1.045 1.976-2.015 3.263-3.07 1.104-.907 2.836-1.798 3.663-3.757-.386-1.22.83-2.976 2.008-4.72 3.65-1.358 4.54-2.432 5.723-6.023 5.063-3.49 14.685-8.573 17.17-17.37 2.335-1.835 4.53-2.44 5.755-5.38.553-1.324 2.92-1.426 4.585-2.952 3.772-.286 5.853-2.636 7.33-5.722 2.998-3.115 6.24-4.458 10.04-1.706.954 2.08 2.09 2.9 3.312 3.112 1.214 2.917 2.602 1.886 5.1 3.778" stroke="#004614" stroke-width="0.8514459999999999" stroke-linejoin="round" fill="none"/><g><path d="M170.78 56.955c.53-2.148 2.08-3.568 3.513-5.07 1.055-2.545 1.647-11.038 3.464-5.072 1.298-3.84 2.093.765 1.958 1.105 1.89-4.034 1.81.58 1.758.753 2.095-2.964 2.068.486 1.506 1.156l-6.327 11.396-8.635 4.52c.09-.662-1.8-2.06-1.45-2.652 4.233.5 4.29-4.194 4.21-6.135z" fill="#fff" stroke="#004614" stroke-linejoin="round" stroke-width="0.568"/><path d="M176.377 57.633c.366-.545-.267-2.268.387-2.592 1.654-.818 2.366-3.39 5.33-5.204 2.25-1.494 3.66-2.117.935 1.747 2.258-1.277 5.7-3.28 1.254 1.556 3.72-1.68 3.595-.856.602 1.756 2.798-.622 3.98-.76 1.155 2.41 2.934-1.24 3.227.64.353 2.11 3.943-.62 1.287 1.726 0 2.71 3.024 0 2.336 1.823-1.908 3.062 4.242-.09 4.16 1.05-1.255 1.958 5.898 1.31.83 1.767-2.06 2.06 5.36.766 4.096 2.273-1.103 1.655l2.26 1.056c3.99 3.83 8.71 3.688 13.427 3.575 9.393-.335 9.965 2.134.73 2.05 6.19-.617 12.43 2.215.052 1.982 5.527-.8 10.72 4.053-.856 1.63 7.59 2.035 5.912 4.11-1.405 1.106 4.268 1.816 5.32 5.39-1.306 1.104 1.135 1.107 5.97 6.206-2.492 1.028.772.688 4.043 4.73-1.224 1.18-4.844-2.13-8.248-5.087-10.442-8.734-7.433-2.35-13.495 2.363-19.657-11.694-.418-2.15-2.138-1.348-3.314-1.607-6.348 1.283-1.782-1.288-1.02-1.494.548-4.13 3.302-3.516 5.34-2.274 2.4 1.466 3.62 3.605 7.546 3.32 1.542 2.47 6.146-1.696 8.67-5.453z" fill="#fff" stroke="#004614" stroke-linecap="round" stroke-linejoin="round" stroke-width="0.568"/><path d="M174.745 68.452c-4.784-2.732-.064-4.854 3.063-7.33" stroke="#004614" stroke-width="1.7039999999999997" stroke-linecap="round" filter="url(#d)" fill="none"/><path d="M182.783 78.256c.677.11 1.46-.39 2.053-.647.43-.186 1.505-.27 2.018-.423" stroke="#004614" stroke-linecap="round" filter="url(#e)" fill="none" stroke-width="0.568"/><path d="M278.95 105.11a1.5 1.5 0 1 1-3 0 1.5 1.5 0 1 1 3 0z" fill="#004614" transform="matrix(.568 0 0 .568 -.017 1.369)"/><path d="M173.448 76.327c.043.843.086 1.694 1.26 1.704 1.09.01.738-.832-.045-.906" stroke="#004614" stroke-width="1.136" stroke-linecap="round" fill="none"/><path d="M177.35 76.83c-.015.618.306.768.9.724.353-.025 1-.207.35-.686" stroke="#004614" stroke-width="1.136" stroke-linecap="round" fill="none"/></g><g fill="#fff" stroke="#004614"><path d="M200.975 212.95v-25.143h-6.673v5.084h-4.62v-5.083h-7.278v5.084h-4.57v-5.083h-7.43v5.084h-4.518v-5.083h-7.38v5.084h-4.568v-5.083h-7.33v5.084h-4.57v-5.083h-6.475l1.255 25.143c20.907-5.027 42.51-4.68 64.157 0z"/><g><path d="M195.763 209.866v2.094"/><path d="M187.385 209.795v.852"/><path d="M144.75 209.83v1.456"/><path d="M181.953 209.866h19.028"/><path d="M136.478 209.866h18.797"/><path d="M200.023 205.64v4.152"/><path d="M191.645 205.568v4.224"/><path d="M183.09 205.727v4.065"/><path d="M174.57 205.71v3.727"/><path d="M136.407 205.64h36.99"/><path d="M165.943 205.727v3.64"/><path d="M157.565 205.692v4.1"/><path d="M149.01 205.603v4.19"/><path d="M140.49 205.692v4.1"/><path d="M169.99 205.64h31.027"/><path d="M195.763 201.41v4.155"/><path d="M187.385 201.34v4.225"/><path d="M178.83 201.376v4.19"/><path d="M170.31 201.42v4.145"/><path d="M161.683 201.41v4.155"/><path d="M153.305 201.34v4.225"/><path d="M144.75 201.376v4.19"/><path d="M165.73 201.41h35.322"/><path d="M136.37 201.41h32.768"/><path d="M200.236 197.184v4.154"/><path d="M191.858 197.226v4.112"/><path d="M183.302 197.15v4.188"/><path d="M174.782 197.193v4.145"/><path d="M136.123 197.184h37.488"/><path d="M166.156 197.184v4.154"/><path d="M157.778 197.214v4.124"/><path d="M149.222 197.15v4.188"/><path d="M140.702 197.205v4.133"/><path d="M170.203 197.184h30.743"/><path d="M195.834 193.083v4.027"/><path d="M187.456 193.1v4.01"/><path d="M178.9 193.072v4.038"/><path d="M170.38 193.04v4.07"/><path d="M161.754 193.083v4.027"/><path d="M153.376 193.134v3.976"/><path d="M144.82 193.147v3.963"/><path d="M136.3 193.104v4.006"/><path d="M165.8 193.063h35.146"/><path d="M135.945 193.063h33.264"/></g></g><g fill="#fff" stroke="#004614"><path d="M103.193 243.744h38.055L136.46 179.9h-7.33v2.947h-3.923V179.9h-7.526v2.947h-3.922V179.9h-7.242z"/><g><path d="M120.512 238.584h20.424"/><path d="M133.612 238.55v4.188"/><path d="M125.092 238.442v4.296"/><path d="M103.342 238.584h20.578"/><path d="M116.465 238.584v4.154"/><path d="M108.087 238.513v4.225"/><path d="M137.907 234.286v4.225"/><path d="M129.352 234.322v4.19"/><path d="M120.832 234.215v4.296"/><path d="M103.555 234.357h16.105"/><path d="M112.205 234.357v4.154"/><path d="M103.827 234.286v4.225"/><path d="M116.252 234.357h24.294"/><path d="M133.47 230.094v4.19"/><path d="M124.95 229.988v4.295"/><path d="M103.768 230.13h20.01"/><path d="M116.323 230.13v4.153"/><path d="M107.945 230.06v4.223"/><path d="M120.37 230.13h19.82"/><path d="M137.836 225.76v4.225"/><path d="M129.28 225.796v4.19"/><path d="M120.76 225.69v4.295"/><path d="M103.98 225.832h15.61"/><path d="M112.134 225.832v4.153"/><path d="M116.18 225.832h23.62"/><path d="M133.4 221.64v4.19"/><path d="M124.88 221.533v4.296"/><path d="M104.194 221.675h19.513"/><path d="M116.252 221.675v4.154"/><path d="M107.874 221.604v4.225"/><path d="M120.3 221.675h19.323"/><path d="M137.694 217.377v4.225"/><path d="M129.14 217.413v4.19"/><path d="M120.62 217.306v4.296"/><path d="M104.513 217.448h14.934"/><path d="M111.992 217.448v4.154"/><path d="M116.04 217.448h23.3"/><path d="M133.718 213.15v4.224"/><path d="M125.163 213.185v4.19"/><path d="M116.643 213.08v4.294"/><path d="M104.55 213.22h10.92"/><path d="M108.016 213.22v4.154"/><path d="M112.063 213.22h26.78"/><path d="M137.552 208.923v4.224"/><path d="M128.997 208.958v4.19"/><path d="M120.477 208.852v4.295"/><path d="M105.046 208.994h14.26"/><path d="M111.85 208.994v4.153"/><path d="M115.897 208.994H138.7"/><path d="M133.54 204.73v4.19"/><path d="M125.02 204.625v4.295"/><path d="M105.152 204.767h18.697"/><path d="M116.394 204.767v4.153"/><path d="M108.016 204.696v4.224"/><path d="M120.44 204.767h17.976"/><path d="M129.21 200.504v4.19"/><path d="M120.69 200.397v4.296"/><path d="M105.365 200.54h14.153"/><path d="M112.063 200.54v4.153"/><path d="M116.11 200.54h22.022"/><path d="M137.694 200.433v4.224"/><path d="M129.21 200.504v4.19"/><path d="M120.69 200.397v4.296"/><path d="M112.063 200.54v4.153"/><path d="M133.47 196.277v4.19"/><path d="M124.95 196.17v4.296"/><path d="M105.685 196.312h18.093"/><path d="M116.323 196.312v4.154"/><path d="M107.945 196.24v4.226"/><path d="M120.37 196.312h17.37"/><path d="M129.21 192.05v4.188"/><path d="M120.69 191.943v4.295"/><path d="M105.898 192.085h13.62"/><path d="M112.063 192.085v4.153"/><path d="M116.11 192.085h21.17"/><path d="M120.583 187.858H137"/><path d="M133.683 187.822v4.19"/><path d="M125.163 187.716v4.295"/><path d="M106.146 187.858h17.845"/><path d="M116.536 187.858v4.153"/><path d="M108.158 187.787v4.224"/><path d="M129.28 183.28v4.504"/><path d="M120.76 183.313v4.47"/><path d="M112.134 183.342v4.442"/><g><path d="M105.89 183.12h13.185"/><path d="M115.385 183.12h21.002"/></g><path d="M103.204 242.986h37.87"/></g></g><g fill="#fff" stroke="#004614"><path d="M233.38 243.744h-38.054l4.788-63.843h7.33v2.947h3.923V179.9h7.526v2.947h3.923V179.9h7.242z"/><g><path d="M216.062 238.584h-20.425"/><path d="M202.962 238.55v4.188"/><path d="M211.482 238.442v4.296"/><path d="M233.232 238.584h-20.578"/><path d="M220.11 238.584v4.154"/><path d="M228.487 238.513v4.225"/><path d="M198.667 234.286v4.225"/><path d="M207.222 234.322v4.19"/><path d="M215.742 234.215v4.296"/><path d="M233.02 234.357h-16.106"/><path d="M224.37 234.357v4.154"/><path d="M232.747 234.286v4.225"/><path d="M220.322 234.357h-24.294"/><path d="M203.104 230.094v4.19"/><path d="M211.624 229.988v4.295"/><path d="M232.806 230.13h-20.01"/><path d="M220.25 230.13v4.153"/><path d="M228.63 230.06v4.223"/><path d="M216.204 230.13h-19.82"/><path d="M198.738 225.76v4.225"/><path d="M207.293 225.796v4.19"/><path d="M215.813 225.69v4.295"/><path d="M232.593 225.832h-15.608"/><path d="M224.44 225.832v4.153"/><path d="M220.393 225.832h-23.62"/><path d="M203.175 221.64v4.19"/><path d="M211.695 221.533v4.296"/><path d="M232.38 221.675h-19.513"/><path d="M220.322 221.675v4.154"/><path d="M228.7 221.604v4.225"/><path d="M216.275 221.675H196.95"/><path d="M198.88 217.377v4.225"/><path d="M207.435 217.413v4.19"/><path d="M215.955 217.306v4.296"/><path d="M232.06 217.448h-14.933"/><path d="M224.582 217.448v4.154"/><path d="M220.535 217.448h-23.3"/><path d="M202.856 213.15v4.224"/><path d="M211.41 213.185v4.19"/><path d="M219.93 213.08v4.294"/><path d="M232.025 213.22h-10.922"/><path d="M228.558 213.22v4.154"/><path d="M224.51 213.22h-26.778"/><path d="M199.022 208.923v4.224"/><path d="M207.577 208.958v4.19"/><path d="M216.097 208.852v4.295"/><path d="M231.528 208.994h-14.26"/><path d="M224.724 208.994v4.153"/><path d="M220.677 208.994h-22.803"/><path d="M203.033 204.73v4.19"/><path d="M211.553 204.625v4.295"/><path d="M231.42 204.767h-18.695"/><path d="M220.18 204.767v4.153"/><path d="M228.558 204.696v4.224"/><path d="M216.133 204.767h-17.975"/><path d="M207.364 200.504v4.19"/><path d="M215.884 200.397v4.296"/><path d="M231.21 200.54h-14.154"/><path d="M224.51 200.54v4.153"/><path d="M220.464 200.54h-22.022"/><path d="M198.88 200.433v4.224"/><path d="M207.364 200.504v4.19"/><path d="M215.884 200.397v4.296"/><path d="M224.51 200.54v4.153"/><path d="M203.104 196.277v4.19"/><path d="M211.624 196.17v4.296"/><path d="M230.89 196.312h-18.094"/><path d="M220.25 196.312v4.154"/><path d="M228.63 196.24v4.226"/><path d="M216.204 196.312h-17.372"/><path d="M207.364 192.05v4.188"/><path d="M215.884 191.943v4.295"/><path d="M230.676 192.085h-13.62"/><path d="M224.51 192.085v4.153"/><path d="M220.464 192.085h-21.17"/><path d="M215.99 187.858h-16.417"/><path d="M202.89 187.822v4.19"/><path d="M211.41 187.716v4.295"/><path d="M230.428 187.858h-17.845"/><path d="M220.038 187.858v4.153"/><path d="M228.416 187.787v4.224"/><path d="M207.293 183.28v4.504"/><path d="M215.813 183.313v4.47"/><path d="M224.44 183.342v4.442"/><g><path d="M230.685 183.12H217.5"/><path d="M221.19 183.12h-21.003"/></g><path d="M233.37 242.986H195.5"/></g></g><g fill="#fff" stroke="#fff"><path d="M37.57 321.258c-1.578-1.21-5.3-2.082-1.987-5.822l9.514-11.644c3.31-3.54 6.247-2.805 9.088-.994l13.348 8.662-11.04 16.01-10.16-6.253-5.815-3.58z" fill="#004614"/><path d="M56.493 327.435L36.01 314.797"/></g><g fill="#fff" stroke="#fff"><path d="M299.003 318.252c1.58-1.21 5.3-2.082 1.988-5.822l-9.513-11.644c-3.31-3.54-6.247-2.805-9.088-.994l-13.35 8.662 11.04 16.01 15.976-9.833z" fill="#004614"/><path d="M280.08 324.43l20.485-12.64"/></g><path d="M279.04 320.923l-15.864-22.015s-.185-.3-.458-.145c-61.087 35.075-124.294 37.774-190.122 2.775-.24-.128-.522.165-.522.165l-14.58 22.61c-.026.008-.077.505.114.543 76.716 40.968 150.36 37.755 221.52-3.37.158-.18.07-.37-.087-.563z" fill="#004614" stroke="#fff" stroke-width="0.658285"/><path d="M262.02 301.86c-63.322 39.12-134.036 32-188.567 3.116-.096-.076-.448.062-.448.1l-11.692 18.125c.028.02-.496.55.16.84 73.98 38.23 145.102 35.36 213.902-2.96.587-.34.198-.75.202-.756L262.65 301.91c.002-.008-.487-.15-.63-.05z" fill="#fff"/><path d="M153.058 130.91c.82 1.454-.13 3.41 5.6 2.655 2.637.24 5.43-.074 7.23 1.34 1.982.782 2.36 2.466 3.3 3.56.626.725 1.336.833 2.194 2.4 1.262.24 1.92 2.222 2.548 3.154l2.242 2.19c.02 1.925 1.28 3.54 2.244 5.824.77 1.403 1.103 3.077 1.494 4.026 1.04.515 1.55 1.404 2.513 2.005" stroke="#004614" stroke-width="0.4805" stroke-linejoin="round" fill="none"/><path d="M232.205 118.564c.2 4.268-.174 9.046 1.385 12.107.866 4.325 2.02 10.436 2.047 13.524.75 2.79.908 5.632 3.496 8.27 1.332 3.024 2.388 6.117 2.08 10.032.756 2.734.444 5.23 2.505 8.252 1.388 1.617 2.644 3.3 3.384 5.24.387 1.406.852 2.764 1.203 4.172.633 2.536 1.34 4.31 2.608 6.032" stroke="#004614" stroke-width="0.484344" stroke-linejoin="round" fill="none"/></g><g fill="#004614"><path d="M83.655 328.73c1.82-4.272 3.693-8.61 5.105-12.336 1.293-.85 1.723-.505 2.765-.85-1.388 4.83-3.12 7.94-4.68 11.91-1.063 1.22-2.127 1.615-3.19 1.276z"/><path d="M94.61 329.155c-2.93 1.84-4.236-.016-5.425-1.7-2.332 1.12.973 9.522 7.205 2.418 4.74 1.925 9.127 4.264 14.25 5.743 2.223.525 2.94-.148 2.898-1.888l-.026-5.065-2.686 2.06c-.005.69 1.597 2.647-.85 1.596l-3.67-1.57c-.874-3.013-3.89-10.158-6.965-3.934 2.83.036 3.218 1.17 3.457 2.552l-5.104-2.127c-.22-6.573-1.576-7.403-3.928-3.182-.89 1.52-.94 4.282.844 5.097z"/><path d="M94.848 325.327c.286.457.602.897 1.216 1.216.862-2.507-1.223-3.487-1.216-1.216z"/><path d="M118.217 337.663c-2.093 2.43-3.898.69-5.716-.878 1.37 9.393 4.943 4.473 8.216 1.49l3.118.77c.336-.155.638-.207.9-.144.258.062.48.234.66.53l17.815 4.4c.423.123 2.243-.03 2.152-1.78v-4.786c-.18-3.158-2.01-.805-2.313-.266l-.93 1.675c.752.875 1.258 2.174.13 2.1-2.064-.45-4.295-.737-5.688-1.86-2.41-1.3-3.017-8.44-7.816-2.952 2.622-.188 3.388.85 4.307 2.155-2.404.042-4.548-.697-6.674-1.49l-.772-4.28-2.233 1.862c.357.872 1.21 1.97.106 2.18l-2.338-.904c-.443-6.593-3.375-5.515-4.52-2.074-.16.702-.216 2.933 1.595 4.253z"/><path d="M133.53 332.61l-1.833-1.753 1.675-1.755 1.86 1.808z"/><path d="M119.687 334.985c-.224-3.922-1.883-1.053-1.542-.773z"/><path d="M151.52 343.724c1.372-1.133 3.387 2.498 7.284.904 1.69-1.987-.1-3.455-1.276-4.732.25-1.092.92-2.045 1.808-2.924l2.445 3.987c1.083.565 2.164.67 3.245.638.81.004 1.06-.96.213-1.49-1.47-1.272.72-3.06 1.116-3.51 1.075 1.32 2.055 2.692 2.5 4.36.606.496 2.726.42 4.43.33 1.1.012.942-.68.26-1.258-.488-.534-.822-.84 1.318-3.537 1.057 1.304 1.91 2.846 2.393 4.52 3.214.3 9.04.317 9.943 0-3.78-3.39-4.11-.526-6.062-1.436 4.43-7.012 8.606.5 10.582 1.063h1.595c.413 1.008.713 2.062.425 3.35-5.778.107-12.537.41-17.334.32-.71-.676-1.303-.363-1.648.106-2.724-.02-6.007.318-6.86-.16-.418-.23-.96-.854-1.435.053-1.826.038-3.886.736-5.05-.798-1.922 10.37-12.01 1.313-9.89.212z"/><path d="M200.53 338.753c-3.478 4.597.412 7.185 4.73 6.035 5.227-1.013 8.47-3.71 12.515-5.77 1.962-.45 3.623-1.217 4.342-2.685.777.2 4.57 1.334 4.786-1.807.217-2.5-.954-3.804-3.18-3.913-2.018.057-3.193 1.736-2.935 4.338l-2.925 1.437c-.848-2.063-2.21-2.59-3.615-2.978l-.426 2.817c1.212.353 2.015.808.426 1.86-4.047 1.343-8.33 4.636-12.762 3.883-.86-.892-.663-2.136-.957-3.217z"/><path d="M222.994 334.66c.58.742 2.667-.267 1.834-1.476-.95-1.056-2.584.03-1.834 1.475z"/><path d="M227.83 336.23c.667-1.29 4.53 1.564 5.507-3.712-2.137.41-2.95-1.724-3.15-2.938-.238-1.726.058-3.006 1.98-3.51.738-.26 2.517.773 2.5 2.713 1.354-.192 2.794-.24 3.808-1 1.06-.782.46-1.13-.324-1.737-1.095-.85-2.665-1.416-3.823-2.314-1.56-1.736-.083-3.292.135-3.742 1.382-1.682 2.638-3.157 3.83-5.163.868.174 1.013.6.975 3.046-.49.406-1.443 1.67-2.58 2.936-.324.557-.61.977.375 1.715 1.533 1.048 3.298 1.98 5.082 2.89 2.02.135 4.06-1.154 6.08-1.95-.56-2.16-3.475-.554-4.678.054.098-1.582.347-2.845 2.632-3.67 1.485-.453 4.392.153 5.62 1.917.686-.352 1.315-.68 1.7-.515.092.04.87.764.66 1.893-3.418 1.738-7.254 3.432-10.24 4.52-1.217.4-2.003.718-1.808.905-2.023 1.387-4.53 1.93-6.806 2.872 1.053 6.477-5.64 9.144-7.473 4.788z"/><path d="M231.45 329.54c-.283-1.24 1.398-2.287 2.206-.598.427 1.39-1.783 1.445-2.207.6z"/><path d="M137.592 346.824l-1.835-1.755 1.675-1.756 1.86 1.808z"/><path d="M141.502 347.35l-1.834-1.755 1.675-1.754 1.86 1.81z"/><path d="M139.547 349.456l-1.835-1.755 1.675-1.754 1.86 1.808z"/><path d="M127.29 331.935l-1.835-1.755 1.675-1.755 1.86 1.808z"/><path d="M113.002 326.67l-1.834-1.754 1.675-1.755 1.86 1.81z"/><path d="M124.357 330.73l-1.834-1.753 1.674-1.755 1.862 1.808z"/><path d="M103.828 323.06l-1.834-1.753 1.674-1.755 1.862 1.808z"/><path d="M185.747 335.164l-1.835-1.755 1.675-1.756 1.86 1.808z"/><path d="M166.817 350.265l-1.834-1.755 1.675-1.755 1.86 1.808z"/><path d="M173.73 350.584l-1.835-1.755 1.675-1.756 1.86 1.808z"/><path d="M177.346 350.37l-1.835-1.754 1.676-1.754 1.86 1.808z"/><path d="M207.68 338.603l-2.38-.885.844-2.274 2.424.923z"/><path d="M210.448 337.22l-2.412-.792.754-2.306 2.46.828z"/></g></g></svg>