<svg xmlns="http://www.w3.org/2000/svg" width="658.589" height="753.423" viewBox="0 0 526.87114 602.73838"><defs><clipPath><path d="M-11.25 650h590V-11.25h-590V650zm0 0"/></clipPath></defs><path d="M.535 0H526.87v601.477H.536" fill="#fff" fill-rule="evenodd"/><g><path d="M377.328 278.742c-.953-101.453-111.867-86.207-114.156-176.34 2.406 66.243 132.484 68.06 131.644 176.34-.175 106.758-130.82 107.727-131.644 176.344 4.87-87.555 117.1-70.988 114.156-176.344zm456.297 179.262" fill="#004226" fill-rule="evenodd" stroke="#004226" stroke-width="1.25" stroke-miterlimit="10"/><path d="M149.004 278.742c.957-101.45 111.87-86.207 114.16-176.336-2.406 66.24-132.48 68.055-131.644 176.336.175 106.762 130.82 107.727 131.644 176.344-4.87-87.55-117.1-70.988-114.16-176.344zm456.297 179.262" fill="#004226" fill-rule="evenodd" stroke="#004226" stroke-width="1.25" stroke-miterlimit="10"/><path d="M394.492 157.055c-.824-10.078-4.78-19.543-11.058-27.15-6.825-8.272-16.39-14.362-27.657-16.694l-.57-.112h-.012c-.078-.016-.12-.024-.164-.03l-3.003-.564.043 3.05c.157 11.294 4.258 21.993 11.21 30.415 6.51 7.886 15.505 13.784 26.09 16.343-1.78-.434-3.518-.957-5.214-1.575 1.012 1.07 1.973 2.2 2.875 3.375-8.936 2.813-18.206 2.586-26.6-.148-8.348-2.723-15.84-7.906-21.297-15.03 8.937-2.814 18.207-2.583 26.605.15.172.06.348.118.52.177-1.043-1.055-2.03-2.156-2.977-3.293-.866-1.056-1.694-2.138-2.467-3.263-8.4-1.515-17.297-.85-25.83 2.375l-.01.008c-.407.156-.422.164-.457.176l-.012.004c-.31.13.238-.09-.227.09l-2.85 1.12 1.68 2.567c6.19 9.453 15.39 16.278 25.78 19.66 10.19 3.32 21.535 3.332 32.297-.742l.008-.008c.27-.1-.05.02.35-.14.115-.04.228-.09.333-.13l2.598-1.02c2.11-.136 3.965-1.663 4.414-3.83.148-.704.13-1.403-.027-2.063l1.097-2.422c4.66-10.285 5.493-21.715 2.786-32.29-2.657-10.374-8.727-19.956-17.946-26.863l.004-.01-.19-.135c.293.215.484.347-.43-.317l-2.47-1.793-1.264 2.79c-3.328 7.347-4.707 15.277-4.235 23.062 2.048 1.637 3.954 3.422 5.7 5.348-1.484-7.73-.91-15.836 1.864-23.395 7.16 6.035 11.93 13.98 14.125 22.543 2.18 8.512 1.81 17.617-1.278 26.047-1.102-.93-2.15-1.906-3.137-2.922.484 2.172.824 4.39 1.008 6.637zM1292.18 491.6c-5.62-6.805-13.316-11.973-22.374-14.387.79 8.938 4.332 17.332 9.918 24.106 5.62 6.803 13.32 11.97 22.38 14.393-.79-8.945-4.333-17.34-9.923-24.113" fill="#004226" fill-rule="evenodd"/><path d="M446.242 272.72c4.375-9.122 5.73-19.286 4.15-29.02-1.724-10.587-6.908-20.673-15.458-28.368-.16-.148-.3-.27-.434-.387-.008 0-.008-.004-.012-.004-.058-.053-.093-.084-.13-.112l-2.307-2.004-1.503 2.657c-5.563 9.83-7.41 21.14-5.656 31.922 1.64 10.086 6.43 19.727 14.282 27.27-1.324-1.277-2.56-2.606-3.71-3.984.33 1.43.59 2.89.772 4.36-9.132-2.083-17.015-6.954-22.89-13.552-5.832-6.555-9.688-14.812-10.805-23.726 9.136 2.086 17.026 6.96 22.898 13.562.12.133.238.274.36.41-.372-1.437-.673-2.886-.907-4.34-.222-1.35-.386-2.703-.492-4.062-6.488-5.547-14.5-9.465-23.5-10.984l-.008.008c-.43-.075-.445-.075-.484-.08h-.016c-.332-.053.25.033-.238-.038l-3.027-.476.156 3.062c.58 11.285 5.08 21.82 12.34 29.985 7.13 8.007 16.915 13.734 28.263 15.648h.015c.282.047-.062-.012.367.055.118.02.235.04.36.054l2.754.434c1.893.94 4.26.563 5.74-1.082.48-.53.82-1.148 1.017-1.797l2.168-1.536c9.218-6.53 15.703-15.98 18.695-26.48 2.937-10.3 2.53-21.63-1.945-32.243h.008c-.012-.034-.05-.116-.094-.217.147.336.24.543-.212-.493l-1.23-2.796-2.497 1.773c-6.577 4.668-11.768 10.812-15.288 17.777.942 2.442 1.684 4.946 2.22 7.49 2.616-7.427 7.206-14.13 13.413-19.26 3.14 8.82 3.246 18.095.824 26.59-2.41 8.45-7.325 16.133-14.243 21.848-.484-1.36-.894-2.734-1.234-4.11-.68 2.126-1.504 4.212-2.48 6.247zm455.524 151.038c-1.422-8.72-5.46-17.055-12.06-23.72-3.83 8.122-5.01 17.157-3.597 25.82 1.413 8.72 5.456 17.06 12.058 23.72 3.828-8.12 5.012-17.156 3.598-25.82" fill="#004226" fill-rule="evenodd"/><path d="M431.387 209.067c.656-10.094-1.88-20.032-6.98-28.473-5.555-9.18-14.126-16.598-24.934-20.547-.203-.074-.38-.133-.55-.19 0-.005-.005-.005-.01-.005-.073-.024-.116-.043-.163-.06l-2.883-.99-.406 3.022c-1.49 11.203 1.01 22.38 6.665 31.723 5.293 8.75 13.328 15.898 23.433 19.973-1.707-.688-3.35-1.46-4.933-2.317.844 1.207 1.633 2.46 2.355 3.762-9.258 1.476-18.39-.098-26.3-4.03-7.86-3.908-14.516-10.126-18.883-17.974 9.254-1.48 18.394.1 26.304 4.028l.486.25c-.875-1.195-1.696-2.425-2.46-3.69-.704-1.17-1.364-2.357-1.97-3.583-8.09-2.727-16.984-3.367-25.898-1.414l-.016.01c-.422.093-.437.097-.476.104l-.008.004c-.328.078.242-.054-.243.055l-2.984.695 1.29 2.782c4.75 10.25 12.86 18.35 22.645 23.21 9.597 4.766 20.816 6.43 32.058 3.962l.012-.004c.28-.063-.06.01.363-.086.117-.028.235-.055.352-.078l2.722-.63c2.106.17 4.16-1.07 4.922-3.152.243-.672.332-1.37.274-2.043l1.433-2.235c6.115-9.5 8.603-20.684 7.462-31.543-1.117-10.652-5.73-21.012-13.843-29.188l.007-.004c-.024-.03-.09-.09-.168-.164.26.25.424.41-.38-.375l-2.184-2.14-1.656 2.575c-4.363 6.79-6.88 14.43-7.547 22.203 1.785 1.914 3.406 3.96 4.855 6.117-.34-7.863 1.407-15.793 5.258-22.87 6.2 7.01 9.766 15.57 10.688 24.36.918 8.737-.774 17.694-5.055 25.58-.958-1.078-1.852-2.195-2.68-3.347.16 2.22.175 4.47.027 6.72zm445.043 153.367c-4.567-7.555-11.43-13.786-20.04-17.497-.523 8.96 1.758 17.786 6.298 25.293 4.57 7.555 11.437 13.786 20.046 17.5.524-8.957-1.757-17.78-6.304-25.296" fill="#004226" fill-rule="evenodd"/><path d="M433.434 338.762c7.757-6.485 13.207-15.172 15.804-24.688 2.817-10.343 2.282-21.672-2.312-32.226-.082-.196-.16-.367-.24-.528v-.008h-.007c-.028-.074-.047-.117-.067-.156l-1.27-2.777-2.472 1.796c-9.136 6.64-15.507 16.16-18.378 26.695-2.688 9.868-2.324 20.622 1.695 30.743v-.004c-.68-1.704-1.25-3.427-1.722-5.165-.293 1.445-.66 2.875-1.106 4.297-7.45-5.684-12.602-13.387-15.216-21.824-2.59-8.387-2.675-17.5-.004-26.067 7.457 5.685 12.614 13.388 15.22 21.826l.163.523c.258-1.454.578-2.9.97-4.33.358-1.312.772-2.616 1.233-3.894-3.6-7.738-9.27-14.625-16.828-19.73l-.015-.008c-.36-.242-.37-.246-.406-.274l-.016-.004c-.276-.18.22.137-.198-.136l-2.563-1.68-1.122 2.852c-4.152 10.504-4.426 21.964-1.2 32.402 3.17 10.238 9.7 19.508 19.235 25.953l.016.005c.233.164-.052-.03.31.207l.302.195 2.328 1.536c1.328 1.64 3.645 2.277 5.676 1.394.66-.285 1.223-.703 1.668-1.21l2.61-.5c11.093-2.13 20.906-8.036 27.988-16.348 6.94-8.158 11.265-18.638 11.597-30.15h.003c.004-.04.004-.13.004-.234-.004.36-.004.593.012-.535l.038-3.054-3.004.574c-7.925 1.52-15.195 4.97-21.285 9.844-.157 2.613-.516 5.195-1.083 7.734 5.46-5.668 12.414-9.87 20.188-11.97-.797 9.334-4.54 17.814-10.274 24.544-5.69 6.692-13.343 11.645-22.014 13.98.128-1.437.324-2.858.582-4.253-1.496 1.65-3.11 3.206-4.844 4.65zm467.29 153.26c2.323-8.518 2.096-17.78-1.15-26.58-6.85 5.8-11.664 13.535-13.972 22.007-2.32 8.52-2.102 17.78 1.144 26.58 6.852-5.8 11.668-13.534 13.977-22.007" fill="#004226" fill-rule="evenodd"/><path d="M303.69 460.56h-.003c10.047 1.178 20.102-.837 28.793-5.493 9.457-5.063 17.31-13.243 21.817-23.83.086-.198.156-.37.226-.542v-.007c.028-.074.047-.113.063-.156l1.148-2.83-3.004-.563c-11.105-2.067-22.398-.153-32.027 5.007-9.012 4.83-16.57 12.49-21.16 22.36h.004c.773-1.664 1.633-3.266 2.562-4.805-1.25.78-2.54 1.5-3.876 2.155-.992-9.32 1.06-18.355 5.39-26.05 4.306-7.65 10.868-13.973 18.93-17.926.997 9.32-1.054 18.362-5.39 26.057-.086.157-.18.313-.273.473 1.243-.812 2.508-1.57 3.813-2.266 1.203-.64 2.434-1.238 3.684-1.78 3.144-7.934 4.242-16.786 2.758-25.79l-.004-.012c-.074-.43-.078-.44-.085-.48l-.004-.016c-.058-.328.044.25-.038-.242l-.536-3.015-2.847 1.14c-10.486 4.21-18.997 11.886-24.357 21.405-5.265 9.344-7.504 20.457-5.63 31.813l.01.012c.042.28-.01-.06.066.37.014.118.042.24.06.352l.49 2.75c0 .012-.004.028-.004.043l-18.122 7.645 8.73 3.965 11.997-6.707c.095.047.185.093.286.132.664.282 1.352.403 2.03.38l2.154 1.55c9.176 6.598 20.207 9.664 31.113 9.09 10.695-.563 21.28-4.63 29.87-12.305v.004c.032-.02.095-.083.173-.157-.262.242-.434.406.395-.36l2.25-2.07-2.484-1.79c-6.55-4.71-14.05-7.62-21.78-8.69-2 1.683-4.134 3.2-6.364 4.535 7.87.063 15.703 2.227 22.574 6.438-7.328 5.828-16.06 8.937-24.887 9.402-8.778.465-17.634-1.688-25.29-6.375 1.133-.9 2.293-1.734 3.488-2.5-2.226.043-4.468-.06-6.707-.324zm482.74 169.37c7.777-4.164 14.355-10.7 18.51-19.102-8.92-.992-17.846.828-25.585 4.977-7.785 4.168-14.363 10.703-18.515 19.105 8.918.985 17.85-.836 25.59-4.98" fill="#004226" fill-rule="evenodd"/><path d="M356.305 430.77c10.043-1.15 19.375-5.407 26.777-11.922 8.047-7.094 13.828-16.848 15.797-28.188.038-.207.06-.394.09-.574v-.004l.03-.172.47-3.015-3.052.132c-11.285.524-21.84 4.97-30.04 12.188-7.67 6.766-13.28 15.945-15.495 26.61v-.01c.375-1.796.847-3.546 1.402-5.257-1.035 1.047-2.133 2.04-3.28 2.98-3.095-8.843-3.165-18.112-.704-26.593 2.45-8.433 7.395-16.082 14.337-21.77 3.1 8.844 3.168 18.118.703 26.602-.047.168-.102.344-.156.52 1.02-1.074 2.085-2.106 3.195-3.082 1.022-.9 2.08-1.762 3.175-2.57 1.25-8.446.304-17.317-3.204-25.74l-.003-.01c-.167-.4-.175-.415-.195-.454l-.004-.007c-.137-.308.102.235-.097-.226l-1.21-2.813-2.512 1.766c-9.242 6.488-15.774 15.906-18.82 26.398-2.848 9.817-2.657 20.578 1.195 30.766 2.672.05 5.355.312 8.027.812l3.004.563-1.148 2.83c-.016.044-.035.083-.063.157V430.696c-.07.172-.14.344-.226.543-.602 1.41-1.258 2.777-1.977 4.106.137-.024.274-.05.406-.09l2.453 1.02c10.437 4.323 21.882 4.788 32.367 1.74 10.285-2.99 19.66-9.362 26.273-18.8h.004c.02-.027.066-.093.13-.187-.204.297-.337.492.3-.44l1.715-2.53-2.826-1.17c-7.457-3.094-15.425-4.21-23.187-3.493-1.566 2.102-3.297 4.06-5.16 5.868 7.68-1.73 15.797-1.415 23.44 1.11-5.8 7.354-13.59 12.374-22.08 14.843-8.43 2.453-17.548 2.382-26.07-.434.89-1.132 1.835-2.21 2.82-3.23-2.157.555-4.36.965-6.602 1.22zm479.777 163.593c6.63-5.836 11.535-13.7 13.664-22.828-8.91 1.074-17.187 4.883-23.777 10.688-6.626 5.836-11.536 13.7-13.665 22.828 8.914-1.073 17.19-4.882 23.777-10.687" fill="#004226" fill-rule="evenodd"/><path d="M398.957 390.184c9.457-3.047 17.66-8.907 23.613-16.567 6.582-8.472 10.438-19.136 10.254-30.64 0-.215-.01-.403-.015-.582v-.008c-.005-.078-.005-.13-.005-.172l-.11-3.05-2.97.706c-10.983 2.618-20.526 8.962-27.23 17.583-6.272 8.074-10.065 18.14-10.253 29.027.035-1.836.164-3.644.395-5.43-.82 1.22-1.715 2.407-2.664 3.544-4.692-8.114-6.497-17.203-5.66-25.996.828-8.735 4.253-17.18 10.02-24.07 4.69 8.116 6.495 17.214 5.66 26.003l-.06.548c.8-1.25 1.653-2.457 2.563-3.625.836-1.074 1.72-2.117 2.64-3.125-.35-8.523-2.937-17.06-7.952-24.684l-.012-.008c-.242-.36-.246-.375-.274-.406l-.008-.015c-.19-.274.14.21-.132-.2l-1.72-2.54-2.136 2.204c-7.87 8.1-12.527 18.574-13.555 29.45-.98 10.32 1.293 21.014 7.16 30.397 3.21-.828 6.524-1.344 9.91-1.5l3.05-.133-.467 3.016-.03.172v.004c-.005.035-.01.066-.013.097 1.988-.64 3.926-1.406 5.79-2.285-.77 1.188-1.497 2.422-2.16 3.7 8.897 1.18 17.862-.454 25.694-4.442 7.876-4.008 14.59-10.402 18.92-18.707-7.985-1.056-16.02.15-23.24 3.292 1.493-2.13 2.83-4.375 3.97-6.73 7.496-2.165 15.53-2.547 23.433-.903l2.996.62-1.212 2.805c-.445 1.04-.36.82-.22.492-.038.102-.07.18-.092.21v-.003c-4.73 10.504-12.75 18.516-22.297 23.38-9.735 4.956-21.064 6.636-32.122 4.33l-.715-.143c.477-1.675.87-3.386 1.176-5.14.026-.172.05-.324.077-.476zm475.973 159.628c5.422-6.968 8.773-15.61 9.16-24.976-8.555 2.72-15.973 8.008-21.363 14.94-5.414 6.974-8.774 15.61-9.157 24.982 8.555-2.727 15.977-8.012 21.36-14.945" fill="#004226" fill-rule="evenodd"/><path d="M131.844 157.055c.824-10.078 4.777-19.543 11.058-27.15 6.825-8.272 16.39-14.362 27.657-16.694.206-.042.393-.077.57-.112h.01c.08-.016.122-.024.17-.03l3-.564-.04 3.05c-.157 11.294-4.262 21.993-11.215 30.415-6.512 7.886-15.504 13.784-26.09 16.343 1.78-.434 3.523-.957 5.215-1.575-1.012 1.07-1.973 2.2-2.875 3.375 8.937 2.813 18.207 2.586 26.605-.148 8.344-2.723 15.832-7.906 21.293-15.03-8.94-2.814-18.207-2.583-26.605.15-.172.06-.348.118-.52.177 1.04-1.055 2.03-2.156 2.977-3.293.867-1.056 1.69-2.138 2.468-3.263 8.4-1.515 17.297-.85 25.825 2.375l.015.008c.406.156.418.164.453.176l.016.004c.312.13-.234-.09.223.09l2.85 1.12-1.68 2.567c-6.182 9.453-15.39 16.278-25.78 19.66-10.187 3.32-21.527 3.332-32.293-.742l-.01-.008c-.267-.1.053.02-.353-.14-.11-.04-.22-.09-.33-.13l-2.6-1.02c-2.11-.136-3.962-1.663-4.415-3.83-.14-.704-.125-1.403.03-2.063l-1.096-2.422c-4.66-10.285-5.497-21.715-2.786-32.29 2.656-10.374 8.73-19.956 17.945-26.863l-.005-.01.19-.135c-.296.215-.483.347.43-.317l2.47-1.793 1.265 2.79c3.33 7.347 4.707 15.277 4.235 23.062-2.047 1.637-3.953 3.422-5.7 5.348 1.485-7.73.907-15.836-1.867-23.395-7.156 6.035-11.925 13.98-14.12 22.543-2.18 8.512-1.817 17.617 1.273 26.047 1.106-.93 2.15-1.906 3.14-2.922-.487 2.172-.823 4.39-1.006 6.637zM1059.344 491.6c5.617-6.805 13.32-11.973 22.37-14.387-.784 8.938-4.323 17.332-9.917 24.106-5.617 6.803-13.313 11.97-22.37 14.393.784-8.945 4.323-17.34 9.917-24.113" fill="#004226" fill-rule="evenodd"/><path d="M80.094 272.72c-4.375-9.122-5.735-19.286-4.15-29.02 1.724-10.587 6.908-20.673 15.458-28.368.16-.148.3-.27.442-.387l.004-.004c.058-.053.097-.084.13-.112l2.303-2.004 1.51 2.657c5.558 9.83 7.413 21.14 5.655 31.922-1.64 10.086-6.43 19.727-14.28 27.27 1.323-1.277 2.562-2.606 3.71-3.984-.332 1.43-.59 2.89-.777 4.36 9.136-2.083 17.023-6.954 22.89-13.552 5.836-6.555 9.688-14.812 10.81-23.726-9.138 2.086-17.024 6.96-22.9 13.562-.12.133-.238.274-.36.41.372-1.437.673-2.886.907-4.34.22-1.35.387-2.703.493-4.062 6.484-5.547 14.5-9.465 23.5-10.984l.008.008c.433-.075.45-.075.488-.08h.012c.328-.053-.25.033.238-.038l3.03-.476-.16 3.062c-.577 11.285-5.073 21.82-12.34 29.985-7.128 8.007-16.913 13.734-28.26 15.648h-.016c-.28.047.058-.012-.37.055-.12.02-.236.04-.353.054l-2.758.434c-1.89.94-4.26.563-5.742-1.082-.48-.53-.816-1.148-1.016-1.797l-2.168-1.536c-9.216-6.53-15.7-15.98-18.696-26.48-2.94-10.3-2.53-21.63 1.94-32.243h-.003c.016-.034.047-.116.094-.218-.148.336-.242.543.21-.492l1.228-2.797 2.496 1.774c6.59 4.668 11.774 10.812 15.294 17.777-.942 2.442-1.684 4.945-2.22 7.488-2.616-7.425-7.21-14.128-13.413-19.257-3.14 8.82-3.25 18.093-.82 26.59 2.407 8.45 7.32 16.132 14.24 21.847.48-1.36.893-2.734 1.233-4.11.68 2.126 1.504 4.212 2.48 6.247zm457.07 151.038c1.418-8.72 5.46-17.055 12.06-23.72 3.83 8.122 5.01 17.157 3.596 25.82-1.414 8.72-5.457 17.06-12.058 23.72-3.828-8.12-5.004-17.156-3.598-25.82" fill="#004226" fill-rule="evenodd"/><path d="M94.945 209.067c-.652-10.094 1.883-20.032 6.99-28.473 5.545-9.18 14.128-16.598 24.932-20.547.2-.074.375-.133.547-.19.004-.005.004-.005.008-.005.074-.024.117-.043.164-.06l2.89-.99.4 3.022c1.487 11.203-1.013 22.38-6.665 31.723-5.288 8.75-13.33 15.898-23.432 19.973 1.703-.688 3.347-1.46 4.933-2.317-.847 1.207-1.628 2.46-2.35 3.762 9.253 1.476 18.382-.098 26.296-4.03 7.86-3.908 14.516-10.126 18.88-17.974-9.255-1.48-18.387.1-26.298 4.028l-.488.25c.875-1.195 1.7-2.425 2.46-3.69.708-1.17 1.36-2.357 1.97-3.583 8.09-2.727 16.984-3.367 25.898-1.414l.012.01c.426.093.44.097.48.104l.008.004c.33.078-.242-.054.243.055l2.98.695-1.288 2.782c-4.746 10.25-12.855 18.35-22.64 23.21-9.598 4.766-20.817 6.43-32.06 3.96l-.01-.003c-.286-.062.058.012-.368-.085-.117-.028-.234-.055-.352-.08l-2.718-.627c-2.106.167-4.16-1.07-4.922-3.153-.246-.672-.328-1.37-.274-2.043l-1.433-2.235c-6.11-9.5-8.602-20.684-7.46-31.543 1.12-10.652 5.73-21.012 13.84-29.188l-.005-.004c.023-.03.086-.09.164-.164-.258.25-.422.41.383-.375l2.183-2.14 1.652 2.575c4.368 6.79 6.887 14.43 7.55 22.203-1.784 1.914-3.41 3.96-4.858 6.117.348-7.863-1.406-15.793-5.254-22.87-6.2 7.01-9.766 15.57-10.688 24.358-.917 8.74.774 17.696 5.06 25.583.952-1.08 1.847-2.196 2.675-3.348-.16 2.22-.176 4.47-.03 6.72zm467.555 153.367c4.563-7.555 11.43-13.786 20.04-17.497.526 8.96-1.76 17.786-6.302 25.293-4.57 7.555-11.43 13.786-20.04 17.5-.518-8.957 1.755-17.78 6.302-25.296" fill="#004226" fill-rule="evenodd"/><path d="M92.902 338.762c-7.76-6.485-13.207-15.172-15.8-24.688-2.825-10.343-2.282-21.672 2.308-32.226.09-.196.16-.367.238-.528 0-.004 0-.008.008-.008.028-.074.047-.117.067-.156l1.27-2.777 2.468 1.796c9.138 6.64 15.51 16.16 18.384 26.695 2.687 9.868 2.32 20.622-1.695 30.743v-.004c.678-1.704 1.25-3.426 1.72-5.165.294 1.446.66 2.875 1.107 4.297 7.45-5.683 12.605-13.386 15.21-21.824 2.594-8.387 2.68-17.5.01-26.066-7.458 5.683-12.615 13.386-15.22 21.824-.055.176-.11.347-.156.523-.26-1.454-.585-2.9-.976-4.33-.36-1.31-.773-2.616-1.238-3.893 3.605-7.74 9.273-14.625 16.832-19.73l.015-.01c.36-.24.375-.245.406-.272l.01-.004c.278-.18-.214.138.2-.136l2.567-1.68 1.12 2.852c4.157 10.504 4.427 21.965 1.196 32.402-3.164 10.24-9.695 19.508-19.23 25.954l-.012.004c-.237.164.048-.032-.315.207-.098.066-.2.13-.297.195l-2.336 1.535c-1.328 1.64-3.64 2.277-5.672 1.395-.66-.286-1.223-.704-1.672-1.21l-2.605-.5c-11.094-2.13-20.91-8.036-27.99-16.35-6.944-8.155-11.264-18.636-11.596-30.147h-.004c-.004-.04-.004-.128-.004-.234.003.36.003.594-.013-.535l-.04-3.054 3.005.575c7.922 1.52 15.195 4.97 21.28 9.844.157 2.614.52 5.196 1.087 7.735-5.462-5.67-12.42-9.872-20.193-11.97.8 9.332 4.547 17.812 10.274 24.543 5.696 6.69 13.352 11.644 22.02 13.98-.128-1.437-.32-2.86-.582-4.254 1.496 1.652 3.114 3.207 4.844 4.652zm445.305 153.26c-2.32-8.518-2.098-17.78 1.148-26.58 6.848 5.8 11.665 13.535 13.973 22.007 2.32 8.52 2.102 17.78-1.148 26.58-6.848-5.8-11.664-13.534-13.973-22.007" fill="#004226" fill-rule="evenodd"/><path d="M222.648 460.56c-10.05 1.178-20.1-.837-28.796-5.493-9.457-5.063-17.31-13.243-21.813-23.83-.087-.198-.153-.37-.224-.542l-.004-.004v-.003c-.03-.074-.046-.113-.062-.156l-1.15-2.83 3.005-.563c11.102-2.067 22.395-.153 32.028 5.007 9.01 4.83 16.57 12.49 21.16 22.36-.777-1.664-1.637-3.266-2.567-4.805 1.25.78 2.543 1.5 3.875 2.155.998-9.32-1.053-18.355-5.39-26.05-4.304-7.65-10.862-13.973-18.925-17.926-1 9.32 1.05 18.362 5.387 26.057.086.157.18.313.273.473-1.234-.812-2.51-1.57-3.812-2.266-1.203-.64-2.43-1.238-3.684-1.78-3.145-7.934-4.243-16.786-2.76-25.79l.005-.012c.075-.43.078-.44.082-.48l.004-.016c.068-.328-.042.25.048-.242l.535-3.015 2.848 1.14c10.485 4.21 18.99 11.886 24.353 21.405 5.26 9.344 7.503 20.457 5.628 31.813l-.01.012c-.043.28.01-.06-.063.37l-.062.352-.488 2.75c0 .012.004.028.004.043l18.126 7.645-8.73 3.965-12-6.707c-.095.047-.188.093-.286.132-.656.282-1.352.403-2.03.38l-2.154 1.55c-9.168 6.598-20.21 9.664-31.113 9.09-10.7-.563-21.28-4.63-29.867-12.305l-.008.004c-.027-.02-.09-.083-.168-.157.262.242.433.406-.395-.36l-2.25-2.07 2.485-1.79c6.55-4.71 14.05-7.62 21.78-8.69 2 1.683 4.13 3.2 6.36 4.535-7.867.063-15.703 2.227-22.566 6.438 7.324 5.828 16.055 8.937 24.883 9.402 8.773.465 17.633-1.688 25.29-6.375-1.134-.9-2.298-1.734-3.49-2.5 2.227.043 4.47-.06 6.71-.324zm429.852 169.37c-7.78-4.164-14.355-10.7-18.512-19.102 8.922-.992 17.848.828 25.586 4.977 7.785 4.168 14.36 10.703 18.516 19.105-8.922.985-17.848-.836-25.59-4.98" fill="#004226" fill-rule="evenodd"/><path d="M170.03 430.77c.005 0 .005 0 0 0-10.046-1.15-19.374-5.407-26.776-11.922-8.047-7.094-13.828-16.848-15.797-28.188-.04-.207-.062-.394-.094-.574v-.004c-.01-.086-.02-.13-.027-.172l-.465-3.015 3.048.132c11.285.524 21.84 4.97 30.04 12.188 7.67 6.766 13.28 15.945 15.49 26.61v-.01c-.37-1.796-.84-3.546-1.4-5.257 1.038 1.047 2.136 2.04 3.28 2.98 3.098-8.843 3.164-18.112.703-26.593-2.444-8.433-7.385-16.082-14.335-21.77-3.097 8.844-3.168 18.118-.703 26.602.055.168.106.344.157.52-1.02-1.074-2.083-2.106-3.193-3.082-1.027-.9-2.086-1.762-3.18-2.57-1.246-8.446-.296-17.317 3.204-25.74l.012-.01c.164-.4.176-.415.188-.454l.01-.007c.134-.308-.104.235.095-.226l1.21-2.813 2.51 1.766c9.25 6.488 15.776 15.906 18.823 26.398 2.852 9.817 2.66 20.578-1.195 30.766-2.672.05-5.352.312-8.028.812l-3.003.563 1.148 2.83c.016.044.03.083.063.157v.004l.004.005c.07.172.136.344.222.543.597 1.41 1.26 2.777 1.976 4.106-.137-.024-.274-.05-.407-.09l-2.458 1.02c-10.433 4.323-21.878 4.788-32.363 1.74-10.29-2.99-19.665-9.362-26.274-18.8-.024-.027-.074-.093-.133-.187.203.297.332.492-.3-.44l-1.716-2.53 2.82-1.17c7.458-3.094 15.426-4.21 23.196-3.493 1.566 2.102 3.29 4.06 5.156 5.868-7.677-1.73-15.798-1.415-23.442 1.11 5.8 7.354 13.594 12.374 22.078 14.843 8.433 2.453 17.55 2.382 26.074-.434-.89-1.132-1.836-2.21-2.82-3.23 2.156.555 4.363.965 6.6 1.22zm432.814 163.593c-6.625-5.836-11.532-13.7-13.66-22.828 8.91 1.074 17.187 4.883 23.773 10.688 6.63 5.836 11.54 13.7 13.668 22.828-8.91-1.073-17.19-4.882-23.78-10.687" fill="#004226" fill-rule="evenodd"/><path d="M127.38 390.184c-9.458-3.047-17.66-8.907-23.614-16.567-6.582-8.472-10.438-19.136-10.254-30.64 0-.215.01-.403.015-.582v-.008c.004-.078.004-.13.004-.172l.11-3.05 2.97.706c10.984 2.618 20.53 8.962 27.23 17.583 6.273 8.074 10.066 18.14 10.254 29.027-.035-1.836-.168-3.644-.4-5.43.83 1.22 1.716 2.407 2.67 3.544 4.7-8.114 6.495-17.203 5.66-25.996-.833-8.735-4.254-17.18-10.016-24.07-4.695 8.116-6.5 17.214-5.664 26.003.02.18.04.36.058.548-.8-1.25-1.656-2.457-2.562-3.625-.836-1.074-1.72-2.117-2.645-3.125.352-8.523 2.942-17.06 7.957-24.684l.008-.008c.247-.36.25-.375.274-.406l.012-.015c.187-.274-.14.21.136-.2l1.715-2.54 2.137 2.204c7.87 8.1 12.523 18.574 13.558 29.45.977 10.32-1.296 21.014-7.168 30.397-3.207-.828-6.523-1.344-9.906-1.5l-3.047-.133.466 3.016c.008.043.016.086.027.172v.004c.004.035.012.066.016.097-1.99-.64-3.927-1.406-5.794-2.285.777 1.188 1.5 2.422 2.164 3.7-8.898 1.18-17.867-.454-25.69-4.442-7.884-4.008-14.6-10.402-18.923-18.707 7.984-1.056 16.02.15 23.242 3.292-1.5-2.13-2.83-4.375-3.974-6.73-7.496-2.165-15.535-2.547-23.433-.903l-3 .62 1.215 2.805c.453 1.04.36.82.218.492.04.102.07.18.09.21v-.003c4.73 10.504 12.754 18.516 22.3 23.38 9.73 4.956 21.06 6.636 32.126 4.33l.71-.143c-.476-1.675-.874-3.386-1.175-5.14-.027-.172-.055-.324-.078-.477zm436.62 159.628c-5.422-6.968-8.777-15.61-9.164-24.976 8.555 2.72 15.973 8.008 21.363 14.94 5.417 6.974 8.777 15.61 9.16 24.982-8.555-2.727-15.977-8.012-21.36-14.946" fill="#004226" fill-rule="evenodd"/><path d="M262.168 7.668l13.477 35.125H330.055l-6.934 4.578-36.472 24.087 14.07 36.672 2.798 7.292-6.508-4.324L261.93 87.78l-.31.208-.058-.04-35.046 23.15-6.14 4.05 2.397-6.94 13.125-38.01-33.04-22.858-6.577-4.547h49.087l12.106-35.05 2.234-6.48 2.46 6.405zm465.727 217.773l-11.64-30.33-10.45 30.253-.582 1.692H668.57l28.02 19.382 1.562 1.086-.613 1.774-11.345 32.844 30.317-20.02 1.402-.925.06.04.26-.18 1.375.914 29.94 19.9-11.987-31.237-.72-1.867 1.677-1.102 31.207-20.61h-41.21" fill="#004226"/><path d="M248.2 55.496c1.69 0 3.062 1.375 3.062 3.063 0 1.686-1.37 3.06-3.063 3.06-1.684 0-3.063-1.374-3.063-3.06 0-1.69 1.38-3.064 3.062-3.064" fill="#004226" fill-rule="evenodd"/><path d="M263.027 55.496c1.684 0 3.06 1.375 3.06 3.063 0 1.686-1.376 3.06-3.06 3.06-1.687 0-3.058-1.374-3.058-3.06 0-1.69 1.37-3.064 3.057-3.064" fill="#004226" fill-rule="evenodd"/><path d="M278.137 55.496c1.683 0 3.058 1.375 3.058 3.063 0 1.686-1.375 3.06-3.058 3.06-1.692 0-3.063-1.374-3.063-3.06 0-1.69 1.37-3.064 3.063-3.064" fill="#004226" fill-rule="evenodd"/><path d="M500.56 247.922c8.358 16.395 14.862 33.81 19.252 52.012 4.266 17.695 6.524 36.05 6.524 54.836 0 68.34-29.602 130.367-77.344 175.297-47.664 44.86-113.414 72.67-185.82 72.67-72.41 0-138.164-27.81-185.828-72.67C29.602 485.137 0 423.11 0 354.77c0-18.786 2.258-37.14 6.523-54.836 4.39-18.203 10.9-35.617 19.254-52.012l14.145-27.758-4.75 30.785c-.777 5.015-1.375 10.202-1.79 15.554-.402 5.273-.612 10.477-.612 15.594 0 59.586 25.832 113.687 67.496 152.894 41.746 39.293 99.382 63.65 162.906 63.65 63.515 0 121.148-24.357 162.898-63.65 41.664-39.207 67.496-93.308 67.496-152.894 0-5.117-.21-10.32-.617-15.594-.41-5.352-1.013-10.54-1.786-15.555l-4.75-30.786 14.145 27.758zM1422.717 660.8c-1.813-7.51-4.012-14.892-6.57-22.13.01.652.01 1.3.01 1.95 0 62.44-27.042 119.11-70.66 160.16-43.538 40.976-103.6 66.382-169.733 66.382-66.142 0-126.204-25.406-169.743-66.382-43.618-41.05-70.66-97.72-70.66-160.16 0-.65.003-1.298.01-1.95-2.56 7.238-4.757 14.62-6.57 22.13-4.062 16.847-6.21 34.413-6.21 52.49 0 65.486 28.39 124.943 74.18 168.032C586.347 745.234 649.677 772 719.47 772c69.78 0 133.112-26.766 178.983-69.938 45.79-43.09 74.18-102.546 74.18-168.03 0-18.08-2.15-35.645-6.21-52.493" fill="#004226"/><path d="M269.063 355.707c-1.547-2.187-3.563-4.328-5.852-6.476-1.757-1.656-3.74-3.36-5.808-5.105.055 1.133.11 2.262.16 3.395l.204 4.183-2.46-3.394c-1.93-2.66-3.94-5.28-6.064-7.83-1.72-2.058-3.488-4.046-5.328-5.925-.105.234-.21.472-.312.707-.348.797-.696 1.594-1.047 2.383l-.864 1.984-1.284-1.747c-.664-.9-1.422-1.8-2.28-2.703-.458-.488-.942-.973-1.45-1.457-.278.75-.62 1.492-1.016 2.226-.738 1.367-1.68 2.73-2.828 4.085l-.633.754-.876-.442c-1.535-.758-3.254-1.43-5.168-2.004-1.527-.46-3.176-.856-4.95-1.2v3.508c1.384.954 2.44 1.918 3.177 2.9.926 1.24 1.36 2.5 1.297 3.784l-.036.707-.628.336c-.938.495-1.872 1-2.81 1.495 2.1 1.692 4.185 3.387 6.282 5.074l.746.605-.386.87-1.426 3.212c3.683-.586 7.09-.746 10.215-.5 3.832.312 7.27 1.258 10.308 2.828l1.297.672-.863 1.176c-.49.664-.978 1.332-1.47 2 3.45-.516 6.965-.832 10.465-.87 3.54-.048 7.078.194 10.55.803.098-1.582.333-3.117.563-4.648l.06-.39c.104-1.056.237-2.11.39-3.177.02-.128.04-.26.058-.393.035-.473.06-.953.066-1.43zm467.816 160.45c.214.01.43.023.643.038h.004c1.887.118 3.793.317 5.74.598 2.014.3 3.772.855 5.55 1.422 2.54.8 5.136 1.625 8.468 1.613 3.71-.023 9.3-2.355 13.5-5.77 3.3-2.683 5.684-6 5.395-9.253-.25-2.852-1.15-5.223-2.813-6.938-1.57-1.61-3.855-2.683-6.968-3.09-2.45-.324-4.37.313-6.283.95-1.054.343-2.11.695-3.32.92l-2.117.4.703-2.03c.344-.994.816-1.947 1.285-2.908.824-1.67 1.656-3.337 1.543-5.012-.186-2.907-1.784-6.106-4.07-8.55-2.12-2.263-4.8-3.85-7.456-3.903-6.7-.137-10.297 6.418-12.657 10.707-.3.554-.585 1.066-.875 1.57l-.753 1.31-1.146-.998c-1.184-1.03-3.473-2.382-5.965-2.94-1.692-.376-3.466-.38-4.99.37-6.913 3.4-7.284 9.25-7.64 14.96-.054.837-.105 1.673-.215 2.868-.082.86-.082 1.7-.015 2.516.195 2.402 1.054 4.277 2.39 5.578 1.34 1.312 3.176 2.086 5.317 2.29.69.062 1.45.062 2.27-.01 2.874-.233 4.51.603 6.363 1.626.125-.32.273-.648.44-.98.82-4.16 3.59-7.153 7.24-9.618.566 3.985.757 8.055.43 12.262zm-12.1 37.03c-.182-1.85-.28-3.722-.3-5.597-3.503-.668-7.132-.934-10.78-.887-4.423.05-8.84.55-13.083 1.328l-3.086.564 1.86-2.528c.794-1.082 1.59-2.168 2.383-3.254-2.394-1.03-5.074-1.667-8.035-1.906-3.566-.293-7.527 0-11.875.867l-2.367.47.98-2.196c.665-1.5 1.336-3 2-4.5-2.335-1.883-4.67-3.766-7.003-5.652l-1.465-1.184 1.66-.886c1.25-.664 2.504-1.332 3.754-2.004-.102-.492-.344-.992-.735-1.51-.652-.872-1.69-1.763-3.11-2.677l-.573-.375v-7.813l1.457.243c2.438.406 4.677.914 6.708 1.523 1.695.51 3.246 1.087 4.664 1.735.762-.976 1.406-1.945 1.926-2.914.64-1.19 1.1-2.382 1.375-3.56l.46-2.017 1.57 1.352c1.126.972 2.15 1.945 3.067 2.914.41.432.8.862 1.172 1.296.067-.164.137-.328.207-.49.347-.796.695-1.588 1.046-2.38l.723-1.658 1.292 1.266c2.414 2.363 4.664 4.84 6.793 7.387 1.262 1.508 2.488 3.063 3.7 4.657-.032-.72-.067-1.438-.103-2.156l-.136-2.86 2.19 1.845c2.822 2.367 5.56 4.664 8.1 7.05 1.81 1.7 3.46 3.403 4.882 5.145.77-3.79 1.8-7.625 3.062-11.484-.586-1.008-.926-2.094-.914-3.29-.156-.08-.312-.17-.47-.253-1.573-.87-2.9-1.61-5.167-1.426h-.005c-.894.074-1.797.07-2.695-.015-2.715-.25-5.078-1.266-6.84-2.985-1.762-1.73-2.894-4.133-3.144-7.156-.075-.886-.063-1.866.04-2.944.06-.672.128-1.735.194-2.8.402-6.423.817-13.005 9.047-17.048 2.09-1.027 4.426-1.043 6.617-.555 2.246.504 4.36 1.55 5.86 2.575.05-.094.1-.188.156-.286 2.644-4.82 6.69-12.17 14.894-12.007 3.375.07 6.688 1.98 9.23 4.69 2.66 2.85 4.524 6.618 4.747 10.106.153 2.318-.823 4.298-1.804 6.275-.055.113-.11.22-.164.328.195-.066.4-.13.586-.19 2.184-.724 4.363-1.443 7.4-1.048 3.694.48 6.467 1.812 8.428 3.824 2.102 2.163 3.23 5.05 3.53 8.464.36 4.183-2.432 8.23-6.327 11.398-4.61 3.746-10.856 6.313-15.067 6.336-3.72.012-6.504-.867-9.227-1.73-1.69-.535-3.355-1.067-5.16-1.328-1.824-.274-3.664-.457-5.53-.575h-.005c-.468-.03-.937-.054-1.4-.074-1.158 1.275-2.72 2.146-4.525 2.77-1.664 5.16-2.914 10.243-3.668 15.235-.097 1.262-.277 2.5-.465 3.727-.422 4.273-.457 8.472-.054 12.59" fill="#004226"/><path d="M234.922 332.817c-3.223-6.11-7.266-15.172-11.387-24.415-5.496-12.328-11.137-24.976-14.77-30.996-1.085 3.25-2.132 7.59-3.234 12.15-1.846 7.66-3.84 15.917-6.546 21.096L195.676 317l.965-7.09c.403-2.914.165-7.207-.093-11.797-.672-12.17-1.457-26.36 8.94-26.82.716-.03 1.556.492 2.49 1.473.398-.782.812-1.426 1.25-1.914 1.453-1.625 3.035-1.895 4.816-.297 9.797 8.75 14.234 22.808 18.676 36.894 2.843 9.015 5.69 18.042 9.928 25.546l1.215 2.156-2.457-.304c-.78-.098-1.867-.414-2.957-.727-.973-.284-1.95-.57-2.575-.647l-.648-.082-.305-.573zm447.187 153.83c3.972 8.916 7.878 17.662 11.035 23.728.675.14 1.484.375 2.29.61-3.646-7.173-6.228-15.352-8.802-23.524-4.34-13.753-8.672-27.476-17.96-35.78-.466-.414-.892-.336-1.286.105-.473.535-.938 1.352-1.387 2.39 4.395 6.216 10.328 19.513 16.11 32.473zm-18.77-32.51c-.59-.715-1.082-1.098-1.445-1.082-7.868.35-7.16 13.18-6.55 24.183.104 1.81.202 3.567.257 5.23 1.414-4.32 2.64-9.398 3.804-14.238 1.305-5.402 2.54-10.507 3.934-14.093" fill="#004226"/><path d="M245.703 248.602c-.332 3.94-1.566 6.422-4.703 10.136-2.695 2.118-7.203 3.926-7.84 1.88-1.566-2.34 2.164-6.325 3.53-7.602 2.35-2.192 5.665-3.614 9.013-4.414zm456.297 179.26" fill="#004226" fill-rule="evenodd" stroke="#eb1923" stroke-width="2.5" stroke-miterlimit="10"/><path d="M245.703 248.602c-.332 3.94-1.566 6.422-4.703 10.136-2.695 2.118-7.203 3.926-7.84 1.88-1.566-2.34 2.164-6.325 3.53-7.602 2.35-2.192 5.665-3.614 9.013-4.414zm456.297 179.26" fill="#004226" fill-rule="evenodd" stroke="#eb1923" stroke-width="2.5" stroke-miterlimit="10"/><path d="M236.883 240.024c1.742 3.543 1.957 6.312 1.183 11.105-1.218 3.21-4.152 7.08-5.75 5.65-2.55-1.198-1.402-6.534-.89-8.33.88-3.094 2.996-6.016 5.457-8.426zm456.297 179.26" fill="#fff" fill-rule="evenodd" stroke="#004226" stroke-width="2.5" stroke-miterlimit="10"/><path d="M245.703 248.602c-.332 3.94-1.566 6.422-4.703 10.136-2.695 2.118-7.203 3.926-7.84 1.88-1.566-2.34 2.164-6.325 3.53-7.602 2.35-2.192 5.665-3.614 9.013-4.414zm456.297 179.26" fill="#fff" fill-rule="evenodd" stroke="#004226" stroke-width="2.5" stroke-miterlimit="10"/><path d="M246.742 255.707c-.328 3.938-1.566 6.422-4.7 10.137-2.694 2.117-7.206 3.926-7.843 1.88-1.567-2.34 2.163-6.325 3.53-7.603 2.348-2.198 5.665-3.612 9.012-4.413zm456.297 179.262" fill="#fff" fill-rule="evenodd" stroke="#004226" stroke-width="2.5" stroke-miterlimit="10"/><path d="M248.477 263.328c-.332 3.942-1.567 6.422-4.704 10.137-2.695 2.125-7.203 3.926-7.84 1.883-1.566-2.336 2.165-6.328 3.532-7.602 2.348-2.195 5.66-3.613 9.012-4.418zm456.296 179.262" fill="#fff" fill-rule="evenodd" stroke="#004226" stroke-width="2.5" stroke-miterlimit="10"/><path d="M250.387 271.3c-.336 3.942-1.575 6.423-4.707 10.138-2.696 2.12-7.207 3.922-7.844 1.88-1.566-2.337 2.164-6.322 3.53-7.603 2.353-2.195 5.665-3.613 9.02-4.414zm456.297 179.262" fill="#fff" fill-rule="evenodd" stroke="#004226" stroke-width="2.5" stroke-miterlimit="10"/><path d="M251.945 279.27c-.332 3.94-1.574 6.422-4.707 10.136-2.695 2.12-7.207 3.926-7.84 1.88-1.566-2.337 2.165-6.32 3.532-7.602 2.343-2.196 5.66-3.614 9.015-4.414zm456.297 179.26" fill="#fff" fill-rule="evenodd" stroke="#004226" stroke-width="2.5" stroke-miterlimit="10"/><path d="M252.984 287.238c-.332 3.942-1.57 6.422-4.707 10.137-2.695 2.125-7.207 3.926-7.836 1.887-1.565-2.34 2.158-6.328 3.525-7.602 2.347-2.2 5.664-3.617 9.02-4.422zm456.297 179.262" fill="#fff" fill-rule="evenodd" stroke="#004226" stroke-width="2.5" stroke-miterlimit="10"/><path d="M254.023 295.02c-.332 3.937-1.57 6.418-4.707 10.132-2.695 2.122-7.207 3.93-7.836 1.883-1.566-2.34 2.16-6.324 3.528-7.6 2.347-2.197 5.664-3.618 9.015-4.415zm456.297 179.26" fill="#fff" fill-rule="evenodd" stroke="#004226" stroke-width="2.5" stroke-miterlimit="10"/><path d="M256.453 301.793c-.34 3.942-1.574 6.422-4.71 10.14-2.696 2.118-7.204 3.923-7.84 1.88-1.567-2.34 2.163-6.325 3.53-7.606 2.348-2.19 5.665-3.61 9.02-4.414zm456.297 179.262" fill="#fff" fill-rule="evenodd" stroke="#004226" stroke-width="2.5" stroke-miterlimit="10"/><path d="M222.852 238.543c3.54 1.758 5.398 3.824 7.695 8.106.984 3.284.996 8.143-1.133 7.983-2.754.594-5.086-4.34-5.77-6.082-1.183-2.99-1.28-6.593-.792-10.007zm456.296 179.262" fill="#fff" fill-rule="evenodd" stroke="#004226" stroke-width="2.5" stroke-miterlimit="10"/><path d="M220.72 253.27c3.897.664 6.264 2.105 9.702 5.543 1.883 2.863 3.3 7.51 1.21 7.972-2.46 1.364-6.116-2.69-7.277-4.16-1.992-2.523-3.12-5.95-3.636-9.355zm456.296 179.26" fill="#fff" fill-rule="evenodd" stroke="#004226" stroke-width="2.5" stroke-miterlimit="10"/><path d="M223.14 262.277c3.903.665 6.27 2.11 9.708 5.547 1.886 2.864 3.3 7.512 1.21 7.97-2.46 1.362-6.117-2.688-7.277-4.16-1.99-2.524-3.124-5.946-3.64-9.357zM1135.736 620.8" fill="#fff" fill-rule="evenodd" stroke="#004226" stroke-width="2.5" stroke-miterlimit="10"/><path d="M224.703 271.633c3.9.664 6.266 2.11 9.703 5.547 1.883 2.863 3.3 7.512 1.21 7.97-2.46 1.362-6.116-2.685-7.276-4.162-1.992-2.523-3.12-5.94-3.637-9.355zm456.297 179.262" fill="#fff" fill-rule="evenodd" stroke="#004226" stroke-width="2.5" stroke-miterlimit="10"/><path d="M227.13 281.512c3.897.664 6.265 2.11 9.702 5.543 1.887 2.863 3.3 7.512 1.21 7.972-2.46 1.364-6.116-2.69-7.276-4.16-1.993-2.523-3.125-5.95-3.637-9.355zm456.296 179.26" fill="#fff" fill-rule="evenodd" stroke="#004226" stroke-width="2.5" stroke-miterlimit="10"/><path d="M229.203 290.867c3.902.664 6.274 2.11 9.71 5.547 1.884 2.863 3.298 7.512 1.212 7.97-2.46 1.362-6.12-2.692-7.277-4.16-1.993-2.525-3.125-5.947-3.645-9.357zm456.297 179.262" fill="#fff" fill-rule="evenodd" stroke="#004226" stroke-width="2.5" stroke-miterlimit="10"/><path d="M232.5 300.59c3.898.664 6.266 2.11 9.703 5.547 1.883 2.867 3.3 7.515 1.21 7.97-2.46 1.366-6.116-2.69-7.272-4.158-1.992-2.532-3.12-5.946-3.64-9.36zm456.297 179.262" fill="#fff" fill-rule="evenodd" stroke="#004226" stroke-width="2.5" stroke-miterlimit="10"/><path d="M234.06 308.89c3.893.665 6.264 2.106 9.702 5.544 1.883 2.863 3.304 7.51 1.215 7.968-2.465 1.368-6.125-2.687-7.282-4.156-1.984-2.523-3.117-5.95-3.636-9.355zm456.295 179.262" fill="#fff" fill-rule="evenodd" stroke="#004226" stroke-width="2.5" stroke-miterlimit="10"/><path d="M236.797 240.46l3.023-10.245" stroke="#004226" stroke-width="2.5" stroke-miterlimit="10" fill="none"/><path d="M223.367 239.62l-1.515-16.292" stroke="#004226" stroke-width="2.5" stroke-miterlimit="10" fill="none"/><path d="M213.453 244.324l8.063 9.57" stroke="#004226" stroke-width="2.5" stroke-miterlimit="10" fill="none"/><path d="M262.664 304.617c-11.812-31.578-11.25-92.34-35.773-92.207-7.632.297-10.617 6.27-11.593 11.254 2.062-2.758 3.508-3.84 7.898-6.215" stroke="#004226" stroke-width="2.5" stroke-miterlimit="10" fill="none"/><path d="M247.992 213.082c-6.664-1.453-14.1-.082-19.867 2.047" stroke="#004226" stroke-width="2.5" stroke-miterlimit="10" fill="none"/><path d="M257.793 286.14c1.367-16.753.43-38.667-1.34-55.417" stroke="#004226" stroke-width="2.5" stroke-miterlimit="10" fill="none"/><path d="M263.453 234.684c-3.265-17.9-14.875-39.614-20.828-39.95-8.54 2.946-12.12 12.48-13.906 23.864-.76-7-3.544-13.883 3.792-21.336 9.543-2.524 22.933 27.562 31.76 58.156" stroke="#004226" stroke-width="2.5" stroke-miterlimit="10" fill="none"/><path d="M261.43 300.3c6.324-17.038 11.043-42.14 20.543-43.3 9.96.352 10.933 14.102 15.644 23.707-.422-8.21.684-22.555-4.586-22.758-3.362.32-22.678 32.265-30.022 45.984" stroke="#004226" stroke-width="2.5" stroke-miterlimit="10" fill="none"/><path d="M267.277 281.81c.957-22.587 12.836-53.118 20.387-53.415 5.945.29 9.23 7.586 13.43 22.757-.235-6.843 4.71-18.968-2.21-20.226-12.7-.453-17.962 13.758-27.025 38.875" stroke="#004226" stroke-width="2.5" stroke-miterlimit="10" fill="none"/><path d="M260.188 296.16c3.85-34.394 4.507-82.68 22.296-82.515 7.45.414 17.985 14.152 23.532 23.222-2.602-9.45.804-21.77-18.188-20.14-13.922.258-16.074 43.207-21.883 70.29" stroke="#004226" stroke-width="2.5" stroke-miterlimit="10" fill="none"/><path d="M262.242 249.762c.684-20.598 6.71-55.988 19.695-56.195 5.407.19 9.54 16.144 12.747 25.257-.352-7.683 5.683-23.363-4.633-23.054-6.515-.203-18.675 20.164-21.554 34.18" stroke="#004226" stroke-width="2.5" stroke-miterlimit="10" fill="none"/><path d="M324.22 273.836c-3.353-.152 5.82-9.184 10.112-12.793 5.352-4.496 15.055-8.664 17.207-8.3 1.624.273-5.282 11.445-9.942 15.042-5.118 3.953-12.754 6.262-17.38 6.05zm456.296 179.262" fill="#fff" fill-rule="evenodd" stroke="#004226" stroke-width="2.5" stroke-miterlimit="10"/><path d="M351.73 252.742l5.348-3.254" stroke="#004226" stroke-width="2.5" stroke-miterlimit="10" fill="none"/><path d="M334.992 270.848c-1.03 3.2-7.32-8.04-9.668-13.133-2.922-6.352-4.375-16.81-3.465-18.785.695-1.5 9.644 8.113 11.886 13.558 2.457 5.977 2.672 13.954 1.246 18.36zm456.297 179.26" fill="#fff" fill-rule="evenodd" stroke="#004226" stroke-width="2.5" stroke-miterlimit="10"/><path d="M321.914 238.742l-1.726-6.015" stroke="#004226" stroke-width="2.5" stroke-miterlimit="10" fill="none"/><path d="M330.113 280.145c-1.03 3.2-7.324-8.04-9.672-13.133-2.92-6.352-4.374-16.81-3.456-18.785.692-1.5 9.64 8.12 11.88 13.558 2.46 5.977 2.67 13.953 1.25 18.36zm456.297 179.26" fill="#fff" fill-rule="evenodd" stroke="#004226" stroke-width="2.5" stroke-miterlimit="10"/><path d="M317.03 248.043l-1.72-6.016" stroke="#004226" stroke-width="2.5" stroke-miterlimit="10" fill="none"/><path d="M324.53 288.512c-1.03 3.2-7.32-8.035-9.667-13.133-2.926-6.35-4.38-16.806-3.46-18.786.69-1.496 9.644 8.117 11.886 13.558 2.452 5.977 2.667 13.958 1.24 18.36zm456.298 179.26" fill="#fff" fill-rule="evenodd" stroke="#004226" stroke-width="2.5" stroke-miterlimit="10"/><path d="M311.457 256.41l-1.73-6.015" stroke="#004226" stroke-width="2.5" stroke-miterlimit="10" fill="none"/><path d="M320.582 296.883c-1.03 3.19-7.324-8.043-9.668-13.137-2.926-6.344-4.38-16.804-3.46-18.79.69-1.49 9.64 8.122 11.882 13.568 2.457 5.976 2.668 13.95 1.246 18.36zm456.297 179.262" fill="#fff" fill-rule="evenodd" stroke="#004226" stroke-width="2.5" stroke-miterlimit="10"/><path d="M307.5 264.777l-1.723-6.015" stroke="#004226" stroke-width="2.5" stroke-miterlimit="10" fill="none"/><path d="M316.168 305.945c-1.035 3.2-7.324-8.035-9.672-13.136-2.922-6.345-4.375-16.806-3.457-18.783.687-1.5 9.64 8.118 11.878 13.563 2.46 5.977 2.672 13.953 1.25 18.355zm456.297 179.262" fill="#fff" fill-rule="evenodd" stroke="#004226" stroke-width="2.5" stroke-miterlimit="10"/><path d="M303.086 273.848l-1.727-6.016" stroke="#004226" stroke-width="2.5" stroke-miterlimit="10" fill="none"/><path d="M310.82 312.922c-1.035 3.195-7.324-8.043-9.672-13.137-2.92-6.35-4.375-16.808-3.457-18.785.693-1.496 9.646 8.12 11.88 13.563 2.46 5.976 2.672 13.95 1.25 18.36zm456.297 179.262" fill="#fff" fill-rule="evenodd" stroke="#004226" stroke-width="2.5" stroke-miterlimit="10"/><path d="M297.742 280.817l-1.726-6.016" stroke="#004226" stroke-width="2.5" stroke-miterlimit="10" fill="none"/><path d="M319.57 284.067c-3.35-.153 5.82-9.188 10.114-12.797 5.35-4.493 15.054-8.664 17.207-8.305 1.626.273-5.28 11.445-9.94 15.047-5.118 3.95-12.755 6.258-17.38 6.055zm456.297 179.26" fill="#fff" fill-rule="evenodd" stroke="#004226" stroke-width="2.5" stroke-miterlimit="10"/><path d="M347.082 262.973l5.34-3.258" stroke="#004226" stroke-width="2.5" stroke-miterlimit="10" fill="none"/><path d="M315.152 293.598c-3.355-.153 5.82-9.192 10.118-12.797 5.35-4.5 15.054-8.663 17.203-8.304 1.625.274-5.286 11.446-9.942 15.047-5.112 3.95-12.75 6.258-17.378 6.055zm456.297 179.26" fill="#fff" fill-rule="evenodd" stroke="#004226" stroke-width="2.5" stroke-miterlimit="10"/><path d="M342.664 272.496l5.344-3.25" stroke="#004226" stroke-width="2.5" stroke-miterlimit="10" fill="none"/><path d="M323.996 276.442c-2.918 1.664.01-10.872 1.72-16.22 2.12-6.66 8.096-15.36 10.112-16.206 1.524-.637 1.645 12.496-.375 18.027-2.21 6.07-7.433 12.106-11.457 14.4zm456.297 179.26" fill="#fff" fill-rule="evenodd" stroke="#004226" stroke-width="2.5" stroke-miterlimit="10"/><path d="M335.988 243.918l2.782-5.61" stroke="#004226" stroke-width="2.5" stroke-miterlimit="10" fill="none"/><path d="M321.664 290.942c-2.668 2.035-1.422-10.782-.44-16.305 1.217-6.88 5.987-16.297 7.874-17.402 1.422-.836 3.285 12.167 2.02 17.917-1.39 6.313-5.77 12.98-9.454 15.79zm456.297 179.26" fill="#fff" fill-rule="evenodd" stroke="#004226" stroke-width="2.5" stroke-miterlimit="10"/><path d="M329.242 257.113l2.02-5.92" stroke="#004226" stroke-width="2.5" stroke-miterlimit="10" fill="none"/><path d="M330.777 292.31l5.746-2.482" stroke="#004226" stroke-width="2.5" stroke-miterlimit="10" fill="none"/><path d="M324.035 302.766l5.746-2.48" stroke="#004226" stroke-width="2.5" stroke-miterlimit="10" fill="none"/><path d="M298.64 292.707c-3.773-.422-5.652-3.492-7.257-6.933" stroke="#004226" stroke-width="2.5" stroke-miterlimit="10" fill="none"/><path d="M292.992 294.64l.65-4.51" stroke="#004226" stroke-width="2.5" stroke-miterlimit="10" fill="none"/><path d="M240.266 183.84c2.562.078 4.144 2.457 6.7 2.453m-6.7-2.453c2.562.078 4.144 2.457 6.7 2.453m-6.7-2.453c-2.563.078-4.15 2.457-6.696 2.453m-6.7-2.453c2.564.078 4.146 2.457 6.7 2.453m-6.7-2.453c-2.56.078-4.143 2.457-6.694 2.453m-6.7-2.453c2.57.078 4.153 2.457 6.7 2.453m-6.7-2.453c-2.562.078-4.144 2.457-6.695 2.453m-6.694-2.453c2.566.078 4.148 2.457 6.695 2.453m46.876-2.453c-2.562.078-4.144 2.457-6.69 2.453m6.69-2.453c2.567.078 4.15 2.457 6.703 2.453m6.69-2.453c-2.562.078-4.144 2.457-6.69 2.453m6.69-2.453c2.567.078 4.145 2.457 6.7 2.453m6.695-2.453c-2.562.078-4.144 2.457-6.695 2.453m6.695-2.453c2.563.078 4.145 2.457 6.7 2.453m6.695-2.453c-2.567.078-4.145 2.457-6.7 2.453m6.7-2.453c2.562.078 4.144 2.457 6.7 2.453m6.694-2.453c-2.566.078-4.148 2.457-6.703 2.453m6.704-2.453c2.563.078 4.145 2.457 6.692 2.453m6.7-2.453c-2.563.078-4.146 2.457-6.7 2.453" stroke="#004226" stroke-width="2.5" stroke-miterlimit="10" fill="none"/><path d="M201.418 199.652c2.562.07 4.144 2.45 6.69 2.446m6.704-2.446c-2.566.07-4.148 2.45-6.703 2.446m6.702-2.446c2.563.07 4.145 2.45 6.692 2.446m8.832-2.805c-4.695-.102-6.277 2.81-8.832 2.805m33.488-2.446c-2.562.07-2.547 1.65-5.094 1.65m5.094-1.65c2.567.07 4.15 2.45 6.7 2.446m6.7-2.446c-2.572.07-4.154 2.45-6.7 2.446m6.69-2.446c2.57.07 1.837 1.473 4.388 1.47m22.402-1.47c2.562.07 4.144 2.45 6.7 2.446m6.694-2.446c-2.566.07-4.144 2.45-6.695 2.446m6.696-2.446c2.563.07 4.145 2.45 6.7 2.446m6.695-2.446c-2.565.07-4.147 2.45-6.702 2.446m6.703-2.446c2.563.07 4.145 2.45 6.692 2.446m6.7-2.446c-2.563.07-4.145 2.45-6.7 2.446m6.7-2.446c2.562.07 4.148 2.45 6.695 2.446m-140.63-2.446c-2.57.07-4.15 2.45-6.698 2.446m-6.697-2.446c2.563.07 4.145 2.45 6.696 2.446m-6.697-2.446c-2.562.07-4.144 2.45-6.7 2.446" stroke="#004226" stroke-width="2.5" stroke-miterlimit="10" fill="none"/><path d="M184.035 217.113c-2.57.07-4.152 2.45-6.7 2.45" stroke="#004226" stroke-width="2.5" stroke-miterlimit="10" fill="none"/><path d="M184.035 217.113c2.563.07 4.145 2.45 6.692 2.45" stroke="#004226" stroke-width="2.5" stroke-miterlimit="10" fill="none"/><path d="M197.43 217.113c-2.57.07-4.153 2.45-6.703 2.45" stroke="#004226" stroke-width="2.5" stroke-miterlimit="10" fill="none"/><path d="M197.43 217.113c2.562.07 4.144 2.45 6.69 2.45" stroke="#004226" stroke-width="2.5" stroke-miterlimit="10" fill="none"/><path d="M210.82 217.113c-2.562.07-4.144 2.45-6.7 2.45" stroke="#004226" stroke-width="2.5" stroke-miterlimit="10" fill="none"/><path d="M210.82 217.113c2.563.07 4.15 2.45 6.696 2.45" stroke="#004226" stroke-width="2.5" stroke-miterlimit="10" fill="none"/><path d="M170.637 217.113c2.566.07 4.148 2.45 6.7 2.45" stroke="#004226" stroke-width="2.5" stroke-miterlimit="10" fill="none"/><path d="M170.64 217.113c-2.57.07-4.148 2.45-6.7 2.45" stroke="#004226" stroke-width="2.5" stroke-miterlimit="10" fill="none"/><path d="M305.266 215.363c-2.563.075-4.15 2.457-6.7 2.454" stroke="#004226" stroke-width="2.5" stroke-miterlimit="10" fill="none"/><path d="M305.266 215.363c2.562.075 4.144 2.457 6.695 2.454" stroke="#004226" stroke-width="2.5" stroke-miterlimit="10" fill="none"/><path d="M318.656 215.363c-2.566.075-4.148 2.457-6.695 2.454" stroke="#004226" stroke-width="2.5" stroke-miterlimit="10" fill="none"/><path d="M318.656 215.363c2.567.075 4.15 2.457 6.696 2.454" stroke="#004226" stroke-width="2.5" stroke-miterlimit="10" fill="none"/><path d="M332.05 215.363c-2.566.075-4.148 2.457-6.698 2.454" stroke="#004226" stroke-width="2.5" stroke-miterlimit="10" fill="none"/><path d="M332.047 215.363c2.57.075 4.148 2.457 6.7 2.454" stroke="#004226" stroke-width="2.5" stroke-miterlimit="10" fill="none"/><path d="M345.445 215.363c-2.57.075-4.148 2.457-6.7 2.454" stroke="#004226" stroke-width="2.5" stroke-miterlimit="10" fill="none"/><path d="M345.44 215.363c2.568.075 4.15 2.457 6.7 2.454" stroke="#004226" stroke-width="2.5" stroke-miterlimit="10" fill="none"/><path d="M358.836 215.363c-2.566.075-4.15 2.457-6.695 2.454" stroke="#004226" stroke-width="2.5" stroke-miterlimit="10" fill="none"/><path d="M172.305 234.324c-2.563.075-4.145 2.457-6.696 2.453" stroke="#004226" stroke-width="2.5" stroke-miterlimit="10" fill="none"/><path d="M172.305 234.324c2.57.075 4.152 2.457 6.7 2.453" stroke="#004226" stroke-width="2.5" stroke-miterlimit="10" fill="none"/><path d="M185.703 234.324c-2.566.075-4.148 2.457-6.7 2.453" stroke="#004226" stroke-width="2.5" stroke-miterlimit="10" fill="none"/><path d="M185.703 234.324c2.563.075 4.15 2.457 6.695 2.453" stroke="#004226" stroke-width="2.5" stroke-miterlimit="10" fill="none"/><path d="M199.098 234.324c-2.567.075-4.153 2.457-6.7 2.453" stroke="#004226" stroke-width="2.5" stroke-miterlimit="10" fill="none"/><path d="M199.098 234.324c2.562.075 4.144 2.457 6.695 2.453" stroke="#004226" stroke-width="2.5" stroke-miterlimit="10" fill="none"/><path d="M212.492 234.324c-2.562.075-4.148 2.457-6.7 2.453" stroke="#004226" stroke-width="2.5" stroke-miterlimit="10" fill="none"/><path d="M212.492 234.324c2.563.075 4.145 2.457 6.7 2.453" stroke="#004226" stroke-width="2.5" stroke-miterlimit="10" fill="none"/><path d="M223.156 235.184c-.754.004-1.418 1.597-3.965 1.593" stroke="#004226" stroke-width="2.5" stroke-miterlimit="10" fill="none"/><path d="M158.914 234.324c2.566.075 4.15 2.457 6.695 2.453" stroke="#004226" stroke-width="2.5" stroke-miterlimit="10" fill="none"/><path d="M158.918 234.324c-2.57.075-4.152 2.457-6.7 2.453" stroke="#004226" stroke-width="2.5" stroke-miterlimit="10" fill="none"/><path d="M318.984 232.574c-2.566.075-4.148 2.457-6.7 2.453" stroke="#004226" stroke-width="2.5" stroke-miterlimit="10" fill="none"/><path d="M305.586 232.574c2.57.075 4.152 2.457 6.7 2.453" stroke="#004226" stroke-width="2.5" stroke-miterlimit="10" fill="none"/><path d="M318.98 232.574c2.567.075 4.153 2.457 6.7 2.453" stroke="#004226" stroke-width="2.5" stroke-miterlimit="10" fill="none"/><path d="M332.38 232.574c-2.567.075-4.153 2.457-6.7 2.453" stroke="#004226" stroke-width="2.5" stroke-miterlimit="10" fill="none"/><path d="M332.375 232.574c2.566.075 4.148 2.457 6.7 2.453" stroke="#004226" stroke-width="2.5" stroke-miterlimit="10" fill="none"/><path d="M345.766 232.574c-2.563.075-4.145 2.457-6.692 2.453" stroke="#004226" stroke-width="2.5" stroke-miterlimit="10" fill="none"/><path d="M345.766 232.574c2.57.075 4.152 2.457 6.703 2.453" stroke="#004226" stroke-width="2.5" stroke-miterlimit="10" fill="none"/><path d="M359.16 232.574c-2.562.075-4.144 2.457-6.69 2.453" stroke="#004226" stroke-width="2.5" stroke-miterlimit="10" fill="none"/><path d="M359.16 232.574c2.567.075 4.145 2.457 6.7 2.453" stroke="#004226" stroke-width="2.5" stroke-miterlimit="10" fill="none"/><path d="M372.555 232.574c-2.563.075-4.145 2.457-6.696 2.453" stroke="#004226" stroke-width="2.5" stroke-miterlimit="10" fill="none"/><path d="M167.688 249.36c-2.563.078-4.15 2.457-6.696 2.45" stroke="#004226" stroke-width="2.5" stroke-miterlimit="10" fill="none"/><path d="M167.688 249.36c2.562.078 4.144 2.457 6.7 2.45" stroke="#004226" stroke-width="2.5" stroke-miterlimit="10" fill="none"/><path d="M181.078 249.36c-2.562.078-4.144 2.457-6.69 2.45" stroke="#004226" stroke-width="2.5" stroke-miterlimit="10" fill="none"/><path d="M181.078 249.36c2.57.078 4.152 2.457 6.703 2.45" stroke="#004226" stroke-width="2.5" stroke-miterlimit="10" fill="none"/><path d="M194.473 249.36c-2.563.078-4.145 2.457-6.692 2.45" stroke="#004226" stroke-width="2.5" stroke-miterlimit="10" fill="none"/><path d="M194.473 249.36c2.57.078 4.152 2.457 6.7 2.45" stroke="#004226" stroke-width="2.5" stroke-miterlimit="10" fill="none"/><path d="M207.87 249.36c-2.565.078-4.147 2.457-6.698 2.45" stroke="#004226" stroke-width="2.5" stroke-miterlimit="10" fill="none"/><path d="M207.87 249.36c2.567.078 4.146 2.457 6.696 2.45" stroke="#004226" stroke-width="2.5" stroke-miterlimit="10" fill="none"/><path d="M218.523 250.32c-.597-.113-1.406 1.497-3.957 1.49" stroke="#004226" stroke-width="2.5" stroke-miterlimit="10" fill="none"/><path d="M154.293 249.36c2.562.078 4.144 2.457 6.7 2.45" stroke="#004226" stroke-width="2.5" stroke-miterlimit="10" fill="none"/><path d="M154.293 249.36c-2.563.078-4.145 2.457-6.695 2.45" stroke="#004226" stroke-width="2.5" stroke-miterlimit="10" fill="none"/><path d="M291.836 248.46c-2.566.075-4.15 2.458-6.7 2.45" stroke="#004226" stroke-width="2.5" stroke-miterlimit="10" fill="none"/><path d="M291.832 248.46c2.566.075 4.152 2.458 6.7 2.45" stroke="#004226" stroke-width="2.5" stroke-miterlimit="10" fill="none"/><path d="M301.168 250.192c-.387.074-.09.726-2.637.718" stroke="#004226" stroke-width="2.5" stroke-miterlimit="10" fill="none"/><path d="M278.438 248.46c2.57.075 4.152 2.458 6.7 2.45" stroke="#004226" stroke-width="2.5" stroke-miterlimit="10" fill="none"/><path d="M347.93 248.094c-2.567.074-4.15 2.457-6.7 2.45" stroke="#004226" stroke-width="2.5" stroke-miterlimit="10" fill="none"/><path d="M337.09 248.852c.836-.078 1.594 1.7 4.14 1.69" stroke="#004226" stroke-width="2.5" stroke-miterlimit="10" fill="none"/><path d="M347.93 248.094c2.562.074 4.148 2.457 6.695 2.45" stroke="#004226" stroke-width="2.5" stroke-miterlimit="10" fill="none"/><path d="M361.324 248.094c-2.566.074-4.152 2.457-6.7 2.45" stroke="#004226" stroke-width="2.5" stroke-miterlimit="10" fill="none"/><path d="M361.324 248.094c2.563.074 4.145 2.457 6.696 2.45" stroke="#004226" stroke-width="2.5" stroke-miterlimit="10" fill="none"/><path d="M374.72 248.094c-2.572.074-4.154 2.457-6.7 2.45" stroke="#004226" stroke-width="2.5" stroke-miterlimit="10" fill="none"/><path d="M161.398 266.05c-2.562.075-4.148 2.458-6.695 2.454" stroke="#004226" stroke-width="2.5" stroke-miterlimit="10" fill="none"/><path d="M161.398 266.05c2.567.075 4.15 2.458 6.7 2.454" stroke="#004226" stroke-width="2.5" stroke-miterlimit="10" fill="none"/><path d="M174.79 266.05c-2.563.075-4.145 2.458-6.692 2.454" stroke="#004226" stroke-width="2.5" stroke-miterlimit="10" fill="none"/><path d="M174.79 266.05c2.57.075 4.15 2.458 6.702 2.454" stroke="#004226" stroke-width="2.5" stroke-miterlimit="10" fill="none"/><path d="M188.188 266.05c-2.567.075-4.15 2.458-6.696 2.454" stroke="#004226" stroke-width="2.5" stroke-miterlimit="10" fill="none"/><path d="M188.188 266.05c2.566.075 4.148 2.458 6.695 2.454" stroke="#004226" stroke-width="2.5" stroke-miterlimit="10" fill="none"/><path d="M201.582 266.05c-2.566.075-4.148 2.458-6.7 2.454" stroke="#004226" stroke-width="2.5" stroke-miterlimit="10" fill="none"/><path d="M201.582 266.05c2.566.075 4.145 2.458 6.695 2.454" stroke="#004226" stroke-width="2.5" stroke-miterlimit="10" fill="none"/><path d="M214.977 266.05c-2.563.075-4.145 2.458-6.7 2.454" stroke="#004226" stroke-width="2.5" stroke-miterlimit="10" fill="none"/><path d="M214.977 266.05c2.562.075 4.144 2.458 6.7 2.454" stroke="#004226" stroke-width="2.5" stroke-miterlimit="10" fill="none"/><path d="M224.75 267.453c-.38.016-.523 1.055-3.074 1.05" stroke="#004226" stroke-width="2.5" stroke-miterlimit="10" fill="none"/><path d="M148.004 266.05c2.566.075 4.152 2.458 6.7 2.454" stroke="#004226" stroke-width="2.5" stroke-miterlimit="10" fill="none"/><path d="M347.3 262.817c2.567.07 4.153 2.453 6.7 2.45" stroke="#004226" stroke-width="2.5" stroke-miterlimit="10" fill="none"/><path d="M360.695 262.817c-2.562.07-4.148 2.453-6.695 2.45" stroke="#004226" stroke-width="2.5" stroke-miterlimit="10" fill="none"/><path d="M360.695 262.817c2.567.07 4.15 2.453 6.7 2.45" stroke="#004226" stroke-width="2.5" stroke-miterlimit="10" fill="none"/><path d="M374.086 262.817c-2.563.07-4.145 2.453-6.69 2.45" stroke="#004226" stroke-width="2.5" stroke-miterlimit="10" fill="none"/><path d="M374.086 262.817c2.566.07 4.148 2.453 6.703 2.45" stroke="#004226" stroke-width="2.5" stroke-miterlimit="10" fill="none"/><path d="M198.148 281.024c-2.562.074-4.144 2.45-6.69 2.445" stroke="#004226" stroke-width="2.5" stroke-miterlimit="10" fill="none"/><path d="M184.758 281.024c2.566.074 4.148 2.45 6.7 2.445" stroke="#004226" stroke-width="2.5" stroke-miterlimit="10" fill="none"/><path d="M184.758 281.024c-2.563.074-4.15 2.45-6.695 2.445" stroke="#004226" stroke-width="2.5" stroke-miterlimit="10" fill="none"/><path d="M171.363 281.024c2.567.074 4.153 2.45 6.7 2.445" stroke="#004226" stroke-width="2.5" stroke-miterlimit="10" fill="none"/><path d="M171.367 281.024c-2.566.074-4.148 2.45-6.7 2.445" stroke="#004226" stroke-width="2.5" stroke-miterlimit="10" fill="none"/><path d="M157.977 281.024c2.562.074 4.144 2.45 6.69 2.445" stroke="#004226" stroke-width="2.5" stroke-miterlimit="10" fill="none"/><path d="M157.977 281.024c-2.57.074-4.153 2.45-6.704 2.445" stroke="#004226" stroke-width="2.5" stroke-miterlimit="10" fill="none"/><path d="M144.582 281.024c2.563.074 4.145 2.45 6.69 2.445" stroke="#004226" stroke-width="2.5" stroke-miterlimit="10" fill="none"/><path d="M344.703 279.774c-2.562.074-4.144 2.457-6.7 2.45" stroke="#004226" stroke-width="2.5" stroke-miterlimit="10" fill="none"/><path d="M344.703 279.774c2.563.074 4.145 2.457 6.695 2.45" stroke="#004226" stroke-width="2.5" stroke-miterlimit="10" fill="none"/><path d="M358.098 279.774c-2.567.074-4.145 2.457-6.7 2.45" stroke="#004226" stroke-width="2.5" stroke-miterlimit="10" fill="none"/><path d="M358.098 279.774c2.562.074 4.144 2.457 6.69 2.45" stroke="#004226" stroke-width="2.5" stroke-miterlimit="10" fill="none"/><path d="M371.492 279.774c-2.57.074-4.152 2.457-6.703 2.45" stroke="#004226" stroke-width="2.5" stroke-miterlimit="10" fill="none"/><path d="M371.492 279.774c2.563.074 4.145 2.457 6.692 2.45" stroke="#004226" stroke-width="2.5" stroke-miterlimit="10" fill="none"/><path d="M197.22 295.988c-2.572.075-4.154 2.454-6.7 2.454" stroke="#004226" stroke-width="2.5" stroke-miterlimit="10" fill="none"/><path d="M183.824 295.988c2.563.075 4.145 2.454 6.696 2.454" stroke="#004226" stroke-width="2.5" stroke-miterlimit="10" fill="none"/><path d="M183.824 295.988c-2.562.075-4.144 2.454-6.7 2.454" stroke="#004226" stroke-width="2.5" stroke-miterlimit="10" fill="none"/><path d="M170.43 295.988c2.562.075 4.148 2.454 6.695 2.454" stroke="#004226" stroke-width="2.5" stroke-miterlimit="10" fill="none"/><path d="M170.43 295.988c-2.563.075-4.145 2.454-6.7 2.454" stroke="#004226" stroke-width="2.5" stroke-miterlimit="10" fill="none"/><path d="M157.04 295.988c2.562.075 4.144 2.454 6.694 2.454" stroke="#004226" stroke-width="2.5" stroke-miterlimit="10" fill="none"/><path d="M157.04 295.988c-2.567.075-4.15 2.454-6.704 2.454" stroke="#004226" stroke-width="2.5" stroke-miterlimit="10" fill="none"/><path d="M143.645 295.988c2.562.075 4.144 2.454 6.7 2.454" stroke="#004226" stroke-width="2.5" stroke-miterlimit="10" fill="none"/><path d="M202.53 295.676c2.568.074 4.15 2.457 6.7 2.453" stroke="#004226" stroke-width="2.5" stroke-miterlimit="10" fill="none"/><path d="M215.922 295.676c-2.563.074-4.145 2.457-6.692 2.453" stroke="#004226" stroke-width="2.5" stroke-miterlimit="10" fill="none"/><path d="M215.922 295.676c2.57.074 3.543 1.168 4.25 1.18" stroke="#004226" stroke-width="2.5" stroke-miterlimit="10" fill="none"/><path d="M330.25 295.043c2.563.07 4.145 2.453 6.695 2.45" stroke="#004226" stroke-width="2.5" stroke-miterlimit="10" fill="none"/><path d="M343.645 295.043c-2.57.07-4.153 2.453-6.7 2.45" stroke="#004226" stroke-width="2.5" stroke-miterlimit="10" fill="none"/><path d="M343.645 295.043c2.562.07 4.144 2.453 6.69 2.45" stroke="#004226" stroke-width="2.5" stroke-miterlimit="10" fill="none"/><path d="M357.04 295.043c-2.57.07-4.153 2.453-6.704 2.45" stroke="#004226" stroke-width="2.5" stroke-miterlimit="10" fill="none"/><path d="M357.03 295.043c2.572.07 4.154 2.453 6.7 2.45" stroke="#004226" stroke-width="2.5" stroke-miterlimit="10" fill="none"/><path d="M370.43 295.043c-2.567.07-4.15 2.453-6.7 2.45" stroke="#004226" stroke-width="2.5" stroke-miterlimit="10" fill="none"/><path d="M370.426 295.043c2.566.07 4.152 2.453 6.7 2.45" stroke="#004226" stroke-width="2.5" stroke-miterlimit="10" fill="none"/><path d="M157.824 309.567c-2.57.074-4.152 2.457-6.7 2.453" stroke="#004226" stroke-width="2.5" stroke-miterlimit="10" fill="none"/><path d="M157.824 309.567c2.563.074 4.145 2.457 6.692 2.453" stroke="#004226" stroke-width="2.5" stroke-miterlimit="10" fill="none"/><path d="M171.22 309.567c-2.572.074-4.154 2.457-6.704 2.453" stroke="#004226" stroke-width="2.5" stroke-miterlimit="10" fill="none"/><path d="M171.22 309.567c2.56.074 4.143 2.457 6.69 2.453" stroke="#004226" stroke-width="2.5" stroke-miterlimit="10" fill="none"/><path d="M184.61 309.567c-2.563.074-4.145 2.457-6.7 2.453" stroke="#004226" stroke-width="2.5" stroke-miterlimit="10" fill="none"/><path d="M184.61 309.567c2.562.074 4.148 2.457 6.695 2.453" stroke="#004226" stroke-width="2.5" stroke-miterlimit="10" fill="none"/><path d="M198.004 309.567c-2.563.074-4.145 2.457-6.7 2.453" stroke="#004226" stroke-width="2.5" stroke-miterlimit="10" fill="none"/><path d="M198.004 309.567c2.562.074 4.144 2.457 6.7 2.453" stroke="#004226" stroke-width="2.5" stroke-miterlimit="10" fill="none"/><path d="M211.398 309.567c-2.562.074-4.148 2.457-6.695 2.453" stroke="#004226" stroke-width="2.5" stroke-miterlimit="10" fill="none"/><path d="M211.398 309.567c2.567.074 4.15 2.457 6.7 2.453" stroke="#004226" stroke-width="2.5" stroke-miterlimit="10" fill="none"/><path d="M224.79 309.567c-2.563.074-4.145 2.457-6.692 2.453" stroke="#004226" stroke-width="2.5" stroke-miterlimit="10" fill="none"/><path d="M320.063 308.88c2.566.073 4.148 2.456 6.703 2.452" stroke="#004226" stroke-width="2.5" stroke-miterlimit="10" fill="none"/><path d="M333.457 308.88c-2.562.073-4.144 2.456-6.7 2.452" stroke="#004226" stroke-width="2.5" stroke-miterlimit="10" fill="none"/><path d="M333.457 308.88c2.566.073 4.145 2.456 6.695 2.452" stroke="#004226" stroke-width="2.5" stroke-miterlimit="10" fill="none"/><path d="M346.852 308.88c-2.57.073-4.145 2.456-6.7 2.452" stroke="#004226" stroke-width="2.5" stroke-miterlimit="10" fill="none"/><path d="M346.852 308.88c2.562.073 4.144 2.456 6.695 2.452" stroke="#004226" stroke-width="2.5" stroke-miterlimit="10" fill="none"/><path d="M360.246 308.88c-2.57.073-4.152 2.456-6.7 2.452" stroke="#004226" stroke-width="2.5" stroke-miterlimit="10" fill="none"/><path d="M360.246 308.88c2.563.073 4.145 2.456 6.692 2.452" stroke="#004226" stroke-width="2.5" stroke-miterlimit="10" fill="none"/><path d="M373.64 308.88c-2.57.073-4.152 2.456-6.702 2.452" stroke="#004226" stroke-width="2.5" stroke-miterlimit="10" fill="none"/><path d="M373.633 308.88c2.57.073 4.152 2.456 6.7 2.452" stroke="#004226" stroke-width="2.5" stroke-miterlimit="10" fill="none"/><path d="M163.38 325.762c-2.564.07-4.146 2.45-6.692 2.445" stroke="#004226" stroke-width="2.5" stroke-miterlimit="10" fill="none"/><path d="M163.38 325.762c2.57.07 4.15 2.45 6.698 2.445" stroke="#004226" stroke-width="2.5" stroke-miterlimit="10" fill="none"/><path d="M176.773 325.762c-2.562.07-4.144 2.45-6.695 2.445" stroke="#004226" stroke-width="2.5" stroke-miterlimit="10" fill="none"/><path d="M176.773 325.762c2.57.07 4.15 2.45 6.7 2.445" stroke="#004226" stroke-width="2.5" stroke-miterlimit="10" fill="none"/><path d="M190.172 325.762c-2.57.07-4.15 2.45-6.7 2.445" stroke="#004226" stroke-width="2.5" stroke-miterlimit="10" fill="none"/><path d="M190.172 325.762c2.562.07 4.144 2.45 6.695 2.445" stroke="#004226" stroke-width="2.5" stroke-miterlimit="10" fill="none"/><path d="M203.566 325.762c-2.57.07-4.152 2.45-6.7 2.445" stroke="#004226" stroke-width="2.5" stroke-miterlimit="10" fill="none"/><path d="M203.566 325.762c2.563.07 4.145 2.45 6.692 2.445" stroke="#004226" stroke-width="2.5" stroke-miterlimit="10" fill="none"/><path d="M216.96 325.762c-2.565.07-4.148 2.45-6.702 2.445" stroke="#004226" stroke-width="2.5" stroke-miterlimit="10" fill="none"/><path d="M216.96 325.762c2.563.07 4.145 2.45 6.696 2.445" stroke="#004226" stroke-width="2.5" stroke-miterlimit="10" fill="none"/><path d="M232.78 325.402c-4.944.157-6.573 2.81-9.124 2.805" stroke="#004226" stroke-width="2.5" stroke-miterlimit="10" fill="none"/><path d="M328.898 324.707c-2.562.078-4.148 2.453-6.7 2.45" stroke="#004226" stroke-width="2.5" stroke-miterlimit="10" fill="none"/><path d="M328.898 324.707c2.563.078 4.145 2.453 6.7 2.45" stroke="#004226" stroke-width="2.5" stroke-miterlimit="10" fill="none"/><path d="M342.29 324.707c-2.563.078-4.145 2.453-6.696 2.45" stroke="#004226" stroke-width="2.5" stroke-miterlimit="10" fill="none"/><path d="M342.29 324.707c2.565.078 4.148 2.453 6.694 2.45" stroke="#004226" stroke-width="2.5" stroke-miterlimit="10" fill="none"/><path d="M355.684 324.707c-2.563.078-4.145 2.453-6.7 2.45" stroke="#004226" stroke-width="2.5" stroke-miterlimit="10" fill="none"/><path d="M355.684 324.707c2.566.078 4.144 2.453 6.695 2.45" stroke="#004226" stroke-width="2.5" stroke-miterlimit="10" fill="none"/><path d="M369.078 324.707c-2.57.078-4.148 2.453-6.7 2.45" stroke="#004226" stroke-width="2.5" stroke-miterlimit="10" fill="none"/><path d="M369.078 324.707c2.563.078 4.145 2.453 6.695 2.45" stroke="#004226" stroke-width="2.5" stroke-miterlimit="10" fill="none"/><path d="M173.555 340.512c-2.563.07-4.145 2.453-6.696 2.45" stroke="#004226" stroke-width="2.5" stroke-miterlimit="10" fill="none"/><path d="M173.555 340.512c2.57.07 4.152 2.453 6.7 2.45" stroke="#004226" stroke-width="2.5" stroke-miterlimit="10" fill="none"/><path d="M186.95 340.512c-2.563.07-4.145 2.453-6.696 2.45" stroke="#004226" stroke-width="2.5" stroke-miterlimit="10" fill="none"/><path d="M186.95 340.512c2.566.07 4.152 2.453 6.698 2.45" stroke="#004226" stroke-width="2.5" stroke-miterlimit="10" fill="none"/><path d="M200.348 340.512c-2.567.07-4.153 2.453-6.7 2.45" stroke="#004226" stroke-width="2.5" stroke-miterlimit="10" fill="none"/><path d="M200.348 340.512c2.562.07 4.144 2.453 6.695 2.45" stroke="#004226" stroke-width="2.5" stroke-miterlimit="10" fill="none"/><path d="M213.742 340.512c-2.57.07-4.152 2.453-6.7 2.45" stroke="#004226" stroke-width="2.5" stroke-miterlimit="10" fill="none"/><path d="M213.742 340.512c2.563.07 4.145 2.453 6.695 2.45" stroke="#004226" stroke-width="2.5" stroke-miterlimit="10" fill="none"/><path d="M306.102 341.606c2.562.07 4.144 2.453 6.69 2.45" stroke="#004226" stroke-width="2.5" stroke-miterlimit="10" fill="none"/><path d="M319.492 341.606c-2.566.07-4.148 2.453-6.7 2.45" stroke="#004226" stroke-width="2.5" stroke-miterlimit="10" fill="none"/><path d="M319.488 341.606c2.567.07 4.153 2.453 6.7 2.45" stroke="#004226" stroke-width="2.5" stroke-miterlimit="10" fill="none"/><path d="M332.887 341.606c-2.567.07-4.153 2.453-6.7 2.45" stroke="#004226" stroke-width="2.5" stroke-miterlimit="10" fill="none"/><path d="M332.883 341.606c2.566.07 4.148 2.453 6.7 2.45" stroke="#004226" stroke-width="2.5" stroke-miterlimit="10" fill="none"/><path d="M346.273 341.606c-2.562.07-4.144 2.453-6.69 2.45" stroke="#004226" stroke-width="2.5" stroke-miterlimit="10" fill="none"/><path d="M346.273 341.606c2.57.07 4.153 2.453 6.704 2.45" stroke="#004226" stroke-width="2.5" stroke-miterlimit="10" fill="none"/><path d="M359.668 341.606c-2.563.07-4.145 2.453-6.69 2.45" stroke="#004226" stroke-width="2.5" stroke-miterlimit="10" fill="none"/><path d="M189.633 356.336c-2.567.074-4.15 2.457-6.695 2.45" stroke="#004226" stroke-width="2.5" stroke-miterlimit="10" fill="none"/><path d="M189.633 356.336c2.566.074 4.148 2.457 6.695 2.45" stroke="#004226" stroke-width="2.5" stroke-miterlimit="10" fill="none"/><path d="M203.027 356.336c-2.562.074-4.144 2.457-6.7 2.45" stroke="#004226" stroke-width="2.5" stroke-miterlimit="10" fill="none"/><path d="M203.027 356.336c2.567.074 4.145 2.457 6.696 2.45" stroke="#004226" stroke-width="2.5" stroke-miterlimit="10" fill="none"/><path d="M216.422 356.336c-2.563.074-4.145 2.457-6.7 2.45" stroke="#004226" stroke-width="2.5" stroke-miterlimit="10" fill="none"/><path d="M216.422 356.336c2.562.074 4.144 2.457 6.7 2.45" stroke="#004226" stroke-width="2.5" stroke-miterlimit="10" fill="none"/><path d="M227.637 356.91c-.79-.043-1.965 1.883-4.516 1.875" stroke="#004226" stroke-width="2.5" stroke-miterlimit="10" fill="none"/><path d="M277.11 356.625c-2.563.078-4.145 2.457-6.696 2.45" stroke="#004226" stroke-width="2.5" stroke-miterlimit="10" fill="none"/><path d="M277.11 356.625c2.562.078 4.148 2.457 6.7 2.45" stroke="#004226" stroke-width="2.5" stroke-miterlimit="10" fill="none"/><path d="M290.504 356.625c-2.563.078-4.145 2.457-6.7 2.45" stroke="#004226" stroke-width="2.5" stroke-miterlimit="10" fill="none"/><path d="M290.504 356.625c2.562.078 4.144 2.457 6.7 2.45" stroke="#004226" stroke-width="2.5" stroke-miterlimit="10" fill="none"/><path d="M303.898 356.625c-2.562.078-4.148 2.457-6.7 2.45" stroke="#004226" stroke-width="2.5" stroke-miterlimit="10" fill="none"/><path d="M303.898 356.625c2.563.078 4.145 2.457 6.696 2.45" stroke="#004226" stroke-width="2.5" stroke-miterlimit="10" fill="none"/><path d="M317.29 356.625c-2.563.078-4.145 2.457-6.696 2.45" stroke="#004226" stroke-width="2.5" stroke-miterlimit="10" fill="none"/><path d="M317.29 356.625c2.565.078 4.148 2.457 6.694 2.45" stroke="#004226" stroke-width="2.5" stroke-miterlimit="10" fill="none"/><path d="M330.684 356.625c-2.567.078-4.15 2.457-6.7 2.45" stroke="#004226" stroke-width="2.5" stroke-miterlimit="10" fill="none"/><path d="M330.684 356.625c2.566.078 4.144 2.457 6.695 2.45" stroke="#004226" stroke-width="2.5" stroke-miterlimit="10" fill="none"/><path d="M344.078 356.625c-2.57.078-4.148 2.457-6.7 2.45" stroke="#004226" stroke-width="2.5" stroke-miterlimit="10" fill="none"/><path d="M344.074 356.625c2.567.078 4.15 2.457 6.7 2.45" stroke="#004226" stroke-width="2.5" stroke-miterlimit="10" fill="none"/><path d="M209.523 373.13c-2.562.07-4.148 2.448-6.695 2.444" stroke="#004226" stroke-width="2.5" stroke-miterlimit="10" fill="none"/><path d="M209.523 373.13c2.563.07 4.145 2.448 6.7 2.444" stroke="#004226" stroke-width="2.5" stroke-miterlimit="10" fill="none"/><path d="M222.914 373.13c-2.562.07-4.144 2.448-6.69 2.444" stroke="#004226" stroke-width="2.5" stroke-miterlimit="10" fill="none"/><path d="M222.914 373.13c2.57.07 4.152 2.448 6.703 2.444" stroke="#004226" stroke-width="2.5" stroke-miterlimit="10" fill="none"/><path d="M236.31 373.13c-2.564.07-4.146 2.448-6.693 2.444" stroke="#004226" stroke-width="2.5" stroke-miterlimit="10" fill="none"/><path d="M236.31 373.13c2.57.07 4.15 2.448 6.698 2.444" stroke="#004226" stroke-width="2.5" stroke-miterlimit="10" fill="none"/><path d="M249.707 373.13c-2.566.07-4.148 2.448-6.7 2.444" stroke="#004226" stroke-width="2.5" stroke-miterlimit="10" fill="none"/><path d="M249.707 373.13c2.566.07 4.145 2.448 6.695 2.444" stroke="#004226" stroke-width="2.5" stroke-miterlimit="10" fill="none"/><path d="M263.102 373.13c-2.563.07-4.145 2.448-6.7 2.444" stroke="#004226" stroke-width="2.5" stroke-miterlimit="10" fill="none"/><path d="M263.102 373.13c2.562.07 4.144 2.448 6.695 2.444" stroke="#004226" stroke-width="2.5" stroke-miterlimit="10" fill="none"/><path d="M276.496 373.13c-2.566.07-4.144 2.448-6.7 2.444" stroke="#004226" stroke-width="2.5" stroke-miterlimit="10" fill="none"/><path d="M276.496 373.13c2.563.07 4.145 2.448 6.692 2.444" stroke="#004226" stroke-width="2.5" stroke-miterlimit="10" fill="none"/><path d="M289.89 373.13c-2.57.07-4.152 2.448-6.702 2.444" stroke="#004226" stroke-width="2.5" stroke-miterlimit="10" fill="none"/><path d="M289.89 373.13c2.563.07 4.145 2.448 6.692 2.444" stroke="#004226" stroke-width="2.5" stroke-miterlimit="10" fill="none"/><path d="M303.28 373.13c-2.565.07-4.147 2.448-6.698 2.444" stroke="#004226" stroke-width="2.5" stroke-miterlimit="10" fill="none"/><path d="M303.277 373.13c2.567.07 4.153 2.448 6.7 2.444" stroke="#004226" stroke-width="2.5" stroke-miterlimit="10" fill="none"/><path d="M316.676 373.13c-2.567.07-4.153 2.448-6.7 2.444" stroke="#004226" stroke-width="2.5" stroke-miterlimit="10" fill="none"/><path d="M316.672 373.13c2.566.07 4.148 2.448 6.7 2.444" stroke="#004226" stroke-width="2.5" stroke-miterlimit="10" fill="none"/><path d="M310.586 306.297c-2.844 1.78-.445-10.863 1.035-16.277 1.84-6.746 7.454-15.692 9.427-16.618 1.492-.7 2.168 12.415.383 18.028-1.957 6.16-6.922 12.406-10.844 14.867zM1223.18 664.82" fill="#fff" fill-rule="evenodd" stroke="#004226" stroke-width="2.5" stroke-miterlimit="10"/><path d="M321.203 273.293l2.543-5.72" stroke="#004226" stroke-width="2.5" stroke-miterlimit="10" fill="none"/><path d="M306.688 305.4c-3.356.135 5.01-9.65 8.984-13.615 4.945-4.937 14.258-9.918 16.43-9.742 1.644.133-4.282 11.856-8.618 15.836-4.76 4.374-12.17 7.327-16.796 7.52zm456.296 179.26" fill="#fff" fill-rule="evenodd" stroke="#004226" stroke-width="2.5" stroke-miterlimit="10"/><path d="M332.29 282.027l5.046-3.7" stroke="#004226" stroke-width="2.5" stroke-miterlimit="10" fill="none"/><path d="M305.715 308.91c-4.098-4.582 1.816-8.39 6.683-10.8 6.258-3.102 16.11-6.485 18.188-5.833 1.574.5-6.82 10.602-11.934 13.516-5.613 3.203-9.85 6.57-12.937 3.117zm456.297 179.262" fill="#fff" fill-rule="evenodd" stroke="#004226" stroke-width="2.5" stroke-miterlimit="10"/><path d="M312.922 314.72c-18.03 6.905-11.38-3.958-7.266-6.153 6.164-3.29 16.114-6.485 18.192-5.825 1.574.493-.965 3.4-5.43 7.24-5.613 4.827-.738 2.917-5.496 4.737zm456.297 179.26" fill="#fff" fill-rule="evenodd" stroke="#004226" stroke-width="2.5" stroke-miterlimit="10"/><path d="M431.164 451.57c1.172 2.58 1.664 5.157 2.84 7.735-6.258 4.512-7.363 9.527-5.91 14.332 1.55.906 2.957.906 4.207 0 5.48-7.64 11.16-13.672 16.95-18.883 4.13-.594 7.36-.28 9.898.723 1.657-.996 3.23-2.082 4.625-3.34 3.036-2.453 7.122-12.262 8.16-18.9-5.003 1.908-9.968 4.095-14.812 7.095-1.706 1.063-1.792 5.863-2.147 8.8-1.797-3.757-3.707-12.362-1.72-14.605 6.888-4.992 23.99-11.722 33.927-19.324.785 2.438 1.578 4.867 2.363 7.305-15.223 12.746-15.05 30.68-19.328 33.926-1.527 1.664-3.79 3-5.848 4.093.274 3.282.21 6.825-1.36 8.9-6.624 7.413-13.96 15.905-22.405 23.315 3.26 4.57 4.398 8.852 3.414 14.332-3.81 2.532-7.907 3.99-13.536 5.004-.19-.414-.382-.836-.566-1.25 7.676-3.812 13.348-7.8 8.53-15.582-2.51-.68-5.1 3.04-7.28 3.528-.148.335-7.277-3.063-5.117-13.082 2.03-2.274 5.183 1.265 9.668 3.07 9.047-8.133 16.84-16.625 23.77-25.367.148-3.032-2.126-4.09-6.83-3.18-7.882 6.254-18.385 20.13-20.807 20.473-2.282.425-7.512-6.368-7.62-12.4-1.04-4.534 2.13-12.55 6.936-16.718" fill="#004226" fill-rule="evenodd"/><path d="M411.977 492.914c8.968-3.597 11.023 6.21 13.76 14.695.447 2.36-.98 4.14-3.07 5.343-2.94-.488-5.48-.312-8.417-.8-1.047 5.59-3.316 8.843-5.074 8.01-2.738-2.628-4.164-2.846-6.547-3.34.936 9.708-23.685 22.267-30.192 23.247-6.227.813-11.313-5.312-13.89-12.69.624-.18.843-.09 1.468-.267 1.554 3.614 3.554 6.778 8.68 6.813 13.76-3.473 24.136-9.442 31.124-17.902 1.364-3.34.875-5.88-.265-8.145.578-.228 1.16-.45 1.734-.67 1.425 3.07 1.25 5.388 2.007 7.743 1.426-.176 3.07-.13 4.14-.664 2.4-.302 3.657-1.973 4.274-4.41.563-5.892-.91-15.978.267-16.966" fill="#004226" fill-rule="evenodd"/><path d="M379.785 509.75l7.613 3.738 3.07-6.414-7.21-3.472" fill="#004226" fill-rule="evenodd"/><path d="M368.566 514.692l7.614 3.738 3.07-6.41-7.21-3.477" fill="#004226" fill-rule="evenodd"/><path d="M302.266 537.414l7.617 3.742 3.07-6.41-7.21-3.472" fill="#004226" fill-rule="evenodd"/><path d="M289.367 525.59l7.61 3.738 3.074-6.41-7.214-3.476" fill="#004226" fill-rule="evenodd"/><path d="M277.105 528.598l7.614 3.738 3.07-6.41-7.212-3.473" fill="#004226" fill-rule="evenodd"/><path d="M360.313 547.274c.398 1.156-.317 4.207-3.153 6.043-3.44 2.234-3.918 2.097-7.55 4.84-.16-1.114-.122-2.973 3.015-5.352 3.723-2.285 4.66-2.645 7.688-5.53" fill="#004226" fill-rule="evenodd"/><path d="M353.078 526.692c2.95 2.95 4.64 7.16 5.07 12.625-.707 5.054-2.277 6.863-4.246 7.2-2.95-.77-4.597-1.755-5.664-2.833.512 2.28-.957 4.242-4.218 5.898-2.145-.437-3.864-1.293-4.747-3.305-2.988 4.625-7 7.965-12.507 9.438-3.582-.313-6.055-1.727-7.434-4.246-2.473 4.15-3.605 9.315-11.445 9.44-3.434-.297-5.926-1.71-7.79-3.894-3.472 5.222-6.335 10.867-14.51 12.742-3.462.324-8.806-4.56-9.087-12.152-.117-2.125.434-3.696.94-5.192l1.775 1.176c-.902 2.125-.63 4.488.35 6.613 1.62 2.75 3.974 4.047 6.85 3.656 4.503-1.848 8.593-4.247 11.21-8.614-.652-3.87-4.44-9.047-11.094-14.515 1.103-1.804.904-4.445 2.005-6.25 5.422 5.407 7.793 13.34 13.805 18.05 1.59.59 3.48.982 6.02.943 7.788-.637 9.433-5.028 11.445-9.203.43.242.867.476 1.297.71-.39 2.774.984 4.66 6.253 4.602 6.184-.742 10.336-3.86 10.856-11.21.513.437 1.024.866 1.532 1.3-.625 1.887.317 3.145 2.832 3.773 3.364-.097 4.352-3.44 4.246-8.257.438.195.87.39 1.3.59-.37 2.652.337 4.816 3.423 5.898 2.598-.668 3.777-2.12 3.543-4.363-1.262-1.418-1.457-3.188-3.31-4.13.912-2.124 1.03-4.366 1.302-6.49" fill="#004226" fill-rule="evenodd"/><path d="M220.402 556.285c1.99-4.773 5.96-9.855 8.594-10.285 4.027-.363 7.184 5.156 10.79 5.09-.036.305-.067 1.004-.1 1.3-10.057 6.696-13.42 11.094-21.186 11.192-6.492.305-5.324-8.953-6.69-9.293-4.732 3.53-8.896 3.33-11.49 2.597-3.242 3.707-7.254 8.055-12.093 10.695-4.66-2.117-5.946-4.035-8.793-4.7.265-.398.535-.398.8-.8 7.87 1.754 14.02.063 17.086-4.297-.914-5.484-3.91.676-5.7-5.593 1.5-5.65 3.087-10.65 8-11.188 4.376.492 4.18 7.648 5.09 12.387 2.552.864 8.196-.39 8.196-3.198 3.56-13.024 6.87-23.15 12.29-24.18 8.61-.266 15.906-.297 23.382-.9-.473 1.904-2.89 2.497-7.094 4.4-6.945 1.648-12.414-.653-19.586.695-3.828 7.434-5.757 14.86-6.394 22.285.883 2.766 2.68 3.7 4.898 3.793zm463.49 172.672c3.667-.238 6.35 3.2 8.495 3.2-2.344 1.984-5.934 5.187-10.094 5.593-2.426-.102-3.012-.37-3.996-2.098 1.183-4.152 5.207-7.648 5.594-6.695" fill="#004226" fill-rule="evenodd"/><path d="M188.47 536.34c1.428.047-.04 5.906 2.03 8.406-1.055 3.125-3.785 2.098-6.496 4.926-.926-.574-.942-3.652-2.2-5.223-13.968 7.023-14.085 5.437-16.07 5.01-1.586-2.167-1.07-4.71-1.093-7.19-9.273-1.383-15.167 1.132-38.945-16.094-2.316-1.64-3.375-3.64-2.453-9.356 1.492-4.117 3.89-6.3 6.97-7.89l.292 1.324c-1.402 1.45-2.645 3.05-2.797 5.75-1.32 1.816.38 3.633 2.504 5.453 10.212 7.79 21.852 14.695 34.868 18.422 3.692-.68 5.344-1.76 7.29-3.685-.048.832-.095 1.668-.145 2.508-.965.754-2.243 1.707-3.832 2.15-.738 2.225-.542 3.91.59 5.51 2.208.766 6.45-.703 12.086-3.68 1.91-3.5 4.243-5.343 7.403-6.343" fill="#004226" fill-rule="evenodd"/><path d="M157.71 518.586c2.08-.06 2.454 3.816 4.06 5.953-.07 1.386-3.418 1-5.723 1.886-1.57.754-2.485-3.75-4.192-6.004-.828-1.06 3.645-.96 5.856-1.836" fill="#004226" fill-rule="evenodd"/><path d="M147.38 513.31c2.08-.06 2.448 3.807 4.058 5.944-.07 1.395-3.418 1.008-5.723 1.89-1.567.758-2.488-3.75-4.192-6-.835-1.062 3.645-.968 5.856-1.835" fill="#004226" fill-rule="evenodd"/><path d="M77.227 448.168c2.054.336 1.68 4.203 2.85 6.61-.33 1.347-3.542.33-5.975.765-1.68.445-1.723-4.152-2.97-6.687-.616-1.204 3.76-.254 6.095-.688" fill="#004226" fill-rule="evenodd"/><path d="M113.3 512.39c-2.964-.335-6.33-.972-10.116-1.91-3.3-.85-4.692-.144-5.746.594 2.066.434 3.695.68 9.613 2.356 2.005.504 4.727-.38 6.25-1.04" fill="#004226" fill-rule="evenodd"/><path d="M42.508 417.484c8.95-2.285 18.11-1.45 20.89 4.083.946 3.17.07 3.546-1.605 4.687 2.707 1.473 5.836 3.633 5.293 7.03-.06 2.33-4.375 5.033-7.5 3.954-11.03-3.93-19.133-8.754-22.106-21.7.625-.284.25-.112.875-.397.836 1.016 2.067 1.86 4.153 2.344zm473.02 197.04c2.175-.407 3.503-1.422 3.788-3.715.184-2.19-1.367-3.51-3.71-4.427-4.34-1.11-8.282-1.942-12.41-2.21.195 2.65 9.42 11.245 12.33 10.35zm-15.286-16.368c5.453-.96 11.36-1.172 15.97 1.664.765 3-1.013 3.492-3.83 3.54-6.284-.864-10.702-2.23-12.14-5.204" fill="#004226" fill-rule="evenodd"/><path d="M139.957 504.56c-2.605-.048-5.152.225-7.46 1.66-1.43-1.587-4.196-2.583-8.294-2.986-33.832-.105-50.29-15.433-58.37-28.59-2.895-4.964-3.274-10.632-5.638-12.702-6.18-1.024-12.672-3.64-13.1-7.297-.454-3.71 3.448-6.082 6.26-8.012-3.48-.28-9.62.144-12.23-1.44-1.184-3.646-2.73-7.294-4.812-10.943l1-.828c5.316 9.727 15.222 12.785 29.734 10.937 0 .39.113.886.113 1.832-3.535.328-5.183.55-8.722.324-1.946 2.324-3.54 5.11-2.22 7.136.555 8.165 12.352 5.64 13.43 7.293.907 2.34-.043 3.153 1.493 8.012 3.548 16.977 31.313 30.766 59.532 33.117 4.96.645 7.308 1.547 9.285 2.485" fill="#004226" fill-rule="evenodd"/></g></svg>