<?xml version="1.0" encoding="UTF-8" standalone="no"?>
<svg
   xmlns:dc="http://purl.org/dc/elements/1.1/"
   xmlns:cc="http://creativecommons.org/ns#"
   xmlns:rdf="http://www.w3.org/1999/02/22-rdf-syntax-ns#"
   xmlns:svg="http://www.w3.org/2000/svg"
   xmlns="http://www.w3.org/2000/svg"
   xmlns:sodipodi="http://sodipodi.sourceforge.net/DTD/sodipodi-0.dtd"
   xmlns:inkscape="http://www.inkscape.org/namespaces/inkscape"
   width="714.79492"
   height="595.70532"
   viewBox="0 0 571.83594 476.56426"
   version="1.1"
   id="svg2"
   inkscape:version="0.48.2 r9819"
   sodipodi:docname="Balochistan logo.svg">
  <metadata
     id="metadata74">
    <rdf:RDF>
      <cc:Work
         rdf:about="">
        <dc:format>image/svg+xml</dc:format>
        <dc:type
           rdf:resource="http://purl.org/dc/dcmitype/StillImage" />
      </cc:Work>
    </rdf:RDF>
  </metadata>
  <sodipodi:namedview
     pagecolor="#ffffff"
     bordercolor="#666666"
     borderopacity="1"
     objecttolerance="10"
     gridtolerance="10"
     guidetolerance="10"
     inkscape:pageopacity="0"
     inkscape:pageshadow="2"
     inkscape:window-width="1280"
     inkscape:window-height="1005"
     id="namedview72"
     showgrid="false"
     fit-margin-top="0"
     fit-margin-left="0"
     fit-margin-right="0"
     fit-margin-bottom="0"
     inkscape:zoom="0.36589147"
     inkscape:cx="358.4082"
     inkscape:cy="299.0354"
     inkscape:window-x="-4"
     inkscape:window-y="-4"
     inkscape:window-maximized="1"
     inkscape:current-layer="svg2" />
  <defs
     id="defs4">
    <clipPath
       id="clip1">
      <path
         d="m -11.25,527.5 616.25,0 0,-538.75 -616.25,0 0,538.75 z m 0,0"
         id="path7"
         inkscape:connector-curvature="0" />
    </clipPath>
  </defs>
  <g
     id="g3051"
     transform="translate(-10.273438,-20.664062)">
    <g
       id="misc2svg">
      <g
         id="g10"
         clip-rule="evenodd"
         clip-path="url(#clip1)">
        <path
           id="path12"
           d="m 294.28906,20.664062 c 104.89844,0 190.45313,85.550778 190.45313,190.449218 0,21.95703 -3.76172,43.0625 -10.64844,62.71484 l -50.3125,-38.99218 -63.71875,86.4375 -65.69141,-100.26563 -60.26562,104.21875 -67.66406,-97.30469 -47.67188,57.02344 c -9.60937,-22.72265 -14.93359,-47.67578 -14.93359,-73.83203 0,-104.89844 85.55468,-190.449218 190.45312,-190.449218 z m -22.27734,44.375 c -2.44922,0.539063 -4.67188,1.023438 -7.1211,1.5625 l 4.83985,-5.449218 -3.69531,-6.292969 6.6914,2.921875 4.84766,-5.453125 -0.71875,7.257813 6.67969,2.929687 c -2.3711,0.515625 -4.7461,1.039063 -7.1211,1.554687 l -0.71094,7.261719 -3.6914,-6.292969 z m -10.90235,22.203126 c 4.73438,10.449218 15.26563,17.738282 27.44532,17.738282 16.58593,0 30.11718,-13.531251 30.11718,-30.113282 0,-13.425782 -8.86328,-24.84375 -21.03125,-28.714844 6.5625,5.054687 10.80469,12.980468 10.80469,21.871094 0,15.1875 -12.39453,27.582031 -27.58594,27.582031 -7.73046,0 -14.73046,-3.207031 -19.75,-8.363281 z m -16.41406,49.597652 c 11.01563,-0.46484 36.32422,26.60547 35.75781,31.8125 -3.10546,9.72657 -5.48828,22.47657 -5.42187,27.00782 -0.0234,8.73828 2.40625,13.16015 2.09375,16.27343 -4.45313,8.34766 -6.77344,15.3125 -10.15234,25.58203 -1.9961,1.20313 -7.12891,1.30469 -8.60938,0.28907 0.64063,-2.03125 1.28125,-2.06641 4.07422,-3.16016 4.15625,-6.76953 6.53125,-14.07422 8.76953,-21.23047 0.0742,-8.96094 -4.57422,-12.08594 -5.61328,-21.5625 -1.57031,7.14063 -0.10938,14.82422 -1.33594,17.42578 -1.9375,7.76172 -7.01562,16.15625 -9.23828,24.82813 -2.33203,1.09765 -6.35156,0.9375 -8.88672,-0.17969 2.14453,-3.59766 3.39063,-2.5 6.3125,-4.53125 2.80469,-7.59375 4.82422,-14.49219 6.84375,-20.55859 1.91797,-9.04688 -1.97656,-15.64063 -4.10937,-23.40625 -2.83985,0.90625 -6.40625,1.80078 -9.39063,1.87109 -4.24609,0.0898 -8.21875,-2.08203 -12.39844,-2.83203 0.89844,9.02734 4.49219,13.36719 4.5,20.18359 -4.70703,10.58203 -6.15625,26.7461 -7.1289,29.31641 -2.35938,0.91406 -4.47266,1.19531 -6.0586,0.5625 -0.42968,0.75 -0.85937,1.50391 -1.57812,2.10937 -4.39844,0.4336 -7.37891,1.25782 -8.3125,-0.59375 3.20312,-4.92187 0.20312,-1.39453 5.09375,-4.48437 0.63672,-16.875 1.23047,-35.16016 1.09375,-52.80859 -0.25781,-1.23829 -1.8125,-2.91016 -4.39063,-2.98829 -1.48437,0.71485 -2.19921,1.75782 -4.45703,1.70313 -8.75781,-1.13672 -12.5,-11.59375 -12.6289,-14.1875 -0.0117,-4.46875 2.55468,-12.45703 1.37109,-24.74219 -1.61328,-0.91797 -2.44922,-2.36328 -4.83203,-2.89453 -3.30859,0.0195 -6.0625,-0.0352 -8.01172,-1.83203 2.06641,-7.10937 6.15234,-6.81641 12.84375,-7.01562 0.80078,-0.64454 1.60547,-1.28907 2.41016,-1.9336 2.0664,0.2461 3.11718,1.5 4.02343,2.89453 2.62891,0.26953 3.37891,0.39844 6.00782,0.66406 -0.2461,1.44532 -0.63672,2.75 -1.59766,4.19922 -0.0586,3.76172 -0.49609,7.6875 -2.48047,11.06641 0.0625,6.63281 -1.30469,14.71094 4.5,15.60547 7.53125,-0.74219 24.17969,-23.53516 30.9375,-22.45313 z m -18.33594,53.85547 c 2.80469,-0.0391 6.03125,8.99219 6.25782,13.77344 -0.48438,8.16797 -3.33985,16.6875 -4.125,23.57031 -1.15625,0.4375 -2.83203,1.58594 -3.61719,2.23438 -1.57031,-5.69922 -0.11719,-14.92969 -0.30859,-20.15625 1.80468,-1.91407 1.66015,-12.96875 1.79296,-19.42188 z m 126.33985,-53.85547 c 11.01562,-0.46484 36.32422,26.60547 35.75781,31.8125 -3.10547,9.72657 -5.49219,22.47657 -5.42578,27.00782 -0.0234,8.73828 2.40234,13.16015 2.09375,16.27343 -4.45703,8.34766 -6.77344,15.3125 -10.14844,25.58203 -2.0039,1.20313 -7.13281,1.30469 -8.60937,0.28907 0.63281,-2.03125 1.28125,-2.06641 4.0664,-3.16016 4.16016,-6.76953 6.53516,-14.07422 8.77735,-21.23047 0.0703,-8.96094 -4.58203,-12.08594 -5.61719,-21.5625 -1.57031,7.14063 -0.10938,14.82422 -1.33203,17.42578 -1.94141,7.76172 -7.01953,16.15625 -9.23828,24.82813 -2.33594,1.09765 -6.35938,0.9375 -8.88672,-0.17969 2.13672,-3.59766 3.38281,-2.5 6.30859,-4.53125 2.80469,-7.59375 4.82813,-14.49219 6.83985,-20.55859 1.92578,-9.04688 -1.96875,-15.64063 -4.10157,-23.40625 -2.83984,0.90625 -6.41015,1.80078 -9.39453,1.87109 -4.25,0.0898 -8.21875,-2.08203 -12.40234,-2.83203 0.89844,9.02734 4.49219,13.36719 4.50781,20.18359 -4.71484,10.58203 -6.16016,26.7461 -7.12891,29.31641 -2.35937,0.91406 -4.47656,1.19531 -6.0664,0.5625 -0.42969,0.75 -0.85938,1.50391 -1.57422,2.10937 -4.39844,0.4336 -7.37891,1.25782 -8.30859,-0.59375 3.20312,-4.92187 0.19921,-1.39453 5.08984,-4.48437 0.64062,-16.875 1.23047,-35.16016 1.09375,-52.80859 -0.25391,-1.23829 -1.8125,-2.91016 -4.38672,-2.98829 -1.48828,0.71485 -2.20703,1.75782 -4.46094,1.70313 -8.7539,-1.13672 -12.5,-11.59375 -12.63281,-14.1875 -0.0117,-4.46875 2.55859,-12.45703 1.37109,-24.74219 -1.60546,-0.91797 -2.44531,-2.36328 -4.82421,-2.89453 -3.31641,0.0195 -6.0625,-0.0352 -8.01563,-1.83203 2.07031,-7.10937 6.15625,-6.81641 12.83984,-7.01562 0.80469,-0.64454 1.61329,-1.28907 2.41407,-1.9336 2.0625,0.2461 3.11328,1.5 4.02343,2.89453 2.625,0.26953 3.37891,0.39844 6.00391,0.66406 -0.24219,1.44532 -0.62891,2.75 -1.59766,4.19922 -0.0508,3.76172 -0.49609,7.6875 -2.47656,11.06641 0.0664,6.63281 -1.30469,14.71094 4.50391,15.60547 7.52734,-0.74219 24.17969,-23.53516 30.9375,-22.45313 z m -18.34375,53.85547 c 2.80859,-0.0391 6.03515,8.99219 6.26562,13.77344 -0.48828,8.16797 -3.33984,16.6875 -4.13281,23.57031 -1.15234,0.4375 -2.82422,1.58594 -3.61719,2.23438 -1.5625,-5.69922 -0.11718,-14.92969 -0.30859,-20.15625 1.80859,-1.91407 1.66016,-12.96875 1.79297,-19.42188"
           style="fill:#004226;fill-opacity:1;fill-rule:evenodd;stroke:none"
           inkscape:connector-curvature="0" />
        <path
           id="path14"
           transform="matrix(1.25,0,0,-1.25,0,516.25)"
           d="m 236.9375,59.21875 c 116.53437,0.275 196.36875,69.34375 196.90312,82.1625 -0.30625,5.98125 -6.6375,6.90312 -6.75312,9.34062 0.0188,2.84063 2.1375,4.31563 5.25312,3.85625 4.7875,0.53438 21.92813,-33.04999 30.89063,-53.38437 C 400.26875,49.403125 327.4625,18.315625 240.37187,17.25 l 0.003,-0.02812 c -0.87813,-0.0031 -1.75313,0 -2.62813,0 -0.27187,0 -0.54062,0 -0.80937,0 -0.26875,0 -0.5375,0 -0.80938,0 -0.875,0 -1.74687,-0.0031 -2.625,0 l 0,0.02812 C 146.41875,18.315625 73.60625,49.403125 10.65,101.19375 c 8.959375,20.33438 26.1,53.91875 30.8875,53.38437 3.115625,0.45938 5.2375,-1.01562 5.25625,-3.85625 -0.11875,-2.4375 -6.45,-3.35937 -6.75625,-9.34062 0.5375,-12.81875 80.36563,-81.8875 196.9,-82.1625 z m 0,0"
           style="fill:none;stroke:#004226;stroke-width:4;stroke-linecap:butt;stroke-linejoin:miter;stroke-miterlimit:10;stroke-opacity:1"
           inkscape:connector-curvature="0" />
        <path
           id="path16"
           transform="matrix(1.25,0,0,-1.25,0,516.25)"
           d="m 42.659375,154.6 53.534375,0.14375 c 6.54375,0.0125 12.14688,-8.60625 11.975,-20.85313 C 107.95,118.00625 101.0875,106.67188 94.08125,95.7125"
           style="fill:none;stroke:#004226;stroke-width:4;stroke-linecap:butt;stroke-linejoin:miter;stroke-miterlimit:10;stroke-opacity:1"
           inkscape:connector-curvature="0" />
        <path
           id="path18"
           d="m 60.015625,327.75391 c 2.4375,-1.88672 5.28125,-1.86329 7.921875,-1.58594 12.53125,1.3164 13.890625,9.93359 14.265625,18.83984 0.367187,8.54297 -9.070313,10.8125 -5.8125,17.08594 2.46875,4.74609 8.339844,4.44922 10.742187,4.57812 7.039063,0.38282 12.414063,7.61719 18.843748,6.33985 2.28125,-0.45313 4.28125,-1.76172 6.16797,-1.9375 2.97266,-0.27735 5.54688,2.24609 5.10156,6.33984 -0.20703,1.92188 -2.79296,3.10938 -2.46093,7.04297 0.14062,1.70703 1.14843,3.56641 2.64062,4.40625 1.69141,0.94922 7.20703,-0.99609 5.8125,0.35156 -1.57422,1.51953 -4.01172,7.14453 -5.10937,6.86328 -46.308598,-23.78906 -68.269535,-45.58593 -68.152348,-59.16796 0.04297,-4.52735 6.460938,-6.38282 10.039063,-9.15625"
           style="fill:#004226;fill-opacity:1;fill-rule:evenodd;stroke:none"
           inkscape:connector-curvature="0" />
        <path
           id="path20"
           transform="matrix(1.25,0,0,-1.25,0,516.25)"
           d="m 431.73125,154.6 -53.5375,0.14375 c -6.54063,0.0125 -12.14375,-8.60625 -11.975,-20.85313 0.22187,-15.88437 7.0875,-27.21874 14.09062,-38.17812"
           style="fill:none;stroke:#004226;stroke-width:4;stroke-linecap:butt;stroke-linejoin:miter;stroke-miterlimit:10;stroke-opacity:1"
           inkscape:connector-curvature="0" />
        <path
           id="path22"
           d="m 532.97266,327.75391 c -2.4336,-1.88672 -5.28125,-1.86329 -7.92579,-1.58594 -12.53125,1.3164 -13.88281,9.93359 -14.26562,18.83984 -0.35938,8.54297 9.07031,10.8125 5.8125,17.08594 -2.46094,4.74609 -8.33594,4.44922 -10.74219,4.57812 -7.03906,0.38282 -12.41015,7.61719 -18.84375,6.33985 -2.28125,-0.45313 -4.27734,-1.76172 -6.16406,-1.9375 -2.97266,-0.27735 -5.54688,2.24609 -5.10547,6.33984 0.20703,1.92188 2.79297,3.10938 2.46484,7.04297 -0.14062,1.70703 -1.15234,3.56641 -2.64062,4.40625 -1.69141,0.94922 -7.20703,-0.99609 -5.8125,0.35156 1.57422,1.51953 4.00781,7.14453 5.10937,6.86328 46.3086,-23.78906 68.26954,-45.58593 68.14844,-59.16796 -0.0391,-4.52735 -6.45312,-6.38282 -10.03515,-9.15625"
           style="fill:#004226;fill-opacity:1;fill-rule:evenodd;stroke:none"
           inkscape:connector-curvature="0" />
        <path
           id="path24"
           transform="matrix(1.25,0,0,-1.25,0,516.25)"
           d="m 36.2375,51.70625 c 10.89375,-1.44375 18.528125,-8.484375 27.196875,-9.303125 7.109375,-0.678125 12.95625,1.784375 19.184375,0 2.575,-0.575 5.425,-5.571875 5.15,-9.021875 C 87.475,29.671875 84.8125,26.36875 80.9,25.9375 75.6,25.7 66.05,30.796875 57.996875,31.809375 50.078125,32.8 39.815625,31.378125 31.371875,32.09375"
           style="fill:none;stroke:#004226;stroke-width:2.0000999;stroke-linecap:butt;stroke-linejoin:miter;stroke-miterlimit:10;stroke-opacity:1"
           inkscape:connector-curvature="0" />
        <path
           id="path26"
           transform="matrix(1.25,0,0,-1.25,0,516.25)"
           d="m 37.075,51.765625 c 3.48125,-1.14375 4.8875,-6.45 3.11875,-11.803125 -1.759375,-5.35625 -6.034375,-8.7875 -9.51875,-7.64375 -3.484375,1.146875 -4.8875,6.45 -3.125,11.80625 1.7625,5.35 6.040625,8.784375 9.525,7.640625 z m 0,0"
           style="fill:none;stroke:#004226;stroke-width:2.0000999;stroke-linecap:butt;stroke-linejoin:miter;stroke-miterlimit:10;stroke-opacity:1"
           inkscape:connector-curvature="0" />
        <path
           id="path28"
           transform="matrix(1.25,0,0,-1.25,0,516.25)"
           d="M 31.940625,84.628125 C 24.909375,76.30625 17.965625,64.69375 17.628125,49.9875 17.35625,38.2 24.184375,32.86875 31.940625,32.953125"
           style="fill:none;stroke:#004226;stroke-width:4;stroke-linecap:butt;stroke-linejoin:miter;stroke-miterlimit:10;stroke-opacity:1"
           inkscape:connector-curvature="0" />
        <path
           id="path30"
           d="m 36.347656,456.26953 c 1.878906,-2.81641 3.410156,4.74219 7.160156,4.83203 3.226563,0.0781 7.515626,-2.17187 7.875,0.17969 1.171876,7.83594 -4.042968,14.64844 -12.167968,15.20703 -6.800782,0.47266 -9.972656,-9.55859 -2.867188,-20.21875"
           style="fill:#004226;fill-opacity:1;fill-rule:evenodd;stroke:none"
           inkscape:connector-curvature="0" />
        <path
           id="path32"
           d="m 89.6875,442.30469 c 0.492188,6.91797 -7.988281,9.2539 -7.390625,15.9414 0.222656,2.48047 5.75,3.14063 7.972656,4.78125 -5.96875,0.65235 -12.972656,0.1211 -18.550781,-1.15625 5.175781,-2.60937 6.753906,-5.16797 6.8125,-7.82812 0.132812,-6.625 -2.675781,-9.96485 -5.507812,-9.85547 -3.085938,0.125 -4.511719,4.56641 -8.117188,4.20703 -5.941406,-0.59766 -6.273438,-7.375 -11.882812,-12.32031 -3.265626,-2.875 -10.617188,-2.69922 -11.015626,-6.95703 -0.359374,-3.83594 2.761719,-5.01563 2.753907,-7.39063 -0.01172,-2.4375 -0.496094,-2.82422 -2.460938,-3.1875 -4.878906,-0.89062 -13.59375,13.41016 -19.566406,25.07031 3.753906,-10.98437 9.445313,-25.78125 17.101563,-33.61718 16.433593,12.03906 33.03125,22.97656 49.851562,32.3125"
           style="fill:#004226;fill-opacity:1;fill-rule:evenodd;stroke:none"
           inkscape:connector-curvature="0" />
        <path
           id="path34"
           transform="matrix(1.25,0,0,-1.25,0,516.25)"
           d="m 437.79375,51.70625 c -10.89375,-1.44375 -18.53125,-8.484375 -27.2,-9.303125 -7.10938,-0.678125 -12.95625,1.784375 -19.18438,0 -2.57187,-0.575 -5.425,-5.571875 -5.15312,-9.021875 0.29375,-3.709375 2.95937,-7.0125 6.87187,-7.44375 5.29688,-0.2375 14.84688,4.859375 22.90625,5.871875 7.91875,0.990625 18.18125,-0.43125 26.625,0.284375"
           style="fill:none;stroke:#004226;stroke-width:2.0000999;stroke-linecap:butt;stroke-linejoin:miter;stroke-miterlimit:10;stroke-opacity:1"
           inkscape:connector-curvature="0" />
        <path
           id="path36"
           transform="matrix(1.25,0,0,-1.25,0,516.25)"
           d="m 436.95312,51.765625 c -3.48125,-1.14375 -4.88437,-6.45 -3.12187,-11.803125 1.7625,-5.35625 6.04062,-8.7875 9.51875,-7.64375 3.4875,1.146875 4.8875,6.45 3.125,11.80625 -1.75938,5.35 -6.0375,8.784375 -9.52188,7.640625 z m 0,0"
           style="fill:none;stroke:#004226;stroke-width:2.0000999;stroke-linecap:butt;stroke-linejoin:miter;stroke-miterlimit:10;stroke-opacity:1"
           inkscape:connector-curvature="0" />
        <path
           id="path38"
           transform="matrix(1.25,0,0,-1.25,0,516.25)"
           d="M 442.0875,84.628125 C 449.12187,76.30625 456.0625,64.69375 456.40312,49.9875 456.67187,38.2 449.84687,32.86875 442.0875,32.953125"
           style="fill:none;stroke:#004226;stroke-width:4;stroke-linecap:butt;stroke-linejoin:miter;stroke-miterlimit:10;stroke-opacity:1"
           inkscape:connector-curvature="0" />
        <path
           id="path40"
           d="m 556.1875,456.26953 c -1.88281,-2.81641 -3.41016,4.74219 -7.16016,4.83203 -3.22656,0.0781 -7.51953,-2.17187 -7.87109,0.17969 -1.17578,7.83594 4.04297,14.64844 12.16797,15.20703 6.79687,0.47266 9.97265,-9.55859 2.86328,-20.21875"
           style="fill:#004226;fill-opacity:1;fill-rule:evenodd;stroke:none"
           inkscape:connector-curvature="0" />
        <path
           id="path42"
           d="m 502.85156,442.30469 c -0.49219,6.91797 7.98438,9.2539 7.38672,15.9414 -0.21875,2.48047 -5.74609,3.14063 -7.96875,4.78125 5.96875,0.65235 12.96875,0.1211 18.55078,-1.15625 -5.17969,-2.60937 -6.75781,-5.16797 -6.8125,-7.82812 -0.13672,-6.625 2.67188,-9.96485 5.50781,-9.85547 3.08204,0.125 4.51172,4.56641 8.11719,4.20703 5.9375,-0.59766 6.26953,-7.375 11.88281,-12.32031 3.26172,-2.875 10.60938,-2.69922 11.01172,-6.95703 0.36328,-3.83594 -2.76172,-5.01563 -2.7539,-7.39063 0.008,-2.4375 0.5,-2.82422 2.46484,-3.1875 4.875,-0.89062 13.59375,13.41016 19.56641,25.07031 -3.75782,-10.98437 -9.44532,-25.78125 -17.10547,-33.61718 -16.4336,12.03906 -33.02735,22.97656 -49.84766,32.3125"
           style="fill:#004226;fill-opacity:1;fill-rule:evenodd;stroke:none"
           inkscape:connector-curvature="0" />
        <path
           id="path44"
           d="m 407.26562,440.55469 3.57422,-3.57813 3.57813,3.57813 -3.57813,3.58203"
           style="fill:#004226;fill-opacity:1;fill-rule:evenodd;stroke:none"
           inkscape:connector-curvature="0" />
        <path
           id="path46"
           d="m 399.96094,441.56641 3.57812,-3.57813 3.57813,3.57813 -3.57813,3.58203"
           style="fill:#004226;fill-opacity:1;fill-rule:evenodd;stroke:none"
           inkscape:connector-curvature="0" />
        <path
           id="path48"
           d="m 288.00391,479.02344 3.57812,-3.57813 3.57813,3.57813 -3.57813,3.57812"
           style="fill:#004226;fill-opacity:1;fill-rule:evenodd;stroke:none"
           inkscape:connector-curvature="0" />
        <path
           id="path50"
           d="m 216.34766,473.32422 3.57812,-3.57813 3.58203,3.57813 -3.58203,3.57422"
           style="fill:#004226;fill-opacity:1;fill-rule:evenodd;stroke:none"
           inkscape:connector-curvature="0" />
        <path
           id="path52"
           d="m 207.51562,473.16406 3.57813,-3.57812 3.57812,3.57812 -3.57812,3.57422"
           style="fill:#004226;fill-opacity:1;fill-rule:evenodd;stroke:none"
           inkscape:connector-curvature="0" />
        <path
           id="path54"
           d="m 211.95312,477.71094 3.57813,-3.57813 3.57812,3.57813 -3.57812,3.57812"
           style="fill:#004226;fill-opacity:1;fill-rule:evenodd;stroke:none"
           inkscape:connector-curvature="0" />
        <path
           id="path56"
           d="m 74.511719,390.02344 3.578125,-3.57813 3.582031,3.57813 -3.582031,3.57812"
           style="fill:#004226;fill-opacity:1;fill-rule:evenodd;stroke:none"
           inkscape:connector-curvature="0" />
        <path
           id="path58"
           d="m 69.265625,385.95312 3.582031,-3.57812 3.574219,3.57812 -3.574219,3.57422"
           style="fill:#004226;fill-opacity:1;fill-rule:evenodd;stroke:none"
           inkscape:connector-curvature="0" />
        <path
           id="path60"
           d="m 40.914062,372.17969 3.578126,-3.58203 3.578124,3.58203 -3.578124,3.57812"
           style="fill:#004226;fill-opacity:1;fill-rule:evenodd;stroke:none"
           inkscape:connector-curvature="0" />
        <path
           id="path62"
           d="m 540.40625,379.6875 c 1.21875,-2.45313 2.01562,-4.43359 6.21484,-7.10547 4.62891,-2.94141 10.51172,2.53125 15.47266,2.92188 0.55469,2.27734 1.14453,4.94531 -0.37891,6.59765 -11.12109,7.39453 -22.11328,14.79297 -33.23437,22.19531 0.38672,4.99219 -0.16016,10.44532 -2.79297,12.6875 -1.625,1.40625 -5.64063,1.875 -4.3125,-3.04687 2.98437,-2.43359 2.89844,-5.09375 2.16016,-7.86328 -2.60157,2.08984 -9.39844,7.28906 -12.5586,4.3125 -2.24219,-2.10938 -2.42578,-10.52344 0.25391,-12.5586 2.60156,-1.98437 9.25781,-2.39062 14.20312,0.37891 3.30078,-1.98828 7.35938,-5.24219 10.66016,-7.23047 -5.66797,-2.26562 -14.51172,-0.28906 -17,-1.90625 -0.76953,-0.49609 -0.67578,-1.51562 0.25,-3.03906 4.86719,-6.34375 8.96875,-11.92578 13.82812,-18.26563 1.14454,0 2.56641,-0.75 3.42969,0 0.83594,0.71875 0.25,2.19532 0.375,3.29297 -3.59375,5.11719 -8.07422,9.72657 -11.66797,14.84375 4.0625,0.30078 8.3711,0.33985 12.42969,0.63672 0.85156,-0.2539 1.39844,1.01563 0.89063,2.78906 4.90625,-3.50781 10.82421,-7.52734 15.73046,-11.03906 -2.07421,-1.73047 -4.3164,-2.11328 -5.71093,-1.14062 -1.89844,-0.0469 -3.46875,1.49218 -4.69532,4.82422 -1.79687,-0.30079 -4.125,-0.75391 -3.54687,-2.28516 z m -25.5,21.94531 c 1.44531,-1.02734 4.16406,-1.34375 5.32812,0 1.0586,1.22266 -0.38281,2.27735 -1.69921,3.21485 -1.44922,1.03125 -3.73438,2.82421 -4.89844,1.48046 -1.0586,-1.22656 -0.0469,-3.7539 1.26953,-4.69531"
           style="fill:#004226;fill-opacity:1;fill-rule:evenodd;stroke:none"
           inkscape:connector-curvature="0" />
        <path
           id="path64"
           d="m 303.59375,463.10937 -0.26563,10.85938 c -13.35156,-0.0195 -25.65625,-0.23828 -39.01562,-0.25781 -2.44531,4.36718 -7.96094,8.46875 -11.39063,8.86328 -2.13671,0.26953 -5.73828,-1.56641 -1.90234,-4.92578 3.83203,-0.36719 5.23828,-2.62891 6.16406,-5.34375 -3.32422,1.83203 -15.99218,-0.0195 -15.82031,-5.6836 0.15234,-4.89453 6.95313,-8.21484 10.16016,-8.0039 4.76172,0.30859 11.42578,2.02343 12.14843,8.33593 l 10.98047,0.0391 -0.17968,-15.86719 c -0.0352,-3.01953 5.73046,-2.51563 5.91406,-0.0391 l 0.13672,16.0664 17.44922,-0.0391 -0.13672,-4.33203 c 0.65625,-5.00391 5.73828,-3.21875 5.75781,0.32812 z m -51.125,0.71485 c 1.78125,-0.0547 4.21484,1.19531 4.4375,2.95703 0.19922,1.60937 -2.14453,1.65625 -3.76172,1.70312 -1.77734,0.0547 -4.11328,0.30079 -4.33203,-1.46093 -0.19922,-1.60938 2.04297,-3.15235 3.65625,-3.19922"
           style="fill:#004226;fill-opacity:1;fill-rule:evenodd;stroke:none"
           inkscape:connector-curvature="0" />
        <path
           id="path66"
           d="m 320.33203,464.84375 c 50.87109,-2.65625 101.10938,-15.21875 151.99219,-36.35938 -0.87891,-2.63281 -1.66406,-4.89843 -2.54297,-7.53906 0.90234,-2.19531 2.30469,-3.5625 4.79297,-3.11719 1.28125,2.39844 2.09765,5.125 3.375,7.52344 2.39844,-1.11719 5.26172,-2.57031 7.66015,-3.6875 1.29688,-7.19531 3.9375,-12.60547 9.11719,-14.15625 5.11328,-1.52344 8.94922,0.83203 10.31641,3.35938 3.04687,5.66406 -1.75781,11.85937 -5.57031,13.01953 -5,-0.25781 -1.62891,-3.94531 -1.23438,-4.3125 2.44922,-1.56641 2.46484,-3.14844 2.00391,-4.14453 -0.5,-1.09766 -2.77344,-1.2461 -4.22266,-0.55469 -5.01953,2.37109 -2.76953,11.95312 -6.33203,13.75 -53.35547,27.42578 -109.77344,39.91406 -167.91406,45.57422 -2.58985,-2.85547 -3.07032,-5.97266 -1.44141,-9.35547"
           style="fill:#004226;fill-opacity:1;fill-rule:evenodd;stroke:none"
           inkscape:connector-curvature="0" />
        <path
           id="path68"
           d="m 216.15625,452.70312 c 5.75391,1.39844 7.89062,5.02344 13.30469,10.54297 1.20312,0.39063 3.03125,0.71875 4.22656,1.15235 0.92187,0.20312 -1.30469,6.6914 -2.05078,6.59765 l -26.23047,-5.14453 c -1.83203,-2.30078 -2.91016,-0.60937 -7.82031,-1.71875 -2.26563,-0.51562 -4.08594,-1.30469 -5.09375,-3.08594 -1.4961,1.45313 -4.04688,2.05469 -7.42969,1.27344 -3.40625,-0.78906 -5.88281,-3.24219 -7.55859,-5.53906 -1.13282,1.1875 -2.4961,1.94922 -5.41797,1.52344 -46.05078,-14.99219 -85.49219,-36.53125 -120.566409,-61.96875 -0.976562,-0.88282 -0.488281,-2.17969 0,-3.61719 l 9.101563,-21.55469 c 0.480468,-1.24219 4.773437,0.42969 4.402344,1.17969 l -7.664063,17.24609 c -0.296875,1.33985 -0.08594,3.1836 1.472656,4.15235 3.59375,2.23437 8.507813,5.4414 12.101563,7.67968 l 2.480468,-7.375 c 0.613282,-0.73437 4.558594,1.36719 4.34375,2.08594 L 75.125,404.51562 c 30.08984,19.89454 62.22656,35.39844 97.00391,46.94922 l 1.02734,-8.39453 c -0.0352,-1.03515 5.95312,-0.52734 5.71484,0.51563 l -0.73828,10.33984 c 2.89844,1.71484 5.45313,1.83594 7.80469,1.57422 l 0.65625,-8.26953 c -0.0391,-1.02735 5.40625,-0.0508 5.57031,0.91797 l -0.51953,8.18359 c 0.19531,1.44922 6.5,3.47266 7.51563,2.46484 l 0.60546,-7.51562 c 0.004,-0.86719 5.27344,-0.32031 5.23047,0.5 l -0.68359,7.72656 18.98437,3.94922 c -0.80078,-3.60547 -4.36718,-7.5 -8.05468,-7.91797 -2.42188,-0.27344 -3.14063,0.90235 -5.30078,1.0625 -0.92579,0.0625 -1.61329,-1.75 -0.50391,-2.375 1.91406,-0.91015 4.80469,-1.92187 6.71875,-1.52344"
           style="fill:#004226;fill-opacity:1;fill-rule:evenodd;stroke:none"
           inkscape:connector-curvature="0" />
        <path
           id="path70"
           d="m 48.96875,376.64844 c 0.894531,-1.92188 5.359375,-0.26172 4.550781,1.76953 -1.808593,4.07812 -2.535156,9.57031 -7.71875,15.53125 -1.617187,1.40234 -3.425781,2.6289 -5.847656,2.18359 -10.847656,-1.99219 -10.851563,-9.70312 -8.253906,-15.00781 1.644531,-3.35938 1.769531,-3.85156 3.265625,-5.74219 1.476562,-1.85937 5.785156,-0.24219 4.089844,2.52344 -0.960938,1.75 -0.921876,1.52344 -1.875,3.27344 -3.296876,3.97265 -1.574219,6.63672 3.582031,7.61718 3.660156,1.50782 5.488281,-5.78906 8.207031,-12.14843"
           style="fill:#004226;fill-opacity:1;fill-rule:evenodd;stroke:none"
           inkscape:connector-curvature="0" />
      </g>
    </g>
  </g>
</svg>
